M48
; DRILL file {KiCad 6.0.11-2627ca5db0~126~ubuntu20.04.1} date Do 20 Jul 2023 11:33:43 CEST
; FORMAT={-:-/ absolute / inch / decimal}
; #@! TF.CreationDate,2023-07-20T11:33:43+02:00
; #@! TF.GenerationSoftware,Kicad,Pcbnew,6.0.11-2627ca5db0~126~ubuntu20.04.1
; #@! TF.FileFunction,Plated,1,2,PTH
FMAT,2
INCH
; #@! TA.AperFunction,Plated,PTH,ComponentDrill
T1C0.0276
; #@! TA.AperFunction,Plated,PTH,ComponentDrill
T2C0.0315
; #@! TA.AperFunction,Plated,PTH,ComponentDrill
T3C0.0354
; #@! TA.AperFunction,Plated,PTH,ComponentDrill
T4C0.0394
; #@! TA.AperFunction,Plated,PTH,ComponentDrill
T5C0.0433
; #@! TA.AperFunction,Plated,PTH,ComponentDrill
T6C0.0453
%
G90
G05
T1
X5.035Y-3.037
X5.0366Y-2.812
X5.1366Y-2.112
X5.212Y-2.612
X5.214Y-2.262
X5.214Y-2.387
X5.214Y-2.512
X5.235Y-3.037
X5.2366Y-2.812
X5.3366Y-2.112
X5.387Y-2.837
X5.387Y-3.037
X5.412Y-2.612
X5.414Y-2.262
X5.414Y-2.387
X5.414Y-2.512
X5.512Y-2.7547
X5.512Y-2.9547
T2
X5.6626Y-2.2116
X5.6626Y-2.5116
X5.7626Y-2.2116
X5.7626Y-2.5116
X5.8626Y-2.2116
X5.8626Y-2.5116
X5.9626Y-2.2116
X5.9626Y-2.5116
X6.0626Y-2.2116
X6.0626Y-2.5116
X6.1626Y-2.2116
X6.1626Y-2.5116
X6.2626Y-2.2116
X6.2626Y-2.5116
X6.3626Y-2.2116
X6.3626Y-2.5116
T3
X4.087Y-1.912
X4.087Y-2.012
X5.3311Y-3.562
X5.3368Y-3.262
X5.4311Y-3.562
X5.4368Y-3.262
T4
X4.677Y-1.937
X4.777Y-1.937
X4.877Y-1.937
X4.977Y-1.937
X5.037Y-3.837
X5.077Y-1.937
X5.137Y-3.837
X5.177Y-1.937
X5.237Y-3.837
X5.277Y-1.937
X5.337Y-3.837
X5.377Y-1.937
X5.437Y-3.837
X5.477Y-1.937
X5.537Y-3.837
X5.577Y-1.937
X5.637Y-3.837
X5.737Y-1.937
X5.737Y-3.837
X5.837Y-1.937
X5.937Y-1.937
X5.937Y-3.837
X6.037Y-1.937
X6.037Y-3.837
X6.137Y-1.937
X6.137Y-3.837
X6.237Y-1.937
X6.237Y-3.837
X6.337Y-1.937
X6.337Y-3.837
X6.437Y-1.937
X6.437Y-3.837
T5
X4.887Y-3.2992
X4.887Y-3.5992
X4.987Y-3.2992
X4.987Y-3.5992
X5.087Y-3.2992
X5.087Y-3.5992
T6
X4.1343Y-3.3541
X4.1374Y-2.2951
X4.3311Y-3.3541
X4.3343Y-2.2951
X4.528Y-3.3541
X4.5311Y-2.2951
X4.728Y-2.2951
X4.9248Y-2.2951
X5.6715Y-3.437
X5.8683Y-3.437
X6.0652Y-3.437
X6.262Y-3.437
T0
M30
