%TF.GenerationSoftware,KiCad,Pcbnew,6.0.11-2627ca5db0~126~ubuntu20.04.1*%
%TF.CreationDate,2023-07-20T11:33:39+02:00*%
%TF.ProjectId,UNO_minimal,554e4f5f-6d69-46e6-996d-616c2e6b6963,rev?*%
%TF.SameCoordinates,Original*%
%TF.FileFunction,Copper,L2,Bot*%
%TF.FilePolarity,Positive*%
%FSLAX46Y46*%
G04 Gerber Fmt 4.6, Leading zero omitted, Abs format (unit mm)*
G04 Created by KiCad (PCBNEW 6.0.11-2627ca5db0~126~ubuntu20.04.1) date 2023-07-20 11:33:39*
%MOMM*%
%LPD*%
G01*
G04 APERTURE LIST*
%TA.AperFunction,ComponentPad*%
%ADD10R,1.700000X1.700000*%
%TD*%
%TA.AperFunction,ComponentPad*%
%ADD11O,1.700000X1.700000*%
%TD*%
%TA.AperFunction,ComponentPad*%
%ADD12C,1.400000*%
%TD*%
%TA.AperFunction,ComponentPad*%
%ADD13O,1.400000X1.400000*%
%TD*%
%TA.AperFunction,ComponentPad*%
%ADD14R,1.500000X3.000000*%
%TD*%
%TA.AperFunction,ComponentPad*%
%ADD15O,1.500000X3.000000*%
%TD*%
%TA.AperFunction,ComponentPad*%
%ADD16R,1.905000X2.000000*%
%TD*%
%TA.AperFunction,ComponentPad*%
%ADD17O,1.905000X2.000000*%
%TD*%
%TA.AperFunction,ComponentPad*%
%ADD18R,1.600000X1.600000*%
%TD*%
%TA.AperFunction,ComponentPad*%
%ADD19O,1.600000X1.600000*%
%TD*%
%TA.AperFunction,ComponentPad*%
%ADD20R,1.800000X1.800000*%
%TD*%
%TA.AperFunction,ComponentPad*%
%ADD21C,1.800000*%
%TD*%
%TA.AperFunction,Conductor*%
%ADD22C,0.400000*%
%TD*%
%TA.AperFunction,Conductor*%
%ADD23C,1.000000*%
%TD*%
%TA.AperFunction,Conductor*%
%ADD24C,0.600000*%
%TD*%
G04 APERTURE END LIST*
D10*
%TO.P,J1,1,Pin_1*%
%TO.N,unconnected-(J1-Pad1)*%
X127940000Y-97460000D03*
D11*
%TO.P,J1,2,Pin_2*%
%TO.N,/IOREF*%
X130480000Y-97460000D03*
%TO.P,J1,3,Pin_3*%
%TO.N,/~{RESET}*%
X133020000Y-97460000D03*
%TO.P,J1,4,Pin_4*%
%TO.N,+3V3*%
X135560000Y-97460000D03*
%TO.P,J1,5,Pin_5*%
%TO.N,+5V*%
X138100000Y-97460000D03*
%TO.P,J1,6,Pin_6*%
%TO.N,GND*%
X140640000Y-97460000D03*
%TO.P,J1,7,Pin_7*%
X143180000Y-97460000D03*
%TO.P,J1,8,Pin_8*%
%TO.N,VCC*%
X145720000Y-97460000D03*
%TD*%
D10*
%TO.P,J3,1,Pin_1*%
%TO.N,A0*%
X150800000Y-97460000D03*
D11*
%TO.P,J3,2,Pin_2*%
%TO.N,A1*%
X153340000Y-97460000D03*
%TO.P,J3,3,Pin_3*%
%TO.N,IN4*%
X155880000Y-97460000D03*
%TO.P,J3,4,Pin_4*%
%TO.N,IN3*%
X158420000Y-97460000D03*
%TO.P,J3,5,Pin_5*%
%TO.N,unconnected-(J3-Pad5)*%
X160960000Y-97460000D03*
%TO.P,J3,6,Pin_6*%
%TO.N,unconnected-(J3-Pad6)*%
X163500000Y-97460000D03*
%TD*%
D10*
%TO.P,J2,1,Pin_1*%
%TO.N,unconnected-(J2-Pad1)*%
X118796000Y-49200000D03*
D11*
%TO.P,J2,2,Pin_2*%
%TO.N,unconnected-(J2-Pad2)*%
X121336000Y-49200000D03*
%TO.P,J2,3,Pin_3*%
%TO.N,unconnected-(J2-Pad3)*%
X123876000Y-49200000D03*
%TO.P,J2,4,Pin_4*%
%TO.N,GND*%
X126416000Y-49200000D03*
%TO.P,J2,5,Pin_5*%
%TO.N,/13*%
X128956000Y-49200000D03*
%TO.P,J2,6,Pin_6*%
%TO.N,/12*%
X131496000Y-49200000D03*
%TO.P,J2,7,Pin_7*%
%TO.N,/\u002A11*%
X134036000Y-49200000D03*
%TO.P,J2,8,Pin_8*%
%TO.N,/\u002A10*%
X136576000Y-49200000D03*
%TO.P,J2,9,Pin_9*%
%TO.N,/\u002A9*%
X139116000Y-49200000D03*
%TO.P,J2,10,Pin_10*%
%TO.N,/8*%
X141656000Y-49200000D03*
%TD*%
D10*
%TO.P,J4,1,Pin_1*%
%TO.N,OUT_LED*%
X145720000Y-49200000D03*
D11*
%TO.P,J4,2,Pin_2*%
%TO.N,OUT1*%
X148260000Y-49200000D03*
%TO.P,J4,3,Pin_3*%
%TO.N,OUT2*%
X150800000Y-49200000D03*
%TO.P,J4,4,Pin_4*%
%TO.N,/4*%
X153340000Y-49200000D03*
%TO.P,J4,5,Pin_5*%
%TO.N,IN1*%
X155880000Y-49200000D03*
%TO.P,J4,6,Pin_6*%
%TO.N,IN2*%
X158420000Y-49200000D03*
%TO.P,J4,7,Pin_7*%
%TO.N,/TX{slash}1*%
X160960000Y-49200000D03*
%TO.P,J4,8,Pin_8*%
%TO.N,/RX{slash}0*%
X163500000Y-49200000D03*
%TD*%
D12*
%TO.P,R1,1*%
%TO.N,OUT_LED*%
X135550000Y-53645000D03*
D13*
%TO.P,R1,2*%
%TO.N,Net-(D1-Pad2)*%
X130470000Y-53645000D03*
%TD*%
D14*
%TO.P,J6,1,Pin_1*%
%TO.N,Net-(J6-Pad1)*%
X105090000Y-58295000D03*
D15*
%TO.P,J6,2,Pin_2*%
%TO.N,Net-(J6-Pad2)*%
X110090000Y-58295000D03*
%TO.P,J6,3,Pin_3*%
%TO.N,Net-(J6-Pad3)*%
X115090000Y-58295000D03*
%TO.P,J6,4,Pin_4*%
%TO.N,Net-(J6-Pad4)*%
X120090000Y-58295000D03*
%TO.P,J6,5,Pin_5*%
%TO.N,GND*%
X125090000Y-58295000D03*
%TD*%
D12*
%TO.P,R9,1*%
%TO.N,OUT2*%
X133010000Y-71425000D03*
D13*
%TO.P,R9,2*%
%TO.N,Net-(Q2-Pad1)*%
X127930000Y-71425000D03*
%TD*%
D12*
%TO.P,R6,1*%
%TO.N,OUT1*%
X136830000Y-72060000D03*
D13*
%TO.P,R6,2*%
%TO.N,Net-(D2-Pad2)*%
X136830000Y-77140000D03*
%TD*%
D12*
%TO.P,R2,1*%
%TO.N,Net-(J6-Pad1)*%
X132385000Y-66345000D03*
D13*
%TO.P,R2,2*%
%TO.N,Net-(R2-Pad2)*%
X137465000Y-66345000D03*
%TD*%
D14*
%TO.P,J7,1,Pin_1*%
%TO.N,Net-(J7-Pad1)*%
X105010000Y-85195000D03*
D15*
%TO.P,J7,2,Pin_2*%
%TO.N,Net-(J7-Pad2)*%
X110010000Y-85195000D03*
%TO.P,J7,3,Pin_3*%
%TO.N,GND*%
X115010000Y-85195000D03*
%TD*%
D12*
%TO.P,R5,1*%
%TO.N,Net-(J6-Pad4)*%
X132435000Y-57455000D03*
D13*
%TO.P,R5,2*%
%TO.N,Net-(R5-Pad2)*%
X137515000Y-57455000D03*
%TD*%
D12*
%TO.P,R8,1*%
%TO.N,OUT1*%
X132970000Y-77140000D03*
D13*
%TO.P,R8,2*%
%TO.N,Net-(Q1-Pad1)*%
X127890000Y-77140000D03*
%TD*%
D12*
%TO.P,R4,1*%
%TO.N,Net-(J6-Pad3)*%
X132435000Y-60630000D03*
D13*
%TO.P,R4,2*%
%TO.N,Net-(R4-Pad2)*%
X137515000Y-60630000D03*
%TD*%
D16*
%TO.P,Q1,1,B*%
%TO.N,Net-(Q1-Pad1)*%
X124130000Y-83800000D03*
D17*
%TO.P,Q1,2,C*%
%TO.N,Net-(J7-Pad1)*%
X126670000Y-83800000D03*
%TO.P,Q1,3,E*%
%TO.N,GND*%
X129210000Y-83800000D03*
%TD*%
D12*
%TO.P,R7,1*%
%TO.N,OUT2*%
X140005000Y-69970000D03*
D13*
%TO.P,R7,2*%
%TO.N,Net-(D3-Pad2)*%
X140005000Y-75050000D03*
%TD*%
D16*
%TO.P,Q2,1,B*%
%TO.N,Net-(Q2-Pad1)*%
X124130000Y-91420000D03*
D17*
%TO.P,Q2,2,C*%
%TO.N,Net-(J7-Pad2)*%
X126670000Y-91420000D03*
%TO.P,Q2,3,E*%
%TO.N,GND*%
X129210000Y-91420000D03*
%TD*%
D12*
%TO.P,R3,1*%
%TO.N,Net-(J6-Pad2)*%
X132435000Y-63805000D03*
D13*
%TO.P,R3,2*%
%TO.N,Net-(R3-Pad2)*%
X137515000Y-63805000D03*
%TD*%
D18*
%TO.P,U1,1*%
%TO.N,Net-(R2-Pad2)*%
X143830000Y-63795000D03*
D19*
%TO.P,U1,2*%
%TO.N,GND*%
X146370000Y-63795000D03*
%TO.P,U1,3*%
%TO.N,Net-(R3-Pad2)*%
X148910000Y-63795000D03*
%TO.P,U1,4*%
%TO.N,GND*%
X151450000Y-63795000D03*
%TO.P,U1,5*%
%TO.N,Net-(R4-Pad2)*%
X153990000Y-63795000D03*
%TO.P,U1,6*%
%TO.N,GND*%
X156530000Y-63795000D03*
%TO.P,U1,7*%
%TO.N,Net-(R5-Pad2)*%
X159070000Y-63795000D03*
%TO.P,U1,8*%
%TO.N,GND*%
X161610000Y-63795000D03*
%TO.P,U1,9*%
%TO.N,IN4*%
X161610000Y-56175000D03*
%TO.P,U1,10*%
%TO.N,+5V*%
X159070000Y-56175000D03*
%TO.P,U1,11*%
%TO.N,IN3*%
X156530000Y-56175000D03*
%TO.P,U1,12*%
%TO.N,+5V*%
X153990000Y-56175000D03*
%TO.P,U1,13*%
%TO.N,IN2*%
X151450000Y-56175000D03*
%TO.P,U1,14*%
%TO.N,+5V*%
X148910000Y-56175000D03*
%TO.P,U1,15*%
%TO.N,IN1*%
X146370000Y-56175000D03*
%TO.P,U1,16*%
%TO.N,+5V*%
X143830000Y-56175000D03*
%TD*%
D20*
%TO.P,D1,1,K*%
%TO.N,GND*%
X103810000Y-51105000D03*
D21*
%TO.P,D1,2,A*%
%TO.N,Net-(D1-Pad2)*%
X103810000Y-48565000D03*
%TD*%
D14*
%TO.P,J5,1,Pin_1*%
%TO.N,+5V*%
X159055000Y-87300000D03*
D15*
%TO.P,J5,2,Pin_2*%
%TO.N,A0*%
X154055000Y-87300000D03*
%TO.P,J5,3,Pin_3*%
%TO.N,A1*%
X149055000Y-87300000D03*
%TO.P,J5,4,Pin_4*%
%TO.N,GND*%
X144055000Y-87300000D03*
%TD*%
D20*
%TO.P,D3,1,K*%
%TO.N,GND*%
X135410000Y-90475000D03*
D21*
%TO.P,D3,2,A*%
%TO.N,Net-(D3-Pad2)*%
X137950000Y-90475000D03*
%TD*%
D20*
%TO.P,D2,1,K*%
%TO.N,GND*%
X135555000Y-82855000D03*
D21*
%TO.P,D2,2,A*%
%TO.N,Net-(D2-Pad2)*%
X138095000Y-82855000D03*
%TD*%
D22*
%TO.N,OUT2*%
X133010000Y-71425000D02*
X134745000Y-73160000D01*
X137285635Y-73160000D02*
X140005000Y-70440635D01*
X134745000Y-73160000D02*
X137285635Y-73160000D01*
X140005000Y-70440635D02*
X140005000Y-69970000D01*
D23*
%TO.N,GND*%
X117115000Y-87300000D02*
X129210000Y-87300000D01*
X115010000Y-85195000D02*
X117115000Y-87300000D01*
X129210000Y-87300000D02*
X129210000Y-83800000D01*
X129210000Y-91420000D02*
X129210000Y-87300000D01*
D24*
%TO.N,Net-(J7-Pad1)*%
X107620000Y-82220000D02*
X116510000Y-82220000D01*
X126670000Y-85400000D02*
X126670000Y-83800000D01*
X126040000Y-86030000D02*
X126670000Y-85400000D01*
X107620000Y-82585000D02*
X107620000Y-82220000D01*
X120320000Y-86030000D02*
X126040000Y-86030000D01*
X116510000Y-82220000D02*
X120320000Y-86030000D01*
X105010000Y-85195000D02*
X107620000Y-82585000D01*
%TO.N,Net-(J7-Pad2)*%
X126670000Y-93020000D02*
X126670000Y-91420000D01*
X110010000Y-85195000D02*
X119735000Y-94920000D01*
X119735000Y-94920000D02*
X124770000Y-94920000D01*
X124770000Y-94920000D02*
X126670000Y-93020000D01*
%TD*%
%TA.AperFunction,Conductor*%
%TO.N,GND*%
G36*
X102424857Y-47430502D02*
G01*
X102471350Y-47484158D01*
X102481454Y-47554432D01*
X102464169Y-47602335D01*
X102334846Y-47813372D01*
X102332953Y-47817942D01*
X102332951Y-47817946D01*
X102241961Y-48037615D01*
X102235427Y-48053390D01*
X102231790Y-48068540D01*
X102175934Y-48301193D01*
X102175933Y-48301199D01*
X102174779Y-48306006D01*
X102154396Y-48565000D01*
X102174779Y-48823994D01*
X102175933Y-48828801D01*
X102175934Y-48828807D01*
X102192223Y-48896655D01*
X102235427Y-49076610D01*
X102237320Y-49081181D01*
X102237321Y-49081183D01*
X102310116Y-49256924D01*
X102334846Y-49316628D01*
X102470588Y-49538140D01*
X102555319Y-49637347D01*
X102571515Y-49656310D01*
X102600546Y-49721100D01*
X102589941Y-49791300D01*
X102559316Y-49829051D01*
X102560628Y-49830363D01*
X102541712Y-49849279D01*
X102465214Y-49951351D01*
X102456676Y-49966946D01*
X102411522Y-50087394D01*
X102407895Y-50102649D01*
X102402369Y-50153514D01*
X102402000Y-50160328D01*
X102402000Y-50832885D01*
X102406475Y-50848124D01*
X102407865Y-50849329D01*
X102415548Y-50851000D01*
X105199884Y-50851000D01*
X105215123Y-50846525D01*
X105216328Y-50845135D01*
X105217999Y-50837452D01*
X105217999Y-50160331D01*
X105217629Y-50153510D01*
X105212105Y-50102648D01*
X105208479Y-50087396D01*
X105163324Y-49966946D01*
X105154786Y-49951351D01*
X105078288Y-49849279D01*
X105059372Y-49830363D01*
X105061045Y-49828690D01*
X105026212Y-49782099D01*
X105021193Y-49711280D01*
X105048485Y-49656310D01*
X105064681Y-49637347D01*
X105149412Y-49538140D01*
X105285154Y-49316628D01*
X105309885Y-49256924D01*
X105382679Y-49081183D01*
X105382680Y-49081181D01*
X105384573Y-49076610D01*
X105427777Y-48896655D01*
X105444066Y-48828807D01*
X105444067Y-48828801D01*
X105445221Y-48823994D01*
X105465604Y-48565000D01*
X105445221Y-48306006D01*
X105444067Y-48301199D01*
X105444066Y-48301193D01*
X105388210Y-48068540D01*
X105384573Y-48053390D01*
X105378039Y-48037615D01*
X105287049Y-47817946D01*
X105287047Y-47817942D01*
X105285154Y-47813372D01*
X105155831Y-47602335D01*
X105137293Y-47533801D01*
X105158750Y-47466124D01*
X105213389Y-47420791D01*
X105263264Y-47410500D01*
X113404931Y-47410500D01*
X113473052Y-47430502D01*
X113519545Y-47484158D01*
X113529649Y-47554432D01*
X113499663Y-47619578D01*
X113373940Y-47762936D01*
X113373936Y-47762942D01*
X113371222Y-47766036D01*
X113368933Y-47769462D01*
X113368929Y-47769467D01*
X113269224Y-47918687D01*
X113200040Y-48022228D01*
X113198216Y-48025927D01*
X113198213Y-48025932D01*
X113177358Y-48068222D01*
X113063762Y-48298573D01*
X113062436Y-48302478D01*
X113062436Y-48302479D01*
X112971649Y-48569930D01*
X112964720Y-48590341D01*
X112963917Y-48594380D01*
X112963915Y-48594386D01*
X112908272Y-48874125D01*
X112904609Y-48892540D01*
X112904340Y-48896651D01*
X112904339Y-48896655D01*
X112895850Y-49026172D01*
X112884457Y-49200000D01*
X112884727Y-49204119D01*
X112901234Y-49455961D01*
X112904609Y-49507460D01*
X112905413Y-49511500D01*
X112905413Y-49511503D01*
X112947105Y-49721100D01*
X112964720Y-49809659D01*
X112966045Y-49813563D01*
X112966046Y-49813566D01*
X113047720Y-50054168D01*
X113063762Y-50101427D01*
X113117826Y-50211057D01*
X113196469Y-50370529D01*
X113200040Y-50377771D01*
X113371222Y-50633964D01*
X113373936Y-50637058D01*
X113373940Y-50637064D01*
X113571671Y-50862531D01*
X113574380Y-50865620D01*
X113577469Y-50868329D01*
X113802936Y-51066060D01*
X113802942Y-51066064D01*
X113806036Y-51068778D01*
X114062229Y-51239960D01*
X114065928Y-51241784D01*
X114065933Y-51241787D01*
X114207962Y-51311828D01*
X114338573Y-51376238D01*
X114342478Y-51377564D01*
X114342479Y-51377564D01*
X114626434Y-51473954D01*
X114626437Y-51473955D01*
X114630341Y-51475280D01*
X114634380Y-51476083D01*
X114634386Y-51476085D01*
X114928497Y-51534587D01*
X114928500Y-51534587D01*
X114932540Y-51535391D01*
X114936651Y-51535660D01*
X114936655Y-51535661D01*
X115161010Y-51550366D01*
X115161019Y-51550366D01*
X115163059Y-51550500D01*
X115316941Y-51550500D01*
X115318981Y-51550366D01*
X115318990Y-51550366D01*
X115543345Y-51535661D01*
X115543349Y-51535660D01*
X115547460Y-51535391D01*
X115551500Y-51534587D01*
X115551503Y-51534587D01*
X115845614Y-51476085D01*
X115845620Y-51476083D01*
X115849659Y-51475280D01*
X115853563Y-51473955D01*
X115853566Y-51473954D01*
X116137521Y-51377564D01*
X116137522Y-51377564D01*
X116141427Y-51376238D01*
X116272038Y-51311828D01*
X116414067Y-51241787D01*
X116414072Y-51241784D01*
X116417771Y-51239960D01*
X116673964Y-51068778D01*
X116677058Y-51066064D01*
X116677064Y-51066060D01*
X116902531Y-50868329D01*
X116905620Y-50865620D01*
X116908329Y-50862531D01*
X117106060Y-50637064D01*
X117106064Y-50637058D01*
X117108778Y-50633964D01*
X117167552Y-50546002D01*
X117222027Y-50500476D01*
X117292470Y-50491627D01*
X117361334Y-50526832D01*
X117477689Y-50642984D01*
X117626666Y-50734814D01*
X117633614Y-50737119D01*
X117633615Y-50737119D01*
X117786241Y-50787744D01*
X117786243Y-50787745D01*
X117792772Y-50789910D01*
X117896134Y-50800500D01*
X119695866Y-50800500D01*
X119699112Y-50800163D01*
X119699116Y-50800163D01*
X119793661Y-50790353D01*
X119793665Y-50790352D01*
X119800519Y-50789641D01*
X119807055Y-50787460D01*
X119807057Y-50787460D01*
X119959581Y-50736574D01*
X119966529Y-50734256D01*
X120115345Y-50642166D01*
X120224961Y-50532359D01*
X120238984Y-50518311D01*
X120241360Y-50520683D01*
X120287081Y-50488189D01*
X120358000Y-50484875D01*
X120394018Y-50499864D01*
X120602911Y-50627875D01*
X120602921Y-50627880D01*
X120607141Y-50630466D01*
X120611711Y-50632359D01*
X120611715Y-50632361D01*
X120835316Y-50724979D01*
X120839889Y-50726873D01*
X120924289Y-50747135D01*
X121080039Y-50784528D01*
X121080045Y-50784529D01*
X121084852Y-50785683D01*
X121336000Y-50805449D01*
X121587148Y-50785683D01*
X121591955Y-50784529D01*
X121591961Y-50784528D01*
X121747711Y-50747135D01*
X121832111Y-50726873D01*
X121836684Y-50724979D01*
X122060285Y-50632361D01*
X122060289Y-50632359D01*
X122064859Y-50630466D01*
X122279659Y-50498836D01*
X122283419Y-50495624D01*
X122283424Y-50495621D01*
X122467457Y-50338442D01*
X122467462Y-50338437D01*
X122471224Y-50335224D01*
X122510189Y-50289602D01*
X122569640Y-50250793D01*
X122640634Y-50250287D01*
X122701811Y-50289602D01*
X122740776Y-50335224D01*
X122744538Y-50338437D01*
X122744543Y-50338442D01*
X122928576Y-50495621D01*
X122928581Y-50495624D01*
X122932341Y-50498836D01*
X123147141Y-50630466D01*
X123151711Y-50632359D01*
X123151715Y-50632361D01*
X123375316Y-50724979D01*
X123379889Y-50726873D01*
X123464289Y-50747135D01*
X123620039Y-50784528D01*
X123620045Y-50784529D01*
X123624852Y-50785683D01*
X123876000Y-50805449D01*
X124127148Y-50785683D01*
X124131955Y-50784529D01*
X124131961Y-50784528D01*
X124287711Y-50747135D01*
X124372111Y-50726873D01*
X124376684Y-50724979D01*
X124600285Y-50632361D01*
X124600289Y-50632359D01*
X124604859Y-50630466D01*
X124819659Y-50498836D01*
X124823419Y-50495624D01*
X124823424Y-50495621D01*
X125007462Y-50338437D01*
X125011224Y-50335224D01*
X125083767Y-50250287D01*
X125171621Y-50147424D01*
X125171624Y-50147419D01*
X125174836Y-50143659D01*
X125193375Y-50113406D01*
X125246023Y-50065775D01*
X125316064Y-50054168D01*
X125381262Y-50082271D01*
X125396046Y-50096744D01*
X125459219Y-50169674D01*
X125466580Y-50176883D01*
X125630434Y-50312916D01*
X125638881Y-50318831D01*
X125822756Y-50426279D01*
X125832042Y-50430729D01*
X126031001Y-50506703D01*
X126040899Y-50509579D01*
X126144250Y-50530606D01*
X126158299Y-50529410D01*
X126162000Y-50519065D01*
X126162000Y-47883102D01*
X126158082Y-47869758D01*
X126143806Y-47867771D01*
X126105324Y-47873660D01*
X126095288Y-47876051D01*
X125892868Y-47942212D01*
X125883359Y-47946209D01*
X125694463Y-48044542D01*
X125685738Y-48050036D01*
X125515433Y-48177905D01*
X125507726Y-48184748D01*
X125391208Y-48306677D01*
X125329684Y-48342107D01*
X125258771Y-48338650D01*
X125200985Y-48297404D01*
X125192682Y-48285461D01*
X125177427Y-48260567D01*
X125177419Y-48260556D01*
X125174836Y-48256341D01*
X125171625Y-48252581D01*
X125171621Y-48252576D01*
X125014437Y-48068538D01*
X125011224Y-48064776D01*
X124872400Y-47946209D01*
X124823424Y-47904379D01*
X124823419Y-47904376D01*
X124819659Y-47901164D01*
X124604859Y-47769534D01*
X124600289Y-47767641D01*
X124600285Y-47767639D01*
X124376684Y-47675021D01*
X124376682Y-47675020D01*
X124372111Y-47673127D01*
X124313347Y-47659019D01*
X124251778Y-47623667D01*
X124219095Y-47560640D01*
X124225676Y-47489949D01*
X124269430Y-47434038D01*
X124342761Y-47410500D01*
X128489239Y-47410500D01*
X128557360Y-47430502D01*
X128603853Y-47484158D01*
X128613957Y-47554432D01*
X128584463Y-47619012D01*
X128518653Y-47659019D01*
X128459889Y-47673127D01*
X128455318Y-47675020D01*
X128455316Y-47675021D01*
X128231715Y-47767639D01*
X128231711Y-47767641D01*
X128227141Y-47769534D01*
X128012341Y-47901164D01*
X128008581Y-47904376D01*
X128008576Y-47904379D01*
X127959600Y-47946209D01*
X127820776Y-48064776D01*
X127817563Y-48068538D01*
X127660379Y-48252576D01*
X127660376Y-48252581D01*
X127657164Y-48256341D01*
X127654580Y-48260558D01*
X127638734Y-48286416D01*
X127586086Y-48334047D01*
X127516045Y-48345654D01*
X127450847Y-48317551D01*
X127438108Y-48305381D01*
X127348806Y-48207240D01*
X127341273Y-48200215D01*
X127174139Y-48068222D01*
X127165552Y-48062517D01*
X126979117Y-47959599D01*
X126969705Y-47955369D01*
X126768959Y-47884280D01*
X126758988Y-47881646D01*
X126687837Y-47868972D01*
X126674540Y-47870432D01*
X126670000Y-47884989D01*
X126670000Y-50518517D01*
X126674064Y-50532359D01*
X126687478Y-50534393D01*
X126694184Y-50533534D01*
X126704262Y-50531392D01*
X126908255Y-50470191D01*
X126917842Y-50466433D01*
X127109095Y-50372739D01*
X127117945Y-50367464D01*
X127291328Y-50243792D01*
X127299200Y-50237139D01*
X127443999Y-50092843D01*
X127506370Y-50058926D01*
X127577177Y-50064114D01*
X127633938Y-50106760D01*
X127640371Y-50116256D01*
X127654580Y-50139442D01*
X127657164Y-50143659D01*
X127660375Y-50147419D01*
X127660379Y-50147424D01*
X127748233Y-50250287D01*
X127820776Y-50335224D01*
X127824538Y-50338437D01*
X128008576Y-50495621D01*
X128008581Y-50495624D01*
X128012341Y-50498836D01*
X128227141Y-50630466D01*
X128231711Y-50632359D01*
X128231715Y-50632361D01*
X128455316Y-50724979D01*
X128459889Y-50726873D01*
X128544289Y-50747135D01*
X128700039Y-50784528D01*
X128700045Y-50784529D01*
X128704852Y-50785683D01*
X128956000Y-50805449D01*
X129207148Y-50785683D01*
X129211955Y-50784529D01*
X129211961Y-50784528D01*
X129367711Y-50747135D01*
X129452111Y-50726873D01*
X129456684Y-50724979D01*
X129680285Y-50632361D01*
X129680289Y-50632359D01*
X129684859Y-50630466D01*
X129899659Y-50498836D01*
X129903419Y-50495624D01*
X129903424Y-50495621D01*
X130087457Y-50338442D01*
X130087462Y-50338437D01*
X130091224Y-50335224D01*
X130130189Y-50289602D01*
X130189640Y-50250793D01*
X130260634Y-50250287D01*
X130321811Y-50289602D01*
X130360776Y-50335224D01*
X130364538Y-50338437D01*
X130364543Y-50338442D01*
X130548576Y-50495621D01*
X130548581Y-50495624D01*
X130552341Y-50498836D01*
X130767141Y-50630466D01*
X130771711Y-50632359D01*
X130771715Y-50632361D01*
X130995316Y-50724979D01*
X130999889Y-50726873D01*
X131084289Y-50747135D01*
X131240039Y-50784528D01*
X131240045Y-50784529D01*
X131244852Y-50785683D01*
X131496000Y-50805449D01*
X131747148Y-50785683D01*
X131751955Y-50784529D01*
X131751961Y-50784528D01*
X131907711Y-50747135D01*
X131992111Y-50726873D01*
X131996684Y-50724979D01*
X132220285Y-50632361D01*
X132220289Y-50632359D01*
X132224859Y-50630466D01*
X132439659Y-50498836D01*
X132443419Y-50495624D01*
X132443424Y-50495621D01*
X132627457Y-50338442D01*
X132627462Y-50338437D01*
X132631224Y-50335224D01*
X132670189Y-50289602D01*
X132729640Y-50250793D01*
X132800634Y-50250287D01*
X132861811Y-50289602D01*
X132900776Y-50335224D01*
X132904538Y-50338437D01*
X132904543Y-50338442D01*
X133088576Y-50495621D01*
X133088581Y-50495624D01*
X133092341Y-50498836D01*
X133307141Y-50630466D01*
X133311711Y-50632359D01*
X133311715Y-50632361D01*
X133535316Y-50724979D01*
X133539889Y-50726873D01*
X133624289Y-50747135D01*
X133780039Y-50784528D01*
X133780045Y-50784529D01*
X133784852Y-50785683D01*
X134036000Y-50805449D01*
X134287148Y-50785683D01*
X134291955Y-50784529D01*
X134291961Y-50784528D01*
X134447711Y-50747135D01*
X134532111Y-50726873D01*
X134536684Y-50724979D01*
X134760285Y-50632361D01*
X134760289Y-50632359D01*
X134764859Y-50630466D01*
X134979659Y-50498836D01*
X134983419Y-50495624D01*
X134983424Y-50495621D01*
X135167457Y-50338442D01*
X135167462Y-50338437D01*
X135171224Y-50335224D01*
X135210189Y-50289602D01*
X135269640Y-50250793D01*
X135340634Y-50250287D01*
X135401811Y-50289602D01*
X135440776Y-50335224D01*
X135444538Y-50338437D01*
X135444543Y-50338442D01*
X135628576Y-50495621D01*
X135628581Y-50495624D01*
X135632341Y-50498836D01*
X135847141Y-50630466D01*
X135851711Y-50632359D01*
X135851715Y-50632361D01*
X136075316Y-50724979D01*
X136079889Y-50726873D01*
X136164289Y-50747135D01*
X136320039Y-50784528D01*
X136320045Y-50784529D01*
X136324852Y-50785683D01*
X136576000Y-50805449D01*
X136827148Y-50785683D01*
X136831955Y-50784529D01*
X136831961Y-50784528D01*
X136987711Y-50747135D01*
X137072111Y-50726873D01*
X137076684Y-50724979D01*
X137300285Y-50632361D01*
X137300289Y-50632359D01*
X137304859Y-50630466D01*
X137519659Y-50498836D01*
X137523419Y-50495624D01*
X137523424Y-50495621D01*
X137707457Y-50338442D01*
X137707462Y-50338437D01*
X137711224Y-50335224D01*
X137750189Y-50289602D01*
X137809640Y-50250793D01*
X137880634Y-50250287D01*
X137941811Y-50289602D01*
X137980776Y-50335224D01*
X137984538Y-50338437D01*
X137984543Y-50338442D01*
X138168576Y-50495621D01*
X138168581Y-50495624D01*
X138172341Y-50498836D01*
X138387141Y-50630466D01*
X138391711Y-50632359D01*
X138391715Y-50632361D01*
X138615316Y-50724979D01*
X138619889Y-50726873D01*
X138704289Y-50747135D01*
X138860039Y-50784528D01*
X138860045Y-50784529D01*
X138864852Y-50785683D01*
X139116000Y-50805449D01*
X139367148Y-50785683D01*
X139371955Y-50784529D01*
X139371961Y-50784528D01*
X139527711Y-50747135D01*
X139612111Y-50726873D01*
X139616684Y-50724979D01*
X139840285Y-50632361D01*
X139840289Y-50632359D01*
X139844859Y-50630466D01*
X140059659Y-50498836D01*
X140063419Y-50495624D01*
X140063424Y-50495621D01*
X140247457Y-50338442D01*
X140247462Y-50338437D01*
X140251224Y-50335224D01*
X140290189Y-50289602D01*
X140349640Y-50250793D01*
X140420634Y-50250287D01*
X140481811Y-50289602D01*
X140520776Y-50335224D01*
X140524538Y-50338437D01*
X140524543Y-50338442D01*
X140708576Y-50495621D01*
X140708581Y-50495624D01*
X140712341Y-50498836D01*
X140927141Y-50630466D01*
X140931711Y-50632359D01*
X140931715Y-50632361D01*
X141155316Y-50724979D01*
X141159889Y-50726873D01*
X141244289Y-50747135D01*
X141400039Y-50784528D01*
X141400045Y-50784529D01*
X141404852Y-50785683D01*
X141656000Y-50805449D01*
X141907148Y-50785683D01*
X141911955Y-50784529D01*
X141911961Y-50784528D01*
X142067711Y-50747135D01*
X142152111Y-50726873D01*
X142156684Y-50724979D01*
X142380285Y-50632361D01*
X142380289Y-50632359D01*
X142384859Y-50630466D01*
X142599659Y-50498836D01*
X142603419Y-50495624D01*
X142603424Y-50495621D01*
X142787462Y-50338437D01*
X142791224Y-50335224D01*
X142863767Y-50250287D01*
X142951621Y-50147424D01*
X142951624Y-50147419D01*
X142954836Y-50143659D01*
X143086466Y-49928859D01*
X143096593Y-49904412D01*
X143180979Y-49700684D01*
X143180980Y-49700682D01*
X143182873Y-49696111D01*
X143241683Y-49451148D01*
X143261449Y-49200000D01*
X143241683Y-48948852D01*
X143220753Y-48861669D01*
X143184028Y-48708701D01*
X143182873Y-48703889D01*
X143125344Y-48565000D01*
X143088361Y-48475715D01*
X143088359Y-48475711D01*
X143086466Y-48471141D01*
X142954836Y-48256341D01*
X142951624Y-48252581D01*
X142951621Y-48252576D01*
X142794437Y-48068538D01*
X142791224Y-48064776D01*
X142652400Y-47946209D01*
X142603424Y-47904379D01*
X142603419Y-47904376D01*
X142599659Y-47901164D01*
X142384859Y-47769534D01*
X142380289Y-47767641D01*
X142380285Y-47767639D01*
X142156684Y-47675021D01*
X142156682Y-47675020D01*
X142152111Y-47673127D01*
X142093347Y-47659019D01*
X142031778Y-47623667D01*
X141999095Y-47560640D01*
X142005676Y-47489949D01*
X142049430Y-47434038D01*
X142122761Y-47410500D01*
X144538730Y-47410500D01*
X144606851Y-47430502D01*
X144653344Y-47484158D01*
X144663448Y-47554432D01*
X144633954Y-47619012D01*
X144578605Y-47656024D01*
X144556421Y-47663425D01*
X144556419Y-47663426D01*
X144549471Y-47665744D01*
X144400655Y-47757834D01*
X144277016Y-47881689D01*
X144273176Y-47887919D01*
X144273175Y-47887920D01*
X144264372Y-47902201D01*
X144185186Y-48030666D01*
X144182881Y-48037614D01*
X144182881Y-48037615D01*
X144158740Y-48110398D01*
X144130090Y-48196772D01*
X144119500Y-48300134D01*
X144119500Y-50099866D01*
X144119837Y-50103112D01*
X144119837Y-50103116D01*
X144125774Y-50160328D01*
X144130359Y-50204519D01*
X144185744Y-50370529D01*
X144277834Y-50519345D01*
X144401689Y-50642984D01*
X144550666Y-50734814D01*
X144557614Y-50737119D01*
X144557615Y-50737119D01*
X144710241Y-50787744D01*
X144710243Y-50787745D01*
X144716772Y-50789910D01*
X144820134Y-50800500D01*
X146619866Y-50800500D01*
X146623112Y-50800163D01*
X146623116Y-50800163D01*
X146717661Y-50790353D01*
X146717665Y-50790352D01*
X146724519Y-50789641D01*
X146731055Y-50787460D01*
X146731057Y-50787460D01*
X146883581Y-50736574D01*
X146890529Y-50734256D01*
X147039345Y-50642166D01*
X147148961Y-50532359D01*
X147162984Y-50518311D01*
X147165360Y-50520683D01*
X147211081Y-50488189D01*
X147282000Y-50484875D01*
X147318018Y-50499864D01*
X147526911Y-50627875D01*
X147526921Y-50627880D01*
X147531141Y-50630466D01*
X147535711Y-50632359D01*
X147535715Y-50632361D01*
X147759316Y-50724979D01*
X147763889Y-50726873D01*
X147848289Y-50747135D01*
X148004039Y-50784528D01*
X148004045Y-50784529D01*
X148008852Y-50785683D01*
X148260000Y-50805449D01*
X148511148Y-50785683D01*
X148515955Y-50784529D01*
X148515961Y-50784528D01*
X148671711Y-50747135D01*
X148756111Y-50726873D01*
X148760684Y-50724979D01*
X148984285Y-50632361D01*
X148984289Y-50632359D01*
X148988859Y-50630466D01*
X149203659Y-50498836D01*
X149207419Y-50495624D01*
X149207424Y-50495621D01*
X149391457Y-50338442D01*
X149391462Y-50338437D01*
X149395224Y-50335224D01*
X149434189Y-50289602D01*
X149493640Y-50250793D01*
X149564634Y-50250287D01*
X149625811Y-50289602D01*
X149664776Y-50335224D01*
X149668538Y-50338437D01*
X149668543Y-50338442D01*
X149852576Y-50495621D01*
X149852581Y-50495624D01*
X149856341Y-50498836D01*
X150071141Y-50630466D01*
X150075711Y-50632359D01*
X150075715Y-50632361D01*
X150299316Y-50724979D01*
X150303889Y-50726873D01*
X150388289Y-50747135D01*
X150544039Y-50784528D01*
X150544045Y-50784529D01*
X150548852Y-50785683D01*
X150800000Y-50805449D01*
X151051148Y-50785683D01*
X151055955Y-50784529D01*
X151055961Y-50784528D01*
X151211711Y-50747135D01*
X151296111Y-50726873D01*
X151300684Y-50724979D01*
X151524285Y-50632361D01*
X151524289Y-50632359D01*
X151528859Y-50630466D01*
X151743659Y-50498836D01*
X151747419Y-50495624D01*
X151747424Y-50495621D01*
X151931457Y-50338442D01*
X151931462Y-50338437D01*
X151935224Y-50335224D01*
X151974189Y-50289602D01*
X152033640Y-50250793D01*
X152104634Y-50250287D01*
X152165811Y-50289602D01*
X152204776Y-50335224D01*
X152208538Y-50338437D01*
X152208543Y-50338442D01*
X152392576Y-50495621D01*
X152392581Y-50495624D01*
X152396341Y-50498836D01*
X152611141Y-50630466D01*
X152615711Y-50632359D01*
X152615715Y-50632361D01*
X152839316Y-50724979D01*
X152843889Y-50726873D01*
X152928289Y-50747135D01*
X153084039Y-50784528D01*
X153084045Y-50784529D01*
X153088852Y-50785683D01*
X153340000Y-50805449D01*
X153591148Y-50785683D01*
X153595955Y-50784529D01*
X153595961Y-50784528D01*
X153751711Y-50747135D01*
X153836111Y-50726873D01*
X153840684Y-50724979D01*
X154064285Y-50632361D01*
X154064289Y-50632359D01*
X154068859Y-50630466D01*
X154283659Y-50498836D01*
X154287419Y-50495624D01*
X154287424Y-50495621D01*
X154471457Y-50338442D01*
X154471462Y-50338437D01*
X154475224Y-50335224D01*
X154514189Y-50289602D01*
X154573640Y-50250793D01*
X154644634Y-50250287D01*
X154705811Y-50289602D01*
X154744776Y-50335224D01*
X154748538Y-50338437D01*
X154748543Y-50338442D01*
X154932576Y-50495621D01*
X154932581Y-50495624D01*
X154936341Y-50498836D01*
X155151141Y-50630466D01*
X155155711Y-50632359D01*
X155155715Y-50632361D01*
X155379316Y-50724979D01*
X155383889Y-50726873D01*
X155468289Y-50747135D01*
X155624039Y-50784528D01*
X155624045Y-50784529D01*
X155628852Y-50785683D01*
X155880000Y-50805449D01*
X156131148Y-50785683D01*
X156135955Y-50784529D01*
X156135961Y-50784528D01*
X156291711Y-50747135D01*
X156376111Y-50726873D01*
X156380684Y-50724979D01*
X156604285Y-50632361D01*
X156604289Y-50632359D01*
X156608859Y-50630466D01*
X156823659Y-50498836D01*
X156827419Y-50495624D01*
X156827424Y-50495621D01*
X157011457Y-50338442D01*
X157011462Y-50338437D01*
X157015224Y-50335224D01*
X157054189Y-50289602D01*
X157113640Y-50250793D01*
X157184634Y-50250287D01*
X157245811Y-50289602D01*
X157284776Y-50335224D01*
X157288538Y-50338437D01*
X157288543Y-50338442D01*
X157472576Y-50495621D01*
X157472581Y-50495624D01*
X157476341Y-50498836D01*
X157691141Y-50630466D01*
X157695711Y-50632359D01*
X157695715Y-50632361D01*
X157919316Y-50724979D01*
X157923889Y-50726873D01*
X158008289Y-50747135D01*
X158164039Y-50784528D01*
X158164045Y-50784529D01*
X158168852Y-50785683D01*
X158420000Y-50805449D01*
X158671148Y-50785683D01*
X158675955Y-50784529D01*
X158675961Y-50784528D01*
X158831711Y-50747135D01*
X158916111Y-50726873D01*
X158920684Y-50724979D01*
X159144285Y-50632361D01*
X159144289Y-50632359D01*
X159148859Y-50630466D01*
X159363659Y-50498836D01*
X159367419Y-50495624D01*
X159367424Y-50495621D01*
X159551457Y-50338442D01*
X159551462Y-50338437D01*
X159555224Y-50335224D01*
X159594189Y-50289602D01*
X159653640Y-50250793D01*
X159724634Y-50250287D01*
X159785811Y-50289602D01*
X159824776Y-50335224D01*
X159828538Y-50338437D01*
X159828543Y-50338442D01*
X160012576Y-50495621D01*
X160012581Y-50495624D01*
X160016341Y-50498836D01*
X160231141Y-50630466D01*
X160235711Y-50632359D01*
X160235715Y-50632361D01*
X160459316Y-50724979D01*
X160463889Y-50726873D01*
X160548289Y-50747135D01*
X160704039Y-50784528D01*
X160704045Y-50784529D01*
X160708852Y-50785683D01*
X160960000Y-50805449D01*
X161211148Y-50785683D01*
X161215955Y-50784529D01*
X161215961Y-50784528D01*
X161371711Y-50747135D01*
X161456111Y-50726873D01*
X161460684Y-50724979D01*
X161684285Y-50632361D01*
X161684289Y-50632359D01*
X161688859Y-50630466D01*
X161903659Y-50498836D01*
X161907419Y-50495624D01*
X161907424Y-50495621D01*
X162091457Y-50338442D01*
X162091462Y-50338437D01*
X162095224Y-50335224D01*
X162134189Y-50289602D01*
X162193640Y-50250793D01*
X162264634Y-50250287D01*
X162325811Y-50289602D01*
X162364776Y-50335224D01*
X162368538Y-50338437D01*
X162368543Y-50338442D01*
X162552576Y-50495621D01*
X162552581Y-50495624D01*
X162556341Y-50498836D01*
X162771141Y-50630466D01*
X162775711Y-50632359D01*
X162775715Y-50632361D01*
X162999316Y-50724979D01*
X163003889Y-50726873D01*
X163088289Y-50747135D01*
X163244039Y-50784528D01*
X163244045Y-50784529D01*
X163248852Y-50785683D01*
X163500000Y-50805449D01*
X163751148Y-50785683D01*
X163755955Y-50784529D01*
X163755961Y-50784528D01*
X163911711Y-50747135D01*
X163996111Y-50726873D01*
X164000684Y-50724979D01*
X164224285Y-50632361D01*
X164224289Y-50632359D01*
X164228859Y-50630466D01*
X164443659Y-50498836D01*
X164447419Y-50495624D01*
X164447424Y-50495621D01*
X164631462Y-50338437D01*
X164635224Y-50335224D01*
X164707767Y-50250287D01*
X164795621Y-50147424D01*
X164795624Y-50147419D01*
X164798836Y-50143659D01*
X164930466Y-49928859D01*
X164940593Y-49904412D01*
X165024979Y-49700684D01*
X165024980Y-49700682D01*
X165026873Y-49696111D01*
X165040981Y-49637347D01*
X165076333Y-49575778D01*
X165139360Y-49543095D01*
X165210051Y-49549676D01*
X165265962Y-49593430D01*
X165289500Y-49666761D01*
X165289500Y-59293546D01*
X165288067Y-59312496D01*
X165284852Y-59333630D01*
X165285445Y-59340922D01*
X165285445Y-59340925D01*
X165289085Y-59385675D01*
X165289500Y-59395889D01*
X165289500Y-59403822D01*
X165289925Y-59407466D01*
X165292754Y-59431736D01*
X165293187Y-59436111D01*
X165299039Y-59508059D01*
X165301294Y-59515021D01*
X165302452Y-59520816D01*
X165303809Y-59526558D01*
X165304657Y-59533828D01*
X165329306Y-59601736D01*
X165330723Y-59605864D01*
X165352973Y-59674546D01*
X165356768Y-59680800D01*
X165359231Y-59686179D01*
X165361873Y-59691455D01*
X165364369Y-59698331D01*
X165403948Y-59758699D01*
X165406295Y-59762419D01*
X165440848Y-59819361D01*
X165440853Y-59819368D01*
X165443761Y-59824160D01*
X165447473Y-59828362D01*
X165447474Y-59828364D01*
X165451085Y-59832452D01*
X165451060Y-59832474D01*
X165453806Y-59835569D01*
X165456309Y-59838563D01*
X165460323Y-59844685D01*
X165465636Y-59849718D01*
X165515952Y-59897383D01*
X165518394Y-59899761D01*
X167792595Y-62173962D01*
X167826621Y-62236274D01*
X167829500Y-62263057D01*
X167829500Y-90544931D01*
X167809498Y-90613052D01*
X167755842Y-90659545D01*
X167685568Y-90669649D01*
X167620422Y-90639663D01*
X167477064Y-90513940D01*
X167477058Y-90513936D01*
X167473964Y-90511222D01*
X167217771Y-90340040D01*
X167214072Y-90338216D01*
X167214067Y-90338213D01*
X166976260Y-90220940D01*
X166941427Y-90203762D01*
X166937521Y-90202436D01*
X166653566Y-90106046D01*
X166653563Y-90106045D01*
X166649659Y-90104720D01*
X166645620Y-90103917D01*
X166645614Y-90103915D01*
X166351503Y-90045413D01*
X166351500Y-90045413D01*
X166347460Y-90044609D01*
X166343349Y-90044340D01*
X166343345Y-90044339D01*
X166118990Y-90029634D01*
X166118981Y-90029634D01*
X166116941Y-90029500D01*
X165963059Y-90029500D01*
X165961019Y-90029634D01*
X165961010Y-90029634D01*
X165736655Y-90044339D01*
X165736651Y-90044340D01*
X165732540Y-90044609D01*
X165728500Y-90045413D01*
X165728497Y-90045413D01*
X165434386Y-90103915D01*
X165434380Y-90103917D01*
X165430341Y-90104720D01*
X165426437Y-90106045D01*
X165426434Y-90106046D01*
X165142479Y-90202436D01*
X165138573Y-90203762D01*
X165103740Y-90220940D01*
X164865933Y-90338213D01*
X164865928Y-90338216D01*
X164862229Y-90340040D01*
X164606036Y-90511222D01*
X164602942Y-90513936D01*
X164602936Y-90513940D01*
X164418559Y-90675636D01*
X164374380Y-90714380D01*
X164371671Y-90717469D01*
X164173940Y-90942936D01*
X164173936Y-90942942D01*
X164171222Y-90946036D01*
X164168933Y-90949462D01*
X164168929Y-90949467D01*
X164058895Y-91114145D01*
X164000040Y-91202228D01*
X163863762Y-91478573D01*
X163862436Y-91482478D01*
X163862436Y-91482479D01*
X163791581Y-91691212D01*
X163764720Y-91770341D01*
X163763917Y-91774380D01*
X163763915Y-91774386D01*
X163705413Y-92068497D01*
X163704609Y-92072540D01*
X163704340Y-92076651D01*
X163704339Y-92076655D01*
X163700803Y-92130604D01*
X163684457Y-92380000D01*
X163684727Y-92384119D01*
X163693798Y-92522509D01*
X163704609Y-92687460D01*
X163705413Y-92691500D01*
X163705413Y-92691503D01*
X163743528Y-92883117D01*
X163764720Y-92989659D01*
X163766045Y-92993563D01*
X163766046Y-92993566D01*
X163849306Y-93238842D01*
X163863762Y-93281427D01*
X164000040Y-93557771D01*
X164171222Y-93813964D01*
X164173936Y-93817058D01*
X164173940Y-93817064D01*
X164217401Y-93866621D01*
X164374380Y-94045620D01*
X164377469Y-94048329D01*
X164602936Y-94246060D01*
X164602942Y-94246064D01*
X164606036Y-94248778D01*
X164862229Y-94419960D01*
X164865928Y-94421784D01*
X164865933Y-94421787D01*
X165007962Y-94491828D01*
X165138573Y-94556238D01*
X165142478Y-94557564D01*
X165142479Y-94557564D01*
X165426434Y-94653954D01*
X165426437Y-94653955D01*
X165430341Y-94655280D01*
X165434380Y-94656083D01*
X165434386Y-94656085D01*
X165728497Y-94714587D01*
X165728500Y-94714587D01*
X165732540Y-94715391D01*
X165736651Y-94715660D01*
X165736655Y-94715661D01*
X165961010Y-94730366D01*
X165961019Y-94730366D01*
X165963059Y-94730500D01*
X166116941Y-94730500D01*
X166118981Y-94730366D01*
X166118990Y-94730366D01*
X166343345Y-94715661D01*
X166343349Y-94715660D01*
X166347460Y-94715391D01*
X166351500Y-94714587D01*
X166351503Y-94714587D01*
X166645614Y-94656085D01*
X166645620Y-94656083D01*
X166649659Y-94655280D01*
X166653563Y-94653955D01*
X166653566Y-94653954D01*
X166937521Y-94557564D01*
X166937522Y-94557564D01*
X166941427Y-94556238D01*
X167072038Y-94491828D01*
X167214067Y-94421787D01*
X167214072Y-94421784D01*
X167217771Y-94419960D01*
X167473964Y-94248778D01*
X167477058Y-94246064D01*
X167477064Y-94246060D01*
X167620422Y-94120337D01*
X167684826Y-94090460D01*
X167755159Y-94100146D01*
X167809091Y-94146318D01*
X167829500Y-94215069D01*
X167829500Y-95826943D01*
X167809498Y-95895064D01*
X167792595Y-95916038D01*
X165556311Y-98152322D01*
X165541898Y-98164709D01*
X165530575Y-98173041D01*
X165530571Y-98173045D01*
X165524676Y-98177383D01*
X165490849Y-98217200D01*
X165483929Y-98224704D01*
X165478330Y-98230303D01*
X165460886Y-98252351D01*
X165458117Y-98255727D01*
X165416108Y-98305175D01*
X165416106Y-98305178D01*
X165411368Y-98310755D01*
X165408040Y-98317274D01*
X165404765Y-98322184D01*
X165401664Y-98327204D01*
X165397119Y-98332949D01*
X165394017Y-98339587D01*
X165394016Y-98339588D01*
X165366556Y-98398343D01*
X165364628Y-98402289D01*
X165331781Y-98466616D01*
X165330042Y-98473725D01*
X165327983Y-98479260D01*
X165326117Y-98484868D01*
X165323021Y-98491493D01*
X165321532Y-98498653D01*
X165321531Y-98498655D01*
X165308315Y-98562193D01*
X165307344Y-98566482D01*
X165290185Y-98636606D01*
X165289500Y-98647648D01*
X165289468Y-98647646D01*
X165289221Y-98651776D01*
X165288875Y-98655656D01*
X165287382Y-98662831D01*
X165287580Y-98670152D01*
X165287580Y-98670153D01*
X165289454Y-98739400D01*
X165289500Y-98742808D01*
X165289500Y-99123500D01*
X165269498Y-99191621D01*
X165215842Y-99238114D01*
X165163500Y-99249500D01*
X163966761Y-99249500D01*
X163898640Y-99229498D01*
X163852147Y-99175842D01*
X163842043Y-99105568D01*
X163871537Y-99040988D01*
X163937347Y-99000981D01*
X163979037Y-98990972D01*
X163996111Y-98986873D01*
X164000684Y-98984979D01*
X164224285Y-98892361D01*
X164224289Y-98892359D01*
X164228859Y-98890466D01*
X164443659Y-98758836D01*
X164447419Y-98755624D01*
X164447424Y-98755621D01*
X164631462Y-98598437D01*
X164635224Y-98595224D01*
X164707767Y-98510287D01*
X164795621Y-98407424D01*
X164795624Y-98407419D01*
X164798836Y-98403659D01*
X164930466Y-98188859D01*
X164935220Y-98177383D01*
X165024979Y-97960684D01*
X165024980Y-97960682D01*
X165026873Y-97956111D01*
X165073152Y-97763345D01*
X165084528Y-97715961D01*
X165084529Y-97715955D01*
X165085683Y-97711148D01*
X165105449Y-97460000D01*
X165085683Y-97208852D01*
X165083591Y-97200135D01*
X165028028Y-96968701D01*
X165026873Y-96963889D01*
X164964661Y-96813695D01*
X164932361Y-96735715D01*
X164932359Y-96735711D01*
X164930466Y-96731141D01*
X164798836Y-96516341D01*
X164795624Y-96512581D01*
X164795621Y-96512576D01*
X164638437Y-96328538D01*
X164635224Y-96324776D01*
X164581387Y-96278795D01*
X164447424Y-96164379D01*
X164447419Y-96164376D01*
X164443659Y-96161164D01*
X164228859Y-96029534D01*
X164224289Y-96027641D01*
X164224285Y-96027639D01*
X164000684Y-95935021D01*
X164000682Y-95935020D01*
X163996111Y-95933127D01*
X163911711Y-95912865D01*
X163755961Y-95875472D01*
X163755955Y-95875471D01*
X163751148Y-95874317D01*
X163500000Y-95854551D01*
X163248852Y-95874317D01*
X163244045Y-95875471D01*
X163244039Y-95875472D01*
X163088289Y-95912865D01*
X163003889Y-95933127D01*
X162999318Y-95935020D01*
X162999316Y-95935021D01*
X162775715Y-96027639D01*
X162775711Y-96027641D01*
X162771141Y-96029534D01*
X162556341Y-96161164D01*
X162552581Y-96164376D01*
X162552576Y-96164379D01*
X162368543Y-96321558D01*
X162368538Y-96321563D01*
X162364776Y-96324776D01*
X162361563Y-96328538D01*
X162361561Y-96328540D01*
X162325811Y-96370398D01*
X162266360Y-96409207D01*
X162195366Y-96409713D01*
X162134189Y-96370398D01*
X162098439Y-96328540D01*
X162098437Y-96328538D01*
X162095224Y-96324776D01*
X162091462Y-96321563D01*
X162091457Y-96321558D01*
X161907424Y-96164379D01*
X161907419Y-96164376D01*
X161903659Y-96161164D01*
X161688859Y-96029534D01*
X161684289Y-96027641D01*
X161684285Y-96027639D01*
X161460684Y-95935021D01*
X161460682Y-95935020D01*
X161456111Y-95933127D01*
X161371711Y-95912865D01*
X161215961Y-95875472D01*
X161215955Y-95875471D01*
X161211148Y-95874317D01*
X160960000Y-95854551D01*
X160708852Y-95874317D01*
X160704045Y-95875471D01*
X160704039Y-95875472D01*
X160548289Y-95912865D01*
X160463889Y-95933127D01*
X160459318Y-95935020D01*
X160459316Y-95935021D01*
X160235715Y-96027639D01*
X160235711Y-96027641D01*
X160231141Y-96029534D01*
X160016341Y-96161164D01*
X160012581Y-96164376D01*
X160012576Y-96164379D01*
X159828543Y-96321558D01*
X159828538Y-96321563D01*
X159824776Y-96324776D01*
X159821563Y-96328538D01*
X159821561Y-96328540D01*
X159785811Y-96370398D01*
X159726360Y-96409207D01*
X159655366Y-96409713D01*
X159594189Y-96370398D01*
X159558439Y-96328540D01*
X159558437Y-96328538D01*
X159555224Y-96324776D01*
X159551462Y-96321563D01*
X159551457Y-96321558D01*
X159367424Y-96164379D01*
X159367419Y-96164376D01*
X159363659Y-96161164D01*
X159148859Y-96029534D01*
X159144289Y-96027641D01*
X159144285Y-96027639D01*
X158920684Y-95935021D01*
X158920682Y-95935020D01*
X158916111Y-95933127D01*
X158831711Y-95912865D01*
X158675961Y-95875472D01*
X158675955Y-95875471D01*
X158671148Y-95874317D01*
X158420000Y-95854551D01*
X158168852Y-95874317D01*
X158164045Y-95875471D01*
X158164039Y-95875472D01*
X158008289Y-95912865D01*
X157923889Y-95933127D01*
X157919318Y-95935020D01*
X157919316Y-95935021D01*
X157695715Y-96027639D01*
X157695711Y-96027641D01*
X157691141Y-96029534D01*
X157476341Y-96161164D01*
X157472581Y-96164376D01*
X157472576Y-96164379D01*
X157288543Y-96321558D01*
X157288538Y-96321563D01*
X157284776Y-96324776D01*
X157281563Y-96328538D01*
X157281561Y-96328540D01*
X157245811Y-96370398D01*
X157186360Y-96409207D01*
X157115366Y-96409713D01*
X157054189Y-96370398D01*
X157018439Y-96328540D01*
X157018437Y-96328538D01*
X157015224Y-96324776D01*
X157011462Y-96321563D01*
X157011457Y-96321558D01*
X156827424Y-96164379D01*
X156827419Y-96164376D01*
X156823659Y-96161164D01*
X156608859Y-96029534D01*
X156604289Y-96027641D01*
X156604285Y-96027639D01*
X156380684Y-95935021D01*
X156380682Y-95935020D01*
X156376111Y-95933127D01*
X156291711Y-95912865D01*
X156135961Y-95875472D01*
X156135955Y-95875471D01*
X156131148Y-95874317D01*
X155880000Y-95854551D01*
X155628852Y-95874317D01*
X155624045Y-95875471D01*
X155624039Y-95875472D01*
X155468289Y-95912865D01*
X155383889Y-95933127D01*
X155379318Y-95935020D01*
X155379316Y-95935021D01*
X155155715Y-96027639D01*
X155155711Y-96027641D01*
X155151141Y-96029534D01*
X154936341Y-96161164D01*
X154932581Y-96164376D01*
X154932576Y-96164379D01*
X154748543Y-96321558D01*
X154748538Y-96321563D01*
X154744776Y-96324776D01*
X154741563Y-96328538D01*
X154741561Y-96328540D01*
X154705811Y-96370398D01*
X154646360Y-96409207D01*
X154575366Y-96409713D01*
X154514189Y-96370398D01*
X154478439Y-96328540D01*
X154478437Y-96328538D01*
X154475224Y-96324776D01*
X154471462Y-96321563D01*
X154471457Y-96321558D01*
X154287424Y-96164379D01*
X154287419Y-96164376D01*
X154283659Y-96161164D01*
X154068859Y-96029534D01*
X154064289Y-96027641D01*
X154064285Y-96027639D01*
X153840684Y-95935021D01*
X153840682Y-95935020D01*
X153836111Y-95933127D01*
X153751711Y-95912865D01*
X153595961Y-95875472D01*
X153595955Y-95875471D01*
X153591148Y-95874317D01*
X153340000Y-95854551D01*
X153088852Y-95874317D01*
X153084045Y-95875471D01*
X153084039Y-95875472D01*
X152928289Y-95912865D01*
X152843889Y-95933127D01*
X152839318Y-95935020D01*
X152839316Y-95935021D01*
X152615715Y-96027639D01*
X152615711Y-96027641D01*
X152611141Y-96029534D01*
X152606921Y-96032120D01*
X152397997Y-96160149D01*
X152329463Y-96178687D01*
X152261787Y-96157231D01*
X152242985Y-96139834D01*
X152242166Y-96140655D01*
X152123491Y-96022187D01*
X152118311Y-96017016D01*
X151969334Y-95925186D01*
X151898871Y-95901814D01*
X151809759Y-95872256D01*
X151809757Y-95872255D01*
X151803228Y-95870090D01*
X151699866Y-95859500D01*
X149900134Y-95859500D01*
X149896888Y-95859837D01*
X149896884Y-95859837D01*
X149802339Y-95869647D01*
X149802335Y-95869648D01*
X149795481Y-95870359D01*
X149788945Y-95872540D01*
X149788943Y-95872540D01*
X149708452Y-95899394D01*
X149629471Y-95925744D01*
X149480655Y-96017834D01*
X149357016Y-96141689D01*
X149353176Y-96147919D01*
X149353175Y-96147920D01*
X149343030Y-96164379D01*
X149265186Y-96290666D01*
X149262881Y-96297614D01*
X149262881Y-96297615D01*
X149238740Y-96370398D01*
X149210090Y-96456772D01*
X149199500Y-96560134D01*
X149199500Y-98359866D01*
X149199837Y-98363112D01*
X149199837Y-98363116D01*
X149206743Y-98429667D01*
X149210359Y-98464519D01*
X149212540Y-98471055D01*
X149212540Y-98471057D01*
X149223461Y-98503792D01*
X149265744Y-98630529D01*
X149357834Y-98779345D01*
X149481689Y-98902984D01*
X149630666Y-98994814D01*
X149637614Y-98997119D01*
X149637615Y-98997119D01*
X149658080Y-99003907D01*
X149716440Y-99044338D01*
X149743676Y-99109903D01*
X149731142Y-99179784D01*
X149682817Y-99231796D01*
X149618412Y-99249500D01*
X146186761Y-99249500D01*
X146118640Y-99229498D01*
X146072147Y-99175842D01*
X146062043Y-99105568D01*
X146091537Y-99040988D01*
X146157347Y-99000981D01*
X146199037Y-98990972D01*
X146216111Y-98986873D01*
X146220684Y-98984979D01*
X146444285Y-98892361D01*
X146444289Y-98892359D01*
X146448859Y-98890466D01*
X146663659Y-98758836D01*
X146667419Y-98755624D01*
X146667424Y-98755621D01*
X146851462Y-98598437D01*
X146855224Y-98595224D01*
X146927767Y-98510287D01*
X147015621Y-98407424D01*
X147015624Y-98407419D01*
X147018836Y-98403659D01*
X147150466Y-98188859D01*
X147155220Y-98177383D01*
X147244979Y-97960684D01*
X147244980Y-97960682D01*
X147246873Y-97956111D01*
X147293152Y-97763345D01*
X147304528Y-97715961D01*
X147304529Y-97715955D01*
X147305683Y-97711148D01*
X147325449Y-97460000D01*
X147305683Y-97208852D01*
X147303591Y-97200135D01*
X147248028Y-96968701D01*
X147246873Y-96963889D01*
X147184661Y-96813695D01*
X147152361Y-96735715D01*
X147152359Y-96735711D01*
X147150466Y-96731141D01*
X147018836Y-96516341D01*
X147015624Y-96512581D01*
X147015621Y-96512576D01*
X146858437Y-96328538D01*
X146855224Y-96324776D01*
X146801387Y-96278795D01*
X146667424Y-96164379D01*
X146667419Y-96164376D01*
X146663659Y-96161164D01*
X146448859Y-96029534D01*
X146444289Y-96027641D01*
X146444285Y-96027639D01*
X146220684Y-95935021D01*
X146220682Y-95935020D01*
X146216111Y-95933127D01*
X146131711Y-95912865D01*
X145975961Y-95875472D01*
X145975955Y-95875471D01*
X145971148Y-95874317D01*
X145720000Y-95854551D01*
X145468852Y-95874317D01*
X145464045Y-95875471D01*
X145464039Y-95875472D01*
X145308289Y-95912865D01*
X145223889Y-95933127D01*
X145219318Y-95935020D01*
X145219316Y-95935021D01*
X144995715Y-96027639D01*
X144995711Y-96027641D01*
X144991141Y-96029534D01*
X144776341Y-96161164D01*
X144772581Y-96164376D01*
X144772576Y-96164379D01*
X144638613Y-96278795D01*
X144584776Y-96324776D01*
X144581563Y-96328538D01*
X144424379Y-96512576D01*
X144424376Y-96512581D01*
X144421164Y-96516341D01*
X144418580Y-96520558D01*
X144402734Y-96546416D01*
X144350086Y-96594047D01*
X144280045Y-96605654D01*
X144214847Y-96577551D01*
X144202108Y-96565381D01*
X144112806Y-96467240D01*
X144105273Y-96460215D01*
X143938139Y-96328222D01*
X143929552Y-96322517D01*
X143743117Y-96219599D01*
X143733705Y-96215369D01*
X143532959Y-96144280D01*
X143522988Y-96141646D01*
X143451837Y-96128972D01*
X143438540Y-96130432D01*
X143434000Y-96144989D01*
X143434000Y-98778517D01*
X143438064Y-98792359D01*
X143451478Y-98794393D01*
X143458184Y-98793534D01*
X143468262Y-98791392D01*
X143672255Y-98730191D01*
X143681842Y-98726433D01*
X143873095Y-98632739D01*
X143881945Y-98627464D01*
X144055328Y-98503792D01*
X144063200Y-98497139D01*
X144207999Y-98352843D01*
X144270370Y-98318926D01*
X144341177Y-98324114D01*
X144397938Y-98366760D01*
X144404371Y-98376256D01*
X144418580Y-98399442D01*
X144421164Y-98403659D01*
X144424375Y-98407419D01*
X144424379Y-98407424D01*
X144512233Y-98510287D01*
X144584776Y-98595224D01*
X144588538Y-98598437D01*
X144772576Y-98755621D01*
X144772581Y-98755624D01*
X144776341Y-98758836D01*
X144991141Y-98890466D01*
X144995711Y-98892359D01*
X144995715Y-98892361D01*
X145219316Y-98984979D01*
X145223889Y-98986873D01*
X145240963Y-98990972D01*
X145282653Y-99000981D01*
X145344222Y-99036333D01*
X145376905Y-99099360D01*
X145370324Y-99170051D01*
X145326570Y-99225962D01*
X145253239Y-99249500D01*
X138566761Y-99249500D01*
X138498640Y-99229498D01*
X138452147Y-99175842D01*
X138442043Y-99105568D01*
X138471537Y-99040988D01*
X138537347Y-99000981D01*
X138579037Y-98990972D01*
X138596111Y-98986873D01*
X138600684Y-98984979D01*
X138824285Y-98892361D01*
X138824289Y-98892359D01*
X138828859Y-98890466D01*
X139043659Y-98758836D01*
X139047419Y-98755624D01*
X139047424Y-98755621D01*
X139231462Y-98598437D01*
X139235224Y-98595224D01*
X139307767Y-98510287D01*
X139395621Y-98407424D01*
X139395624Y-98407419D01*
X139398836Y-98403659D01*
X139417375Y-98373406D01*
X139470023Y-98325775D01*
X139540064Y-98314168D01*
X139605262Y-98342271D01*
X139620046Y-98356744D01*
X139683219Y-98429674D01*
X139690580Y-98436883D01*
X139854434Y-98572916D01*
X139862881Y-98578831D01*
X140046756Y-98686279D01*
X140056042Y-98690729D01*
X140255001Y-98766703D01*
X140264899Y-98769579D01*
X140368250Y-98790606D01*
X140382299Y-98789410D01*
X140386000Y-98779065D01*
X140386000Y-98778517D01*
X140894000Y-98778517D01*
X140898064Y-98792359D01*
X140911478Y-98794393D01*
X140918184Y-98793534D01*
X140928262Y-98791392D01*
X141132255Y-98730191D01*
X141141842Y-98726433D01*
X141333095Y-98632739D01*
X141341945Y-98627464D01*
X141515328Y-98503792D01*
X141523200Y-98497139D01*
X141674052Y-98346812D01*
X141680730Y-98338965D01*
X141808022Y-98161819D01*
X141809147Y-98162627D01*
X141856669Y-98118876D01*
X141926607Y-98106661D01*
X141992046Y-98134197D01*
X142019870Y-98166028D01*
X142077690Y-98260383D01*
X142083777Y-98268699D01*
X142223213Y-98429667D01*
X142230580Y-98436883D01*
X142394434Y-98572916D01*
X142402881Y-98578831D01*
X142586756Y-98686279D01*
X142596042Y-98690729D01*
X142795001Y-98766703D01*
X142804899Y-98769579D01*
X142908250Y-98790606D01*
X142922299Y-98789410D01*
X142926000Y-98779065D01*
X142926000Y-97732115D01*
X142921525Y-97716876D01*
X142920135Y-97715671D01*
X142912452Y-97714000D01*
X140912115Y-97714000D01*
X140896876Y-97718475D01*
X140895671Y-97719865D01*
X140894000Y-97727548D01*
X140894000Y-98778517D01*
X140386000Y-98778517D01*
X140386000Y-97187885D01*
X140894000Y-97187885D01*
X140898475Y-97203124D01*
X140899865Y-97204329D01*
X140907548Y-97206000D01*
X142907885Y-97206000D01*
X142923124Y-97201525D01*
X142924329Y-97200135D01*
X142926000Y-97192452D01*
X142926000Y-96143102D01*
X142922082Y-96129758D01*
X142907806Y-96127771D01*
X142869324Y-96133660D01*
X142859288Y-96136051D01*
X142656868Y-96202212D01*
X142647359Y-96206209D01*
X142458463Y-96304542D01*
X142449738Y-96310036D01*
X142279433Y-96437905D01*
X142271726Y-96444748D01*
X142124590Y-96598717D01*
X142118104Y-96606727D01*
X142013193Y-96760521D01*
X141958282Y-96805524D01*
X141887757Y-96813695D01*
X141824010Y-96782441D01*
X141803313Y-96757957D01*
X141722427Y-96632926D01*
X141716136Y-96624757D01*
X141572806Y-96467240D01*
X141565273Y-96460215D01*
X141398139Y-96328222D01*
X141389552Y-96322517D01*
X141203117Y-96219599D01*
X141193705Y-96215369D01*
X140992959Y-96144280D01*
X140982988Y-96141646D01*
X140911837Y-96128972D01*
X140898540Y-96130432D01*
X140894000Y-96144989D01*
X140894000Y-97187885D01*
X140386000Y-97187885D01*
X140386000Y-96143102D01*
X140382082Y-96129758D01*
X140367806Y-96127771D01*
X140329324Y-96133660D01*
X140319288Y-96136051D01*
X140116868Y-96202212D01*
X140107359Y-96206209D01*
X139918463Y-96304542D01*
X139909738Y-96310036D01*
X139739433Y-96437905D01*
X139731726Y-96444748D01*
X139615208Y-96566677D01*
X139553684Y-96602107D01*
X139482771Y-96598650D01*
X139424985Y-96557404D01*
X139416682Y-96545461D01*
X139401427Y-96520567D01*
X139401419Y-96520556D01*
X139398836Y-96516341D01*
X139395625Y-96512581D01*
X139395621Y-96512576D01*
X139238437Y-96328538D01*
X139235224Y-96324776D01*
X139181387Y-96278795D01*
X139047424Y-96164379D01*
X139047419Y-96164376D01*
X139043659Y-96161164D01*
X138828859Y-96029534D01*
X138824289Y-96027641D01*
X138824285Y-96027639D01*
X138600684Y-95935021D01*
X138600682Y-95935020D01*
X138596111Y-95933127D01*
X138511711Y-95912865D01*
X138355961Y-95875472D01*
X138355955Y-95875471D01*
X138351148Y-95874317D01*
X138100000Y-95854551D01*
X137848852Y-95874317D01*
X137844045Y-95875471D01*
X137844039Y-95875472D01*
X137688289Y-95912865D01*
X137603889Y-95933127D01*
X137599318Y-95935020D01*
X137599316Y-95935021D01*
X137375715Y-96027639D01*
X137375711Y-96027641D01*
X137371141Y-96029534D01*
X137156341Y-96161164D01*
X137152581Y-96164376D01*
X137152576Y-96164379D01*
X136968543Y-96321558D01*
X136968538Y-96321563D01*
X136964776Y-96324776D01*
X136961563Y-96328538D01*
X136961561Y-96328540D01*
X136925811Y-96370398D01*
X136866360Y-96409207D01*
X136795366Y-96409713D01*
X136734189Y-96370398D01*
X136698439Y-96328540D01*
X136698437Y-96328538D01*
X136695224Y-96324776D01*
X136691462Y-96321563D01*
X136691457Y-96321558D01*
X136507424Y-96164379D01*
X136507419Y-96164376D01*
X136503659Y-96161164D01*
X136288859Y-96029534D01*
X136284289Y-96027641D01*
X136284285Y-96027639D01*
X136060684Y-95935021D01*
X136060682Y-95935020D01*
X136056111Y-95933127D01*
X135971711Y-95912865D01*
X135815961Y-95875472D01*
X135815955Y-95875471D01*
X135811148Y-95874317D01*
X135560000Y-95854551D01*
X135308852Y-95874317D01*
X135304045Y-95875471D01*
X135304039Y-95875472D01*
X135148289Y-95912865D01*
X135063889Y-95933127D01*
X135059318Y-95935020D01*
X135059316Y-95935021D01*
X134835715Y-96027639D01*
X134835711Y-96027641D01*
X134831141Y-96029534D01*
X134616341Y-96161164D01*
X134612581Y-96164376D01*
X134612576Y-96164379D01*
X134428543Y-96321558D01*
X134428538Y-96321563D01*
X134424776Y-96324776D01*
X134421563Y-96328538D01*
X134421561Y-96328540D01*
X134385811Y-96370398D01*
X134326360Y-96409207D01*
X134255366Y-96409713D01*
X134194189Y-96370398D01*
X134158439Y-96328540D01*
X134158437Y-96328538D01*
X134155224Y-96324776D01*
X134151462Y-96321563D01*
X134151457Y-96321558D01*
X133967424Y-96164379D01*
X133967419Y-96164376D01*
X133963659Y-96161164D01*
X133748859Y-96029534D01*
X133744289Y-96027641D01*
X133744285Y-96027639D01*
X133520684Y-95935021D01*
X133520682Y-95935020D01*
X133516111Y-95933127D01*
X133431711Y-95912865D01*
X133275961Y-95875472D01*
X133275955Y-95875471D01*
X133271148Y-95874317D01*
X133020000Y-95854551D01*
X132768852Y-95874317D01*
X132764045Y-95875471D01*
X132764039Y-95875472D01*
X132608289Y-95912865D01*
X132523889Y-95933127D01*
X132519318Y-95935020D01*
X132519316Y-95935021D01*
X132295715Y-96027639D01*
X132295711Y-96027641D01*
X132291141Y-96029534D01*
X132076341Y-96161164D01*
X132072581Y-96164376D01*
X132072576Y-96164379D01*
X131888543Y-96321558D01*
X131888538Y-96321563D01*
X131884776Y-96324776D01*
X131881563Y-96328538D01*
X131881561Y-96328540D01*
X131845811Y-96370398D01*
X131786360Y-96409207D01*
X131715366Y-96409713D01*
X131654189Y-96370398D01*
X131618439Y-96328540D01*
X131618437Y-96328538D01*
X131615224Y-96324776D01*
X131611462Y-96321563D01*
X131611457Y-96321558D01*
X131427424Y-96164379D01*
X131427419Y-96164376D01*
X131423659Y-96161164D01*
X131208859Y-96029534D01*
X131204289Y-96027641D01*
X131204285Y-96027639D01*
X130980684Y-95935021D01*
X130980682Y-95935020D01*
X130976111Y-95933127D01*
X130891711Y-95912865D01*
X130735961Y-95875472D01*
X130735955Y-95875471D01*
X130731148Y-95874317D01*
X130480000Y-95854551D01*
X130228852Y-95874317D01*
X130224045Y-95875471D01*
X130224039Y-95875472D01*
X130068289Y-95912865D01*
X129983889Y-95933127D01*
X129979318Y-95935020D01*
X129979316Y-95935021D01*
X129755715Y-96027639D01*
X129755711Y-96027641D01*
X129751141Y-96029534D01*
X129746921Y-96032120D01*
X129537997Y-96160149D01*
X129469463Y-96178687D01*
X129401787Y-96157231D01*
X129382985Y-96139834D01*
X129382166Y-96140655D01*
X129263491Y-96022187D01*
X129258311Y-96017016D01*
X129109334Y-95925186D01*
X129038871Y-95901814D01*
X128949759Y-95872256D01*
X128949757Y-95872255D01*
X128943228Y-95870090D01*
X128839866Y-95859500D01*
X127040134Y-95859500D01*
X127036888Y-95859837D01*
X127036884Y-95859837D01*
X126942339Y-95869647D01*
X126942335Y-95869648D01*
X126935481Y-95870359D01*
X126928945Y-95872540D01*
X126928943Y-95872540D01*
X126848452Y-95899394D01*
X126769471Y-95925744D01*
X126620655Y-96017834D01*
X126497016Y-96141689D01*
X126493176Y-96147919D01*
X126493175Y-96147920D01*
X126483030Y-96164379D01*
X126405186Y-96290666D01*
X126402881Y-96297614D01*
X126402881Y-96297615D01*
X126378740Y-96370398D01*
X126350090Y-96456772D01*
X126339500Y-96560134D01*
X126339500Y-98359866D01*
X126339837Y-98363112D01*
X126339837Y-98363116D01*
X126346743Y-98429667D01*
X126350359Y-98464519D01*
X126352540Y-98471055D01*
X126352540Y-98471057D01*
X126363461Y-98503792D01*
X126405744Y-98630529D01*
X126497834Y-98779345D01*
X126621689Y-98902984D01*
X126770666Y-98994814D01*
X126777614Y-98997119D01*
X126777615Y-98997119D01*
X126798080Y-99003907D01*
X126856440Y-99044338D01*
X126883676Y-99109903D01*
X126871142Y-99179784D01*
X126822817Y-99231796D01*
X126758412Y-99249500D01*
X115805069Y-99249500D01*
X115736948Y-99229498D01*
X115690455Y-99175842D01*
X115680351Y-99105568D01*
X115710337Y-99040422D01*
X115836060Y-98897064D01*
X115836064Y-98897058D01*
X115838778Y-98893964D01*
X115841116Y-98890466D01*
X115993216Y-98662831D01*
X116009960Y-98637772D01*
X116015044Y-98627464D01*
X116123555Y-98407424D01*
X116146238Y-98361427D01*
X116180538Y-98260383D01*
X116243954Y-98073566D01*
X116243955Y-98073563D01*
X116245280Y-98069659D01*
X116266957Y-97960684D01*
X116304587Y-97771503D01*
X116304587Y-97771500D01*
X116305391Y-97767460D01*
X116308707Y-97716876D01*
X116325273Y-97464119D01*
X116325543Y-97460000D01*
X116323630Y-97430814D01*
X116305661Y-97156655D01*
X116305660Y-97156651D01*
X116305391Y-97152540D01*
X116304587Y-97148497D01*
X116246085Y-96854386D01*
X116246083Y-96854380D01*
X116245280Y-96850341D01*
X116232841Y-96813695D01*
X116147564Y-96562479D01*
X116147564Y-96562478D01*
X116146238Y-96558573D01*
X116032797Y-96328538D01*
X116011787Y-96285933D01*
X116011784Y-96285928D01*
X116009960Y-96282229D01*
X115838778Y-96026036D01*
X115836064Y-96022942D01*
X115836060Y-96022936D01*
X115638329Y-95797469D01*
X115635620Y-95794380D01*
X115627221Y-95787014D01*
X115407064Y-95593940D01*
X115407058Y-95593936D01*
X115403964Y-95591222D01*
X115147771Y-95420040D01*
X115144072Y-95418216D01*
X115144067Y-95418213D01*
X115002038Y-95348172D01*
X114871427Y-95283762D01*
X114867521Y-95282436D01*
X114583566Y-95186046D01*
X114583563Y-95186045D01*
X114579659Y-95184720D01*
X114575620Y-95183917D01*
X114575614Y-95183915D01*
X114281503Y-95125413D01*
X114281500Y-95125413D01*
X114277460Y-95124609D01*
X114273349Y-95124340D01*
X114273345Y-95124339D01*
X114048990Y-95109634D01*
X114048981Y-95109634D01*
X114046941Y-95109500D01*
X113893059Y-95109500D01*
X113891019Y-95109634D01*
X113891010Y-95109634D01*
X113666655Y-95124339D01*
X113666651Y-95124340D01*
X113662540Y-95124609D01*
X113658500Y-95125413D01*
X113658497Y-95125413D01*
X113364386Y-95183915D01*
X113364380Y-95183917D01*
X113360341Y-95184720D01*
X113356437Y-95186045D01*
X113356434Y-95186046D01*
X113072479Y-95282436D01*
X113068573Y-95283762D01*
X112937962Y-95348172D01*
X112795933Y-95418213D01*
X112795928Y-95418216D01*
X112792229Y-95420040D01*
X112536036Y-95591222D01*
X112532942Y-95593936D01*
X112532936Y-95593940D01*
X112312779Y-95787014D01*
X112304380Y-95794380D01*
X112301671Y-95797469D01*
X112103940Y-96022936D01*
X112103936Y-96022942D01*
X112101222Y-96026036D01*
X112098933Y-96029462D01*
X112098929Y-96029467D01*
X112010932Y-96161164D01*
X111930040Y-96282228D01*
X111928216Y-96285927D01*
X111928213Y-96285932D01*
X111907358Y-96328222D01*
X111793762Y-96558573D01*
X111792436Y-96562478D01*
X111792436Y-96562479D01*
X111707160Y-96813695D01*
X111694720Y-96850341D01*
X111693917Y-96854380D01*
X111693915Y-96854386D01*
X111635413Y-97148497D01*
X111634609Y-97152540D01*
X111634340Y-97156651D01*
X111634339Y-97156655D01*
X111616370Y-97430814D01*
X111614457Y-97460000D01*
X111614727Y-97464119D01*
X111631294Y-97716876D01*
X111634609Y-97767460D01*
X111635413Y-97771500D01*
X111635413Y-97771503D01*
X111673044Y-97960684D01*
X111694720Y-98069659D01*
X111696045Y-98073563D01*
X111696046Y-98073566D01*
X111759462Y-98260383D01*
X111793762Y-98361427D01*
X111845636Y-98466616D01*
X111926776Y-98631152D01*
X111930040Y-98637771D01*
X112101222Y-98893964D01*
X112103936Y-98897058D01*
X112103940Y-98897064D01*
X112229663Y-99040422D01*
X112259540Y-99104826D01*
X112249854Y-99175159D01*
X112203682Y-99229091D01*
X112134931Y-99249500D01*
X100876500Y-99249500D01*
X100808379Y-99229498D01*
X100761886Y-99175842D01*
X100750500Y-99123500D01*
X100750500Y-86744866D01*
X103509500Y-86744866D01*
X103509837Y-86748112D01*
X103509837Y-86748116D01*
X103519515Y-86841383D01*
X103520359Y-86849519D01*
X103522540Y-86856055D01*
X103522540Y-86856057D01*
X103538978Y-86905327D01*
X103575744Y-87015529D01*
X103667834Y-87164345D01*
X103791689Y-87287984D01*
X103940666Y-87379814D01*
X103947614Y-87382119D01*
X103947615Y-87382119D01*
X104100241Y-87432744D01*
X104100243Y-87432745D01*
X104106772Y-87434910D01*
X104210134Y-87445500D01*
X105809866Y-87445500D01*
X105813112Y-87445163D01*
X105813116Y-87445163D01*
X105907661Y-87435353D01*
X105907665Y-87435352D01*
X105914519Y-87434641D01*
X105921055Y-87432460D01*
X105921057Y-87432460D01*
X106073581Y-87381574D01*
X106080529Y-87379256D01*
X106229345Y-87287166D01*
X106352984Y-87163311D01*
X106444814Y-87014334D01*
X106464981Y-86953534D01*
X106497744Y-86854759D01*
X106497745Y-86854757D01*
X106499910Y-86848228D01*
X106510500Y-86744866D01*
X106510500Y-85232321D01*
X106530502Y-85164200D01*
X106547405Y-85143226D01*
X107427632Y-84263000D01*
X108317464Y-83373168D01*
X108327607Y-83364066D01*
X108353746Y-83343050D01*
X108353747Y-83343049D01*
X108358553Y-83339185D01*
X108378421Y-83315507D01*
X108437530Y-83276182D01*
X108474941Y-83270500D01*
X108762101Y-83270500D01*
X108830222Y-83290502D01*
X108876715Y-83344158D01*
X108886819Y-83414432D01*
X108853196Y-83483550D01*
X108843468Y-83493730D01*
X108839896Y-83497468D01*
X108836982Y-83501740D01*
X108836981Y-83501741D01*
X108806790Y-83546000D01*
X108700851Y-83701300D01*
X108685901Y-83733507D01*
X108621335Y-83872604D01*
X108596965Y-83925104D01*
X108531026Y-84162871D01*
X108530477Y-84168008D01*
X108510148Y-84358231D01*
X108509500Y-84364292D01*
X108509500Y-86007554D01*
X108509712Y-86010127D01*
X108509712Y-86010138D01*
X108524151Y-86185760D01*
X108524152Y-86185766D01*
X108524575Y-86190911D01*
X108584684Y-86430217D01*
X108683072Y-86656493D01*
X108817095Y-86863661D01*
X108820575Y-86867486D01*
X108820577Y-86867488D01*
X108860922Y-86911826D01*
X108983154Y-87046158D01*
X108987205Y-87049357D01*
X108987209Y-87049361D01*
X109172736Y-87195881D01*
X109172741Y-87195884D01*
X109176790Y-87199082D01*
X109181306Y-87201575D01*
X109181309Y-87201577D01*
X109388278Y-87315830D01*
X109388282Y-87315832D01*
X109392802Y-87318327D01*
X109397671Y-87320051D01*
X109397675Y-87320053D01*
X109620515Y-87398965D01*
X109620519Y-87398966D01*
X109625390Y-87400691D01*
X109630483Y-87401598D01*
X109630486Y-87401599D01*
X109863217Y-87443055D01*
X109863223Y-87443056D01*
X109868306Y-87443961D01*
X109947676Y-87444931D01*
X110109858Y-87446912D01*
X110109860Y-87446912D01*
X110115028Y-87446975D01*
X110358930Y-87409653D01*
X110571857Y-87340058D01*
X110642821Y-87337907D01*
X110700097Y-87370728D01*
X118946828Y-95617459D01*
X118955929Y-95627601D01*
X118980815Y-95658553D01*
X119020863Y-95692157D01*
X119024475Y-95695309D01*
X119026655Y-95697286D01*
X119028842Y-95699473D01*
X119031225Y-95701430D01*
X119031230Y-95701435D01*
X119063418Y-95727875D01*
X119064433Y-95728718D01*
X119133907Y-95787014D01*
X119133914Y-95787019D01*
X119138630Y-95790976D01*
X119143494Y-95793650D01*
X119147783Y-95797173D01*
X119233230Y-95842989D01*
X119234232Y-95843534D01*
X119313749Y-95887249D01*
X119313756Y-95887252D01*
X119319162Y-95890224D01*
X119324453Y-95891902D01*
X119329344Y-95894525D01*
X119335236Y-95896327D01*
X119335240Y-95896328D01*
X119421963Y-95922842D01*
X119423222Y-95923234D01*
X119436671Y-95927500D01*
X119515532Y-95952516D01*
X119521046Y-95953134D01*
X119526356Y-95954758D01*
X119622827Y-95964558D01*
X119623962Y-95964679D01*
X119654634Y-95968119D01*
X119672366Y-95970108D01*
X119672372Y-95970108D01*
X119675864Y-95970500D01*
X119679390Y-95970500D01*
X119680859Y-95970582D01*
X119686545Y-95971029D01*
X119711084Y-95973522D01*
X119725189Y-95974955D01*
X119725192Y-95974955D01*
X119731315Y-95975577D01*
X119779109Y-95971059D01*
X119790968Y-95970500D01*
X124705868Y-95970500D01*
X124719476Y-95971237D01*
X124752822Y-95974860D01*
X124752826Y-95974860D01*
X124758947Y-95975525D01*
X124776832Y-95973960D01*
X124810972Y-95970974D01*
X124815796Y-95970645D01*
X124818759Y-95970500D01*
X124821841Y-95970500D01*
X124828848Y-95969813D01*
X124866392Y-95966132D01*
X124867705Y-95966010D01*
X124914586Y-95961908D01*
X124964176Y-95957570D01*
X124969505Y-95956022D01*
X124975030Y-95955480D01*
X125067813Y-95927467D01*
X125068968Y-95927125D01*
X125162010Y-95900094D01*
X125166940Y-95897538D01*
X125172251Y-95895935D01*
X125177700Y-95893038D01*
X125257823Y-95850437D01*
X125258989Y-95849825D01*
X125303132Y-95826943D01*
X125344912Y-95805286D01*
X125349247Y-95801826D01*
X125354151Y-95799218D01*
X125360585Y-95793971D01*
X125429290Y-95737936D01*
X125430317Y-95737108D01*
X125468247Y-95706829D01*
X125468250Y-95706826D01*
X125471000Y-95704631D01*
X125473492Y-95702139D01*
X125474579Y-95701167D01*
X125478928Y-95697452D01*
X125509025Y-95672906D01*
X125509028Y-95672903D01*
X125513800Y-95669011D01*
X125544405Y-95632016D01*
X125552394Y-95623237D01*
X127367459Y-93808172D01*
X127377602Y-93799070D01*
X127403746Y-93778050D01*
X127403747Y-93778049D01*
X127408553Y-93774185D01*
X127442157Y-93734137D01*
X127445309Y-93730525D01*
X127447286Y-93728345D01*
X127449473Y-93726158D01*
X127451435Y-93723770D01*
X127477875Y-93691582D01*
X127478718Y-93690567D01*
X127537014Y-93621093D01*
X127537019Y-93621086D01*
X127540976Y-93616370D01*
X127543650Y-93611506D01*
X127547173Y-93607217D01*
X127592989Y-93521770D01*
X127593534Y-93520768D01*
X127637249Y-93441251D01*
X127637252Y-93441244D01*
X127640224Y-93435838D01*
X127641902Y-93430547D01*
X127644525Y-93425656D01*
X127672842Y-93333037D01*
X127673234Y-93331778D01*
X127700651Y-93245346D01*
X127702516Y-93239468D01*
X127703134Y-93233954D01*
X127704758Y-93228644D01*
X127714558Y-93132173D01*
X127714679Y-93131038D01*
X127720500Y-93079136D01*
X127720500Y-93075610D01*
X127720582Y-93074141D01*
X127721031Y-93068435D01*
X127724955Y-93029811D01*
X127724955Y-93029808D01*
X127725577Y-93023685D01*
X127721059Y-92975890D01*
X127720500Y-92964032D01*
X127720500Y-92873207D01*
X127740502Y-92805086D01*
X127772170Y-92771467D01*
X127775398Y-92769109D01*
X127775406Y-92769102D01*
X127779265Y-92766283D01*
X127798891Y-92746760D01*
X127959562Y-92586927D01*
X127962957Y-92583550D01*
X127969628Y-92574519D01*
X128000700Y-92532450D01*
X128057261Y-92489538D01*
X128128042Y-92484018D01*
X128195246Y-92522509D01*
X128207047Y-92535479D01*
X128214583Y-92542505D01*
X128394944Y-92684945D01*
X128403531Y-92690650D01*
X128604722Y-92801714D01*
X128614134Y-92805944D01*
X128830768Y-92882659D01*
X128840739Y-92885293D01*
X128938163Y-92902647D01*
X128951460Y-92901187D01*
X128955543Y-92888096D01*
X129464000Y-92888096D01*
X129467918Y-92901440D01*
X129482194Y-92903427D01*
X129544515Y-92893890D01*
X129554543Y-92891501D01*
X129772988Y-92820102D01*
X129782497Y-92816105D01*
X129986344Y-92709989D01*
X129995069Y-92704495D01*
X130178852Y-92566507D01*
X130186559Y-92559664D01*
X130345339Y-92393509D01*
X130351826Y-92385499D01*
X130481330Y-92195653D01*
X130486429Y-92186679D01*
X130583187Y-91978231D01*
X130586750Y-91968544D01*
X130648165Y-91747092D01*
X130650096Y-91736970D01*
X130654901Y-91692013D01*
X130652253Y-91677392D01*
X130639876Y-91674000D01*
X129482115Y-91674000D01*
X129466876Y-91678475D01*
X129465671Y-91679865D01*
X129464000Y-91687548D01*
X129464000Y-92888096D01*
X128955543Y-92888096D01*
X128956000Y-92886630D01*
X128956000Y-91419669D01*
X134002001Y-91419669D01*
X134002371Y-91426490D01*
X134007895Y-91477352D01*
X134011521Y-91492604D01*
X134056676Y-91613054D01*
X134065214Y-91628649D01*
X134141715Y-91730724D01*
X134154276Y-91743285D01*
X134256351Y-91819786D01*
X134271946Y-91828324D01*
X134392394Y-91873478D01*
X134407649Y-91877105D01*
X134458514Y-91882631D01*
X134465328Y-91883000D01*
X135137885Y-91883000D01*
X135153124Y-91878525D01*
X135154329Y-91877135D01*
X135156000Y-91869452D01*
X135156000Y-91864884D01*
X135664000Y-91864884D01*
X135668475Y-91880123D01*
X135669865Y-91881328D01*
X135677548Y-91882999D01*
X136354669Y-91882999D01*
X136361490Y-91882629D01*
X136412352Y-91877105D01*
X136427604Y-91873479D01*
X136548054Y-91828324D01*
X136563649Y-91819786D01*
X136665721Y-91743288D01*
X136684637Y-91724372D01*
X136686310Y-91726045D01*
X136732901Y-91691212D01*
X136803720Y-91686193D01*
X136858690Y-91713485D01*
X136976860Y-91814412D01*
X137198372Y-91950154D01*
X137202942Y-91952047D01*
X137202946Y-91952049D01*
X137433817Y-92047679D01*
X137438390Y-92049573D01*
X137517214Y-92068497D01*
X137686193Y-92109066D01*
X137686199Y-92109067D01*
X137691006Y-92110221D01*
X137950000Y-92130604D01*
X138208994Y-92110221D01*
X138213801Y-92109067D01*
X138213807Y-92109066D01*
X138382786Y-92068497D01*
X138461610Y-92049573D01*
X138466183Y-92047679D01*
X138697054Y-91952049D01*
X138697058Y-91952047D01*
X138701628Y-91950154D01*
X138923140Y-91814412D01*
X139120689Y-91645689D01*
X139289412Y-91448140D01*
X139425154Y-91226628D01*
X139450960Y-91164329D01*
X139522679Y-90991183D01*
X139522680Y-90991181D01*
X139524573Y-90986610D01*
X139582071Y-90747115D01*
X139584066Y-90738807D01*
X139584067Y-90738801D01*
X139585221Y-90733994D01*
X139605604Y-90475000D01*
X139585221Y-90216006D01*
X139584067Y-90211199D01*
X139584066Y-90211193D01*
X139539099Y-90023895D01*
X139524573Y-89963390D01*
X139522307Y-89957920D01*
X139427049Y-89727946D01*
X139427047Y-89727942D01*
X139425154Y-89723372D01*
X139289412Y-89501860D01*
X139120689Y-89304311D01*
X138923140Y-89135588D01*
X138701628Y-88999846D01*
X138697058Y-88997953D01*
X138697054Y-88997951D01*
X138466183Y-88902321D01*
X138466181Y-88902320D01*
X138461610Y-88900427D01*
X138338068Y-88870767D01*
X138213807Y-88840934D01*
X138213801Y-88840933D01*
X138208994Y-88839779D01*
X137950000Y-88819396D01*
X137691006Y-88839779D01*
X137686199Y-88840933D01*
X137686193Y-88840934D01*
X137561932Y-88870767D01*
X137438390Y-88900427D01*
X137433819Y-88902320D01*
X137433817Y-88902321D01*
X137202946Y-88997951D01*
X137202942Y-88997953D01*
X137198372Y-88999846D01*
X136976860Y-89135588D01*
X136878874Y-89219276D01*
X136858690Y-89236515D01*
X136793900Y-89265546D01*
X136723700Y-89254941D01*
X136685949Y-89224316D01*
X136684637Y-89225628D01*
X136665721Y-89206712D01*
X136563649Y-89130214D01*
X136548054Y-89121676D01*
X136427606Y-89076522D01*
X136412351Y-89072895D01*
X136361486Y-89067369D01*
X136354672Y-89067000D01*
X135682115Y-89067000D01*
X135666876Y-89071475D01*
X135665671Y-89072865D01*
X135664000Y-89080548D01*
X135664000Y-91864884D01*
X135156000Y-91864884D01*
X135156000Y-90747115D01*
X135151525Y-90731876D01*
X135150135Y-90730671D01*
X135142452Y-90729000D01*
X134020116Y-90729000D01*
X134004877Y-90733475D01*
X134003672Y-90734865D01*
X134002001Y-90742548D01*
X134002001Y-91419669D01*
X128956000Y-91419669D01*
X128956000Y-91147885D01*
X129464000Y-91147885D01*
X129468475Y-91163124D01*
X129469865Y-91164329D01*
X129477548Y-91166000D01*
X130640412Y-91166000D01*
X130655141Y-91161675D01*
X130657202Y-91149889D01*
X130656249Y-91138296D01*
X130654567Y-91128134D01*
X130598578Y-90905229D01*
X130595259Y-90895481D01*
X130503615Y-90684711D01*
X130498749Y-90675636D01*
X130373915Y-90482673D01*
X130367622Y-90474502D01*
X130212950Y-90304520D01*
X130205417Y-90297494D01*
X130085620Y-90202885D01*
X134002000Y-90202885D01*
X134006475Y-90218124D01*
X134007865Y-90219329D01*
X134015548Y-90221000D01*
X135137885Y-90221000D01*
X135153124Y-90216525D01*
X135154329Y-90215135D01*
X135156000Y-90207452D01*
X135156000Y-89085116D01*
X135151525Y-89069877D01*
X135150135Y-89068672D01*
X135142452Y-89067001D01*
X134465331Y-89067001D01*
X134458510Y-89067371D01*
X134407648Y-89072895D01*
X134392396Y-89076521D01*
X134271946Y-89121676D01*
X134256351Y-89130214D01*
X134154276Y-89206715D01*
X134141715Y-89219276D01*
X134065214Y-89321351D01*
X134056676Y-89336946D01*
X134011522Y-89457394D01*
X134007895Y-89472649D01*
X134002369Y-89523514D01*
X134002000Y-89530328D01*
X134002000Y-90202885D01*
X130085620Y-90202885D01*
X130025056Y-90155055D01*
X130016469Y-90149350D01*
X129815278Y-90038286D01*
X129805866Y-90034056D01*
X129589232Y-89957341D01*
X129579261Y-89954707D01*
X129481837Y-89937353D01*
X129468540Y-89938813D01*
X129464000Y-89953370D01*
X129464000Y-91147885D01*
X128956000Y-91147885D01*
X128956000Y-89951904D01*
X128952082Y-89938560D01*
X128937806Y-89936573D01*
X128875485Y-89946110D01*
X128865457Y-89948499D01*
X128647012Y-90019898D01*
X128637503Y-90023895D01*
X128433656Y-90130011D01*
X128424931Y-90135505D01*
X128241148Y-90273493D01*
X128233440Y-90280336D01*
X128193606Y-90322020D01*
X128132082Y-90357449D01*
X128061169Y-90353992D01*
X128004801Y-90314518D01*
X127911976Y-90200500D01*
X127911969Y-90200492D01*
X127908948Y-90196782D01*
X127716853Y-90022906D01*
X127500667Y-89880087D01*
X127496327Y-89878086D01*
X127496323Y-89878084D01*
X127269717Y-89773617D01*
X127269714Y-89773616D01*
X127265365Y-89771611D01*
X127260763Y-89770287D01*
X127020956Y-89701297D01*
X127020952Y-89701296D01*
X127016363Y-89699976D01*
X127011628Y-89699365D01*
X127011622Y-89699364D01*
X126764127Y-89667440D01*
X126759390Y-89666829D01*
X126622650Y-89670051D01*
X126505140Y-89672820D01*
X126505135Y-89672821D01*
X126500361Y-89672933D01*
X126372798Y-89695541D01*
X126249939Y-89717314D01*
X126249935Y-89717315D01*
X126245235Y-89718148D01*
X126240708Y-89719685D01*
X126240707Y-89719685D01*
X126195043Y-89735186D01*
X125999883Y-89801434D01*
X125995642Y-89803637D01*
X125949061Y-89827834D01*
X125769953Y-89920873D01*
X125768913Y-89918870D01*
X125709430Y-89935311D01*
X125641637Y-89914226D01*
X125622420Y-89898500D01*
X125555991Y-89832187D01*
X125550811Y-89827016D01*
X125401834Y-89735186D01*
X125299664Y-89701297D01*
X125242259Y-89682256D01*
X125242257Y-89682255D01*
X125235728Y-89680090D01*
X125132366Y-89669500D01*
X123127634Y-89669500D01*
X123124388Y-89669837D01*
X123124384Y-89669837D01*
X123029839Y-89679647D01*
X123029835Y-89679648D01*
X123022981Y-89680359D01*
X123016445Y-89682540D01*
X123016443Y-89682540D01*
X122905106Y-89719685D01*
X122856971Y-89735744D01*
X122708155Y-89827834D01*
X122584516Y-89951689D01*
X122492686Y-90100666D01*
X122490381Y-90107614D01*
X122490381Y-90107615D01*
X122454257Y-90216525D01*
X122437590Y-90266772D01*
X122427000Y-90370134D01*
X122427000Y-92469866D01*
X122427337Y-92473112D01*
X122427337Y-92473116D01*
X122437028Y-92566507D01*
X122437859Y-92574519D01*
X122440040Y-92581055D01*
X122440040Y-92581057D01*
X122474166Y-92683345D01*
X122493244Y-92740529D01*
X122585334Y-92889345D01*
X122709189Y-93012984D01*
X122858166Y-93104814D01*
X122865114Y-93107119D01*
X122865115Y-93107119D01*
X123017741Y-93157744D01*
X123017743Y-93157745D01*
X123024272Y-93159910D01*
X123127634Y-93170500D01*
X124729678Y-93170500D01*
X124797799Y-93190502D01*
X124844292Y-93244158D01*
X124854396Y-93314432D01*
X124824902Y-93379012D01*
X124818777Y-93385592D01*
X124593436Y-93610932D01*
X124371772Y-93832596D01*
X124309460Y-93866621D01*
X124282677Y-93869500D01*
X120222321Y-93869500D01*
X120154200Y-93849498D01*
X120133226Y-93832595D01*
X114404807Y-88104175D01*
X142797000Y-88104175D01*
X142797249Y-88109770D01*
X142811378Y-88268078D01*
X142813360Y-88279092D01*
X142869651Y-88484860D01*
X142873549Y-88495341D01*
X142965397Y-88687903D01*
X142971082Y-88697516D01*
X143095575Y-88870767D01*
X143102883Y-88879233D01*
X143256082Y-89027692D01*
X143264779Y-89034735D01*
X143441844Y-89153719D01*
X143451642Y-89159105D01*
X143646990Y-89244857D01*
X143657582Y-89248422D01*
X143783384Y-89278624D01*
X143797470Y-89277919D01*
X143801000Y-89269040D01*
X143801000Y-89268411D01*
X144309000Y-89268411D01*
X144313105Y-89282393D01*
X144322728Y-89283886D01*
X144322973Y-89283834D01*
X144526883Y-89221102D01*
X144537229Y-89216881D01*
X144726814Y-89119029D01*
X144736245Y-89113043D01*
X144905501Y-88983168D01*
X144913724Y-88975607D01*
X145057312Y-88817806D01*
X145064067Y-88808906D01*
X145177434Y-88628185D01*
X145182511Y-88618219D01*
X145262080Y-88420286D01*
X145265315Y-88409571D01*
X145308777Y-88199699D01*
X145309980Y-88190562D01*
X145312895Y-88140010D01*
X145313000Y-88136363D01*
X145313000Y-88112554D01*
X147554500Y-88112554D01*
X147554712Y-88115127D01*
X147554712Y-88115138D01*
X147569151Y-88290760D01*
X147569152Y-88290766D01*
X147569575Y-88295911D01*
X147629684Y-88535217D01*
X147728072Y-88761493D01*
X147862095Y-88968661D01*
X147865575Y-88972486D01*
X147865577Y-88972488D01*
X147888747Y-88997951D01*
X148028154Y-89151158D01*
X148032205Y-89154357D01*
X148032209Y-89154361D01*
X148217736Y-89300881D01*
X148217741Y-89300884D01*
X148221790Y-89304082D01*
X148226306Y-89306575D01*
X148226309Y-89306577D01*
X148433278Y-89420830D01*
X148433282Y-89420832D01*
X148437802Y-89423327D01*
X148442671Y-89425051D01*
X148442675Y-89425053D01*
X148665515Y-89503965D01*
X148665519Y-89503966D01*
X148670390Y-89505691D01*
X148675483Y-89506598D01*
X148675486Y-89506599D01*
X148908217Y-89548055D01*
X148908223Y-89548056D01*
X148913306Y-89548961D01*
X148992676Y-89549931D01*
X149154858Y-89551912D01*
X149154860Y-89551912D01*
X149160028Y-89551975D01*
X149403930Y-89514653D01*
X149638460Y-89437997D01*
X149857321Y-89324065D01*
X149861454Y-89320962D01*
X149861457Y-89320960D01*
X150050501Y-89179022D01*
X150050504Y-89179020D01*
X150054636Y-89175917D01*
X150158365Y-89067371D01*
X150221533Y-89001269D01*
X150221534Y-89001268D01*
X150225104Y-88997532D01*
X150234903Y-88983168D01*
X150361230Y-88797979D01*
X150364149Y-88793700D01*
X150468035Y-88569896D01*
X150533974Y-88332129D01*
X150548127Y-88199699D01*
X150555144Y-88134043D01*
X150555144Y-88134035D01*
X150555500Y-88130708D01*
X150555500Y-88112554D01*
X152554500Y-88112554D01*
X152554712Y-88115127D01*
X152554712Y-88115138D01*
X152569151Y-88290760D01*
X152569152Y-88290766D01*
X152569575Y-88295911D01*
X152629684Y-88535217D01*
X152728072Y-88761493D01*
X152862095Y-88968661D01*
X152865575Y-88972486D01*
X152865577Y-88972488D01*
X152888747Y-88997951D01*
X153028154Y-89151158D01*
X153032205Y-89154357D01*
X153032209Y-89154361D01*
X153217736Y-89300881D01*
X153217741Y-89300884D01*
X153221790Y-89304082D01*
X153226306Y-89306575D01*
X153226309Y-89306577D01*
X153433278Y-89420830D01*
X153433282Y-89420832D01*
X153437802Y-89423327D01*
X153442671Y-89425051D01*
X153442675Y-89425053D01*
X153665515Y-89503965D01*
X153665519Y-89503966D01*
X153670390Y-89505691D01*
X153675483Y-89506598D01*
X153675486Y-89506599D01*
X153908217Y-89548055D01*
X153908223Y-89548056D01*
X153913306Y-89548961D01*
X153992676Y-89549931D01*
X154154858Y-89551912D01*
X154154860Y-89551912D01*
X154160028Y-89551975D01*
X154403930Y-89514653D01*
X154638460Y-89437997D01*
X154857321Y-89324065D01*
X154861454Y-89320962D01*
X154861457Y-89320960D01*
X155050501Y-89179022D01*
X155050504Y-89179020D01*
X155054636Y-89175917D01*
X155158365Y-89067371D01*
X155221533Y-89001269D01*
X155221534Y-89001268D01*
X155225104Y-88997532D01*
X155234903Y-88983168D01*
X155325835Y-88849866D01*
X157554500Y-88849866D01*
X157554837Y-88853112D01*
X157554837Y-88853116D01*
X157564515Y-88946383D01*
X157565359Y-88954519D01*
X157567540Y-88961055D01*
X157567540Y-88961057D01*
X157603009Y-89067371D01*
X157620744Y-89120529D01*
X157712834Y-89269345D01*
X157836689Y-89392984D01*
X157985666Y-89484814D01*
X157992614Y-89487119D01*
X157992615Y-89487119D01*
X158145241Y-89537744D01*
X158145243Y-89537745D01*
X158151772Y-89539910D01*
X158255134Y-89550500D01*
X159854866Y-89550500D01*
X159858112Y-89550163D01*
X159858116Y-89550163D01*
X159952661Y-89540353D01*
X159952665Y-89540352D01*
X159959519Y-89539641D01*
X159966055Y-89537460D01*
X159966057Y-89537460D01*
X160118581Y-89486574D01*
X160125529Y-89484256D01*
X160274345Y-89392166D01*
X160397984Y-89268311D01*
X160489814Y-89119334D01*
X160502679Y-89080548D01*
X160542744Y-88959759D01*
X160542745Y-88959757D01*
X160544910Y-88953228D01*
X160555500Y-88849866D01*
X160555500Y-85750134D01*
X160555163Y-85746884D01*
X160545353Y-85652339D01*
X160545352Y-85652335D01*
X160544641Y-85645481D01*
X160537924Y-85625346D01*
X160491973Y-85487615D01*
X160489256Y-85479471D01*
X160397166Y-85330655D01*
X160349856Y-85283427D01*
X160278491Y-85212187D01*
X160273311Y-85207016D01*
X160262095Y-85200102D01*
X160200286Y-85162003D01*
X160124334Y-85115186D01*
X160039219Y-85086954D01*
X159964759Y-85062256D01*
X159964757Y-85062255D01*
X159958228Y-85060090D01*
X159854866Y-85049500D01*
X158255134Y-85049500D01*
X158251888Y-85049837D01*
X158251884Y-85049837D01*
X158157339Y-85059647D01*
X158157335Y-85059648D01*
X158150481Y-85060359D01*
X158143945Y-85062540D01*
X158143943Y-85062540D01*
X158048720Y-85094309D01*
X157984471Y-85115744D01*
X157835655Y-85207834D01*
X157712016Y-85331689D01*
X157620186Y-85480666D01*
X157617881Y-85487614D01*
X157617881Y-85487615D01*
X157574147Y-85619468D01*
X157565090Y-85646772D01*
X157554500Y-85750134D01*
X157554500Y-88849866D01*
X155325835Y-88849866D01*
X155361230Y-88797979D01*
X155364149Y-88793700D01*
X155468035Y-88569896D01*
X155533974Y-88332129D01*
X155548127Y-88199699D01*
X155555144Y-88134043D01*
X155555144Y-88134035D01*
X155555500Y-88130708D01*
X155555500Y-86487446D01*
X155555288Y-86484862D01*
X155540849Y-86309240D01*
X155540848Y-86309234D01*
X155540425Y-86304089D01*
X155480316Y-86064783D01*
X155381928Y-85838507D01*
X155247905Y-85631339D01*
X155237104Y-85619468D01*
X155138365Y-85510956D01*
X155081846Y-85448842D01*
X155077795Y-85445643D01*
X155077791Y-85445639D01*
X154892264Y-85299119D01*
X154892259Y-85299116D01*
X154888210Y-85295918D01*
X154883694Y-85293425D01*
X154883691Y-85293423D01*
X154676722Y-85179170D01*
X154676718Y-85179168D01*
X154672198Y-85176673D01*
X154667329Y-85174949D01*
X154667325Y-85174947D01*
X154444485Y-85096035D01*
X154444481Y-85096034D01*
X154439610Y-85094309D01*
X154434517Y-85093402D01*
X154434514Y-85093401D01*
X154201783Y-85051945D01*
X154201777Y-85051944D01*
X154196694Y-85051039D01*
X154117324Y-85050069D01*
X153955142Y-85048088D01*
X153955140Y-85048088D01*
X153949972Y-85048025D01*
X153706070Y-85085347D01*
X153471540Y-85162003D01*
X153433676Y-85181714D01*
X153261197Y-85271501D01*
X153252679Y-85275935D01*
X153248546Y-85279038D01*
X153248543Y-85279040D01*
X153059499Y-85420978D01*
X153055364Y-85424083D01*
X152884896Y-85602468D01*
X152881982Y-85606740D01*
X152881981Y-85606741D01*
X152862238Y-85635683D01*
X152745851Y-85806300D01*
X152730901Y-85838507D01*
X152653725Y-86004770D01*
X152641965Y-86030104D01*
X152576026Y-86267871D01*
X152575477Y-86273008D01*
X152559212Y-86425204D01*
X152554500Y-86469292D01*
X152554500Y-88112554D01*
X150555500Y-88112554D01*
X150555500Y-86487446D01*
X150555288Y-86484862D01*
X150540849Y-86309240D01*
X150540848Y-86309234D01*
X150540425Y-86304089D01*
X150480316Y-86064783D01*
X150381928Y-85838507D01*
X150247905Y-85631339D01*
X150237104Y-85619468D01*
X150138365Y-85510956D01*
X150081846Y-85448842D01*
X150077795Y-85445643D01*
X150077791Y-85445639D01*
X149892264Y-85299119D01*
X149892259Y-85299116D01*
X149888210Y-85295918D01*
X149883694Y-85293425D01*
X149883691Y-85293423D01*
X149676722Y-85179170D01*
X149676718Y-85179168D01*
X149672198Y-85176673D01*
X149667329Y-85174949D01*
X149667325Y-85174947D01*
X149444485Y-85096035D01*
X149444481Y-85096034D01*
X149439610Y-85094309D01*
X149434517Y-85093402D01*
X149434514Y-85093401D01*
X149201783Y-85051945D01*
X149201777Y-85051944D01*
X149196694Y-85051039D01*
X149117324Y-85050069D01*
X148955142Y-85048088D01*
X148955140Y-85048088D01*
X148949972Y-85048025D01*
X148706070Y-85085347D01*
X148471540Y-85162003D01*
X148433676Y-85181714D01*
X148261197Y-85271501D01*
X148252679Y-85275935D01*
X148248546Y-85279038D01*
X148248543Y-85279040D01*
X148059499Y-85420978D01*
X148055364Y-85424083D01*
X147884896Y-85602468D01*
X147881982Y-85606740D01*
X147881981Y-85606741D01*
X147862238Y-85635683D01*
X147745851Y-85806300D01*
X147730901Y-85838507D01*
X147653725Y-86004770D01*
X147641965Y-86030104D01*
X147576026Y-86267871D01*
X147575477Y-86273008D01*
X147559212Y-86425204D01*
X147554500Y-86469292D01*
X147554500Y-88112554D01*
X145313000Y-88112554D01*
X145313000Y-87572115D01*
X145308525Y-87556876D01*
X145307135Y-87555671D01*
X145299452Y-87554000D01*
X144327115Y-87554000D01*
X144311876Y-87558475D01*
X144310671Y-87559865D01*
X144309000Y-87567548D01*
X144309000Y-89268411D01*
X143801000Y-89268411D01*
X143801000Y-87572115D01*
X143796525Y-87556876D01*
X143795135Y-87555671D01*
X143787452Y-87554000D01*
X142815115Y-87554000D01*
X142799876Y-87558475D01*
X142798671Y-87559865D01*
X142797000Y-87567548D01*
X142797000Y-88104175D01*
X114404807Y-88104175D01*
X112299807Y-85999175D01*
X113752000Y-85999175D01*
X113752249Y-86004770D01*
X113766378Y-86163078D01*
X113768360Y-86174092D01*
X113824651Y-86379860D01*
X113828549Y-86390341D01*
X113920397Y-86582903D01*
X113926082Y-86592516D01*
X114050575Y-86765767D01*
X114057883Y-86774233D01*
X114211082Y-86922692D01*
X114219779Y-86929735D01*
X114396844Y-87048719D01*
X114406642Y-87054105D01*
X114601990Y-87139857D01*
X114612582Y-87143422D01*
X114738384Y-87173624D01*
X114752470Y-87172919D01*
X114756000Y-87164040D01*
X114756000Y-87163411D01*
X115264000Y-87163411D01*
X115268105Y-87177393D01*
X115277728Y-87178886D01*
X115277973Y-87178834D01*
X115481883Y-87116102D01*
X115492229Y-87111881D01*
X115681814Y-87014029D01*
X115691245Y-87008043D01*
X115860501Y-86878168D01*
X115868724Y-86870607D01*
X116012312Y-86712806D01*
X116019067Y-86703906D01*
X116132434Y-86523185D01*
X116137511Y-86513219D01*
X116217080Y-86315286D01*
X116220315Y-86304571D01*
X116263777Y-86094699D01*
X116264980Y-86085562D01*
X116267895Y-86035010D01*
X116268000Y-86031363D01*
X116268000Y-85467115D01*
X116263525Y-85451876D01*
X116262135Y-85450671D01*
X116254452Y-85449000D01*
X115282115Y-85449000D01*
X115266876Y-85453475D01*
X115265671Y-85454865D01*
X115264000Y-85462548D01*
X115264000Y-87163411D01*
X114756000Y-87163411D01*
X114756000Y-85467115D01*
X114751525Y-85451876D01*
X114750135Y-85450671D01*
X114742452Y-85449000D01*
X113770115Y-85449000D01*
X113754876Y-85453475D01*
X113753671Y-85454865D01*
X113752000Y-85462548D01*
X113752000Y-85999175D01*
X112299807Y-85999175D01*
X111547405Y-85246773D01*
X111513379Y-85184461D01*
X111510500Y-85157678D01*
X111510500Y-84382446D01*
X111510288Y-84379862D01*
X111495849Y-84204240D01*
X111495848Y-84204234D01*
X111495425Y-84199089D01*
X111435316Y-83959783D01*
X111336928Y-83733507D01*
X111202905Y-83526339D01*
X111195587Y-83518296D01*
X111161922Y-83481299D01*
X111130870Y-83417453D01*
X111139266Y-83346955D01*
X111184443Y-83292187D01*
X111255116Y-83270500D01*
X114102825Y-83270500D01*
X114170946Y-83290502D01*
X114217439Y-83344158D01*
X114227543Y-83414432D01*
X114198049Y-83479012D01*
X114179529Y-83496462D01*
X114159499Y-83511832D01*
X114151276Y-83519393D01*
X114007688Y-83677194D01*
X114000933Y-83686094D01*
X113887566Y-83866815D01*
X113882489Y-83876781D01*
X113802920Y-84074714D01*
X113799685Y-84085429D01*
X113756223Y-84295301D01*
X113755020Y-84304438D01*
X113752105Y-84354990D01*
X113752000Y-84358637D01*
X113752000Y-84922885D01*
X113756475Y-84938124D01*
X113757865Y-84939329D01*
X113765548Y-84941000D01*
X116249885Y-84941000D01*
X116265124Y-84936525D01*
X116266329Y-84935135D01*
X116268000Y-84927452D01*
X116268000Y-84390825D01*
X116267751Y-84385230D01*
X116253622Y-84226922D01*
X116251640Y-84215908D01*
X116195349Y-84010140D01*
X116191451Y-83999659D01*
X116099603Y-83807097D01*
X116093918Y-83797484D01*
X115969425Y-83624233D01*
X115962117Y-83615767D01*
X115829223Y-83486984D01*
X115794223Y-83425214D01*
X115798175Y-83354328D01*
X115839824Y-83296830D01*
X115905946Y-83270978D01*
X115916908Y-83270500D01*
X116022679Y-83270500D01*
X116090800Y-83290502D01*
X116111774Y-83307405D01*
X119531828Y-86727459D01*
X119540929Y-86737601D01*
X119565815Y-86768553D01*
X119605863Y-86802157D01*
X119609475Y-86805309D01*
X119611655Y-86807286D01*
X119613842Y-86809473D01*
X119616225Y-86811430D01*
X119616230Y-86811435D01*
X119648418Y-86837875D01*
X119649433Y-86838718D01*
X119718907Y-86897014D01*
X119718914Y-86897019D01*
X119723630Y-86900976D01*
X119728494Y-86903650D01*
X119732783Y-86907173D01*
X119818230Y-86952989D01*
X119819232Y-86953534D01*
X119898749Y-86997249D01*
X119898756Y-86997252D01*
X119904162Y-87000224D01*
X119909453Y-87001902D01*
X119914344Y-87004525D01*
X119920236Y-87006327D01*
X119920240Y-87006328D01*
X120006963Y-87032842D01*
X120008222Y-87033234D01*
X120036913Y-87042335D01*
X120100532Y-87062516D01*
X120106046Y-87063134D01*
X120111356Y-87064758D01*
X120207827Y-87074558D01*
X120208962Y-87074679D01*
X120239634Y-87078119D01*
X120257366Y-87080108D01*
X120257372Y-87080108D01*
X120260864Y-87080500D01*
X120264390Y-87080500D01*
X120265859Y-87080582D01*
X120271545Y-87081029D01*
X120296084Y-87083522D01*
X120310189Y-87084955D01*
X120310192Y-87084955D01*
X120316315Y-87085577D01*
X120364112Y-87081059D01*
X120375969Y-87080500D01*
X125975868Y-87080500D01*
X125989476Y-87081237D01*
X126022822Y-87084860D01*
X126022826Y-87084860D01*
X126028947Y-87085525D01*
X126046832Y-87083960D01*
X126080972Y-87080974D01*
X126085796Y-87080645D01*
X126088759Y-87080500D01*
X126091841Y-87080500D01*
X126098848Y-87079813D01*
X126136392Y-87076132D01*
X126137705Y-87076010D01*
X126184586Y-87071908D01*
X126234176Y-87067570D01*
X126239505Y-87066022D01*
X126245030Y-87065480D01*
X126337813Y-87037467D01*
X126338968Y-87037125D01*
X126355053Y-87032452D01*
X126370773Y-87027885D01*
X142797000Y-87027885D01*
X142801475Y-87043124D01*
X142802865Y-87044329D01*
X142810548Y-87046000D01*
X143782885Y-87046000D01*
X143798124Y-87041525D01*
X143799329Y-87040135D01*
X143801000Y-87032452D01*
X143801000Y-87027885D01*
X144309000Y-87027885D01*
X144313475Y-87043124D01*
X144314865Y-87044329D01*
X144322548Y-87046000D01*
X145294885Y-87046000D01*
X145310124Y-87041525D01*
X145311329Y-87040135D01*
X145313000Y-87032452D01*
X145313000Y-86495825D01*
X145312751Y-86490230D01*
X145298622Y-86331922D01*
X145296640Y-86320908D01*
X145240349Y-86115140D01*
X145236451Y-86104659D01*
X145144603Y-85912097D01*
X145138918Y-85902484D01*
X145014425Y-85729233D01*
X145007117Y-85720767D01*
X144853918Y-85572308D01*
X144845221Y-85565265D01*
X144668156Y-85446281D01*
X144658358Y-85440895D01*
X144463010Y-85355143D01*
X144452418Y-85351578D01*
X144326616Y-85321376D01*
X144312530Y-85322081D01*
X144309000Y-85330960D01*
X144309000Y-87027885D01*
X143801000Y-87027885D01*
X143801000Y-85331589D01*
X143796895Y-85317607D01*
X143787272Y-85316114D01*
X143787027Y-85316166D01*
X143583117Y-85378898D01*
X143572771Y-85383119D01*
X143383186Y-85480971D01*
X143373755Y-85486957D01*
X143204499Y-85616832D01*
X143196276Y-85624393D01*
X143052688Y-85782194D01*
X143045933Y-85791094D01*
X142932566Y-85971815D01*
X142927489Y-85981781D01*
X142847920Y-86179714D01*
X142844685Y-86190429D01*
X142801223Y-86400301D01*
X142800020Y-86409438D01*
X142797105Y-86459990D01*
X142797000Y-86463637D01*
X142797000Y-87027885D01*
X126370773Y-87027885D01*
X126432010Y-87010094D01*
X126436940Y-87007538D01*
X126442251Y-87005935D01*
X126447700Y-87003038D01*
X126527823Y-86960437D01*
X126528989Y-86959825D01*
X126587037Y-86929735D01*
X126614912Y-86915286D01*
X126619247Y-86911826D01*
X126624151Y-86909218D01*
X126630585Y-86903971D01*
X126699290Y-86847936D01*
X126700317Y-86847108D01*
X126738247Y-86816829D01*
X126738250Y-86816826D01*
X126741000Y-86814631D01*
X126743492Y-86812139D01*
X126744579Y-86811167D01*
X126748928Y-86807452D01*
X126779025Y-86782906D01*
X126779028Y-86782903D01*
X126783800Y-86779011D01*
X126794757Y-86765767D01*
X126814404Y-86742017D01*
X126822394Y-86733237D01*
X127367459Y-86188172D01*
X127377602Y-86179070D01*
X127383794Y-86174092D01*
X127408553Y-86154185D01*
X127442157Y-86114137D01*
X127445309Y-86110525D01*
X127447286Y-86108345D01*
X127449473Y-86106158D01*
X127466391Y-86085562D01*
X127477875Y-86071582D01*
X127478718Y-86070567D01*
X127537014Y-86001093D01*
X127537019Y-86001086D01*
X127540976Y-85996370D01*
X127543650Y-85991506D01*
X127547173Y-85987217D01*
X127592989Y-85901770D01*
X127593534Y-85900768D01*
X127637249Y-85821251D01*
X127637252Y-85821244D01*
X127640224Y-85815838D01*
X127641902Y-85810547D01*
X127644525Y-85805656D01*
X127660502Y-85753400D01*
X127672842Y-85713037D01*
X127673234Y-85711778D01*
X127692089Y-85652339D01*
X127702516Y-85619468D01*
X127703134Y-85613954D01*
X127704758Y-85608644D01*
X127714554Y-85512203D01*
X127714687Y-85510956D01*
X127717306Y-85487615D01*
X127720500Y-85459136D01*
X127720500Y-85455631D01*
X127720584Y-85454130D01*
X127721032Y-85448434D01*
X127724955Y-85409813D01*
X127724955Y-85409807D01*
X127725577Y-85403684D01*
X127721059Y-85355887D01*
X127720500Y-85344030D01*
X127720500Y-85253207D01*
X127740502Y-85185086D01*
X127772170Y-85151467D01*
X127775398Y-85149109D01*
X127775406Y-85149102D01*
X127779265Y-85146283D01*
X127812295Y-85113426D01*
X127959562Y-84966927D01*
X127962957Y-84963550D01*
X127969628Y-84954519D01*
X128000700Y-84912450D01*
X128057261Y-84869538D01*
X128128042Y-84864018D01*
X128195246Y-84902509D01*
X128207047Y-84915479D01*
X128214583Y-84922505D01*
X128394944Y-85064945D01*
X128403531Y-85070650D01*
X128604722Y-85181714D01*
X128614134Y-85185944D01*
X128830768Y-85262659D01*
X128840739Y-85265293D01*
X128938163Y-85282647D01*
X128951460Y-85281187D01*
X128955543Y-85268096D01*
X129464000Y-85268096D01*
X129467918Y-85281440D01*
X129482194Y-85283427D01*
X129544515Y-85273890D01*
X129554543Y-85271501D01*
X129772988Y-85200102D01*
X129782497Y-85196105D01*
X129986344Y-85089989D01*
X129995069Y-85084495D01*
X130178852Y-84946507D01*
X130186559Y-84939664D01*
X130345339Y-84773509D01*
X130351826Y-84765499D01*
X130481330Y-84575653D01*
X130486429Y-84566679D01*
X130583187Y-84358231D01*
X130586750Y-84348544D01*
X130648165Y-84127092D01*
X130650096Y-84116970D01*
X130654901Y-84072013D01*
X130652253Y-84057392D01*
X130639876Y-84054000D01*
X129482115Y-84054000D01*
X129466876Y-84058475D01*
X129465671Y-84059865D01*
X129464000Y-84067548D01*
X129464000Y-85268096D01*
X128955543Y-85268096D01*
X128956000Y-85266630D01*
X128956000Y-83799669D01*
X134147001Y-83799669D01*
X134147371Y-83806490D01*
X134152895Y-83857352D01*
X134156521Y-83872604D01*
X134201676Y-83993054D01*
X134210214Y-84008649D01*
X134286715Y-84110724D01*
X134299276Y-84123285D01*
X134401351Y-84199786D01*
X134416946Y-84208324D01*
X134537394Y-84253478D01*
X134552649Y-84257105D01*
X134603514Y-84262631D01*
X134610328Y-84263000D01*
X135282885Y-84263000D01*
X135298124Y-84258525D01*
X135299329Y-84257135D01*
X135301000Y-84249452D01*
X135301000Y-84244884D01*
X135809000Y-84244884D01*
X135813475Y-84260123D01*
X135814865Y-84261328D01*
X135822548Y-84262999D01*
X136499669Y-84262999D01*
X136506490Y-84262629D01*
X136557352Y-84257105D01*
X136572604Y-84253479D01*
X136693054Y-84208324D01*
X136708649Y-84199786D01*
X136810721Y-84123288D01*
X136829637Y-84104372D01*
X136831310Y-84106045D01*
X136877901Y-84071212D01*
X136948720Y-84066193D01*
X137003690Y-84093485D01*
X137121860Y-84194412D01*
X137343372Y-84330154D01*
X137347942Y-84332047D01*
X137347946Y-84332049D01*
X137489844Y-84390825D01*
X137583390Y-84429573D01*
X137671724Y-84450780D01*
X137831193Y-84489066D01*
X137831199Y-84489067D01*
X137836006Y-84490221D01*
X138095000Y-84510604D01*
X138353994Y-84490221D01*
X138358801Y-84489067D01*
X138358807Y-84489066D01*
X138518276Y-84450780D01*
X138606610Y-84429573D01*
X138700156Y-84390825D01*
X138842054Y-84332049D01*
X138842058Y-84332047D01*
X138846628Y-84330154D01*
X139068140Y-84194412D01*
X139265689Y-84025689D01*
X139434412Y-83828140D01*
X139570154Y-83606628D01*
X139595960Y-83544329D01*
X139667679Y-83371183D01*
X139667680Y-83371181D01*
X139669573Y-83366610D01*
X139727071Y-83127115D01*
X139729066Y-83118807D01*
X139729067Y-83118801D01*
X139730221Y-83113994D01*
X139750604Y-82855000D01*
X139730221Y-82596006D01*
X139729067Y-82591199D01*
X139729066Y-82591193D01*
X139684099Y-82403895D01*
X139669573Y-82343390D01*
X139667307Y-82337920D01*
X139572049Y-82107946D01*
X139572047Y-82107942D01*
X139570154Y-82103372D01*
X139434412Y-81881860D01*
X139265689Y-81684311D01*
X139068140Y-81515588D01*
X138846628Y-81379846D01*
X138842058Y-81377953D01*
X138842054Y-81377951D01*
X138611183Y-81282321D01*
X138611181Y-81282320D01*
X138606610Y-81280427D01*
X138491332Y-81252751D01*
X138358807Y-81220934D01*
X138358801Y-81220933D01*
X138353994Y-81219779D01*
X138095000Y-81199396D01*
X137836006Y-81219779D01*
X137831199Y-81220933D01*
X137831193Y-81220934D01*
X137698668Y-81252751D01*
X137583390Y-81280427D01*
X137578819Y-81282320D01*
X137578817Y-81282321D01*
X137347946Y-81377951D01*
X137347942Y-81377953D01*
X137343372Y-81379846D01*
X137121860Y-81515588D01*
X137083905Y-81548005D01*
X137003690Y-81616515D01*
X136938900Y-81645546D01*
X136868700Y-81634941D01*
X136830949Y-81604316D01*
X136829637Y-81605628D01*
X136810721Y-81586712D01*
X136708649Y-81510214D01*
X136693054Y-81501676D01*
X136572606Y-81456522D01*
X136557351Y-81452895D01*
X136506486Y-81447369D01*
X136499672Y-81447000D01*
X135827115Y-81447000D01*
X135811876Y-81451475D01*
X135810671Y-81452865D01*
X135809000Y-81460548D01*
X135809000Y-84244884D01*
X135301000Y-84244884D01*
X135301000Y-83127115D01*
X135296525Y-83111876D01*
X135295135Y-83110671D01*
X135287452Y-83109000D01*
X134165116Y-83109000D01*
X134149877Y-83113475D01*
X134148672Y-83114865D01*
X134147001Y-83122548D01*
X134147001Y-83799669D01*
X128956000Y-83799669D01*
X128956000Y-83527885D01*
X129464000Y-83527885D01*
X129468475Y-83543124D01*
X129469865Y-83544329D01*
X129477548Y-83546000D01*
X130640412Y-83546000D01*
X130655141Y-83541675D01*
X130657202Y-83529889D01*
X130656249Y-83518296D01*
X130654567Y-83508134D01*
X130598578Y-83285229D01*
X130595259Y-83275481D01*
X130503615Y-83064711D01*
X130498749Y-83055636D01*
X130373915Y-82862673D01*
X130367622Y-82854502D01*
X130212950Y-82684520D01*
X130205417Y-82677494D01*
X130085620Y-82582885D01*
X134147000Y-82582885D01*
X134151475Y-82598124D01*
X134152865Y-82599329D01*
X134160548Y-82601000D01*
X135282885Y-82601000D01*
X135298124Y-82596525D01*
X135299329Y-82595135D01*
X135301000Y-82587452D01*
X135301000Y-81465116D01*
X135296525Y-81449877D01*
X135295135Y-81448672D01*
X135287452Y-81447001D01*
X134610331Y-81447001D01*
X134603510Y-81447371D01*
X134552648Y-81452895D01*
X134537396Y-81456521D01*
X134416946Y-81501676D01*
X134401351Y-81510214D01*
X134299276Y-81586715D01*
X134286715Y-81599276D01*
X134210214Y-81701351D01*
X134201676Y-81716946D01*
X134156522Y-81837394D01*
X134152895Y-81852649D01*
X134147369Y-81903514D01*
X134147000Y-81910328D01*
X134147000Y-82582885D01*
X130085620Y-82582885D01*
X130025056Y-82535055D01*
X130016469Y-82529350D01*
X129815278Y-82418286D01*
X129805866Y-82414056D01*
X129589232Y-82337341D01*
X129579261Y-82334707D01*
X129481837Y-82317353D01*
X129468540Y-82318813D01*
X129464000Y-82333370D01*
X129464000Y-83527885D01*
X128956000Y-83527885D01*
X128956000Y-82331904D01*
X128952082Y-82318560D01*
X128937806Y-82316573D01*
X128875485Y-82326110D01*
X128865457Y-82328499D01*
X128647012Y-82399898D01*
X128637503Y-82403895D01*
X128433656Y-82510011D01*
X128424931Y-82515505D01*
X128241148Y-82653493D01*
X128233440Y-82660336D01*
X128193606Y-82702020D01*
X128132082Y-82737449D01*
X128061169Y-82733992D01*
X128004801Y-82694518D01*
X127911976Y-82580500D01*
X127911969Y-82580492D01*
X127908948Y-82576782D01*
X127716853Y-82402906D01*
X127500667Y-82260087D01*
X127496327Y-82258086D01*
X127496323Y-82258084D01*
X127269717Y-82153617D01*
X127269714Y-82153616D01*
X127265365Y-82151611D01*
X127254482Y-82148480D01*
X127020956Y-82081297D01*
X127020952Y-82081296D01*
X127016363Y-82079976D01*
X127011628Y-82079365D01*
X127011622Y-82079364D01*
X126764127Y-82047440D01*
X126759390Y-82046829D01*
X126622650Y-82050051D01*
X126505140Y-82052820D01*
X126505135Y-82052821D01*
X126500361Y-82052933D01*
X126372798Y-82075541D01*
X126249939Y-82097314D01*
X126249935Y-82097315D01*
X126245235Y-82098148D01*
X126240708Y-82099685D01*
X126240707Y-82099685D01*
X126195043Y-82115186D01*
X125999883Y-82181434D01*
X125995642Y-82183637D01*
X125949061Y-82207834D01*
X125769953Y-82300873D01*
X125768913Y-82298870D01*
X125709430Y-82315311D01*
X125641637Y-82294226D01*
X125622420Y-82278500D01*
X125555991Y-82212187D01*
X125550811Y-82207016D01*
X125401834Y-82115186D01*
X125380007Y-82107946D01*
X125242259Y-82062256D01*
X125242257Y-82062255D01*
X125235728Y-82060090D01*
X125132366Y-82049500D01*
X123127634Y-82049500D01*
X123124388Y-82049837D01*
X123124384Y-82049837D01*
X123029839Y-82059647D01*
X123029835Y-82059648D01*
X123022981Y-82060359D01*
X123016445Y-82062540D01*
X123016443Y-82062540D01*
X122905106Y-82099685D01*
X122856971Y-82115744D01*
X122708155Y-82207834D01*
X122584516Y-82331689D01*
X122492686Y-82480666D01*
X122490381Y-82487614D01*
X122490381Y-82487615D01*
X122454257Y-82596525D01*
X122437590Y-82646772D01*
X122427000Y-82750134D01*
X122427000Y-84849866D01*
X122426335Y-84849866D01*
X122410564Y-84916053D01*
X122359382Y-84965256D01*
X122301188Y-84979500D01*
X120807321Y-84979500D01*
X120739200Y-84959498D01*
X120718226Y-84942595D01*
X119017367Y-83241735D01*
X117298168Y-81522536D01*
X117289066Y-81512393D01*
X117268050Y-81486254D01*
X117268049Y-81486253D01*
X117264185Y-81481447D01*
X117224180Y-81447879D01*
X117220548Y-81444710D01*
X117218338Y-81442706D01*
X117216159Y-81440527D01*
X117181502Y-81412060D01*
X117180614Y-81411323D01*
X117106370Y-81349024D01*
X117101506Y-81346350D01*
X117097217Y-81342827D01*
X117011770Y-81297011D01*
X117010768Y-81296466D01*
X116931251Y-81252751D01*
X116931244Y-81252748D01*
X116925838Y-81249776D01*
X116920547Y-81248098D01*
X116915656Y-81245475D01*
X116909764Y-81243673D01*
X116909760Y-81243672D01*
X116823037Y-81217158D01*
X116821778Y-81216766D01*
X116786393Y-81205542D01*
X116729468Y-81187484D01*
X116723954Y-81186866D01*
X116718644Y-81185242D01*
X116622173Y-81175442D01*
X116621038Y-81175321D01*
X116590366Y-81171881D01*
X116572634Y-81169892D01*
X116572628Y-81169892D01*
X116569136Y-81169500D01*
X116565610Y-81169500D01*
X116564141Y-81169418D01*
X116558455Y-81168971D01*
X116533916Y-81166478D01*
X116519811Y-81165045D01*
X116519808Y-81165045D01*
X116513685Y-81164423D01*
X116469846Y-81168567D01*
X116465890Y-81168941D01*
X116454032Y-81169500D01*
X107682089Y-81169500D01*
X107668919Y-81168810D01*
X107633498Y-81165087D01*
X107633496Y-81165087D01*
X107627369Y-81164443D01*
X107575054Y-81169204D01*
X107570817Y-81169500D01*
X107568159Y-81169500D01*
X107521456Y-81174079D01*
X107520581Y-81174161D01*
X107428344Y-81182555D01*
X107428343Y-81182555D01*
X107422203Y-81183114D01*
X107418653Y-81184159D01*
X107414970Y-81184520D01*
X107409075Y-81186300D01*
X107409069Y-81186301D01*
X107320388Y-81213076D01*
X107319545Y-81213328D01*
X107230479Y-81239541D01*
X107230475Y-81239543D01*
X107224572Y-81241280D01*
X107221290Y-81242996D01*
X107217749Y-81244065D01*
X107130361Y-81290530D01*
X107129713Y-81290871D01*
X107047460Y-81333872D01*
X107047455Y-81333875D01*
X107042002Y-81336726D01*
X107039121Y-81339042D01*
X107035849Y-81340782D01*
X107031071Y-81344679D01*
X106959150Y-81403336D01*
X106958466Y-81403890D01*
X106886246Y-81461956D01*
X106886243Y-81461959D01*
X106881447Y-81465815D01*
X106879069Y-81468649D01*
X106876200Y-81470989D01*
X106872278Y-81475730D01*
X106813045Y-81547330D01*
X106812631Y-81547827D01*
X106749024Y-81623630D01*
X106747241Y-81626874D01*
X106744882Y-81629725D01*
X106706154Y-81701351D01*
X106697813Y-81716777D01*
X106697477Y-81717394D01*
X106649776Y-81804162D01*
X106648657Y-81807690D01*
X106646897Y-81810945D01*
X106626109Y-81878101D01*
X106617656Y-81905407D01*
X106617400Y-81906223D01*
X106587484Y-82000532D01*
X106587071Y-82004211D01*
X106585977Y-82007746D01*
X106581805Y-82047440D01*
X106575884Y-82103776D01*
X106548871Y-82169432D01*
X106539669Y-82179700D01*
X105811774Y-82907595D01*
X105749462Y-82941621D01*
X105722679Y-82944500D01*
X104210134Y-82944500D01*
X104206888Y-82944837D01*
X104206884Y-82944837D01*
X104112339Y-82954647D01*
X104112335Y-82954648D01*
X104105481Y-82955359D01*
X104098945Y-82957540D01*
X104098943Y-82957540D01*
X103968441Y-83001079D01*
X103939471Y-83010744D01*
X103790655Y-83102834D01*
X103667016Y-83226689D01*
X103663176Y-83232919D01*
X103663175Y-83232920D01*
X103642379Y-83266658D01*
X103575186Y-83375666D01*
X103572881Y-83382614D01*
X103572881Y-83382615D01*
X103561326Y-83417453D01*
X103520090Y-83541772D01*
X103509500Y-83645134D01*
X103509500Y-86744866D01*
X100750500Y-86744866D01*
X100750500Y-77104440D01*
X126434963Y-77104440D01*
X126435260Y-77109592D01*
X126435260Y-77109596D01*
X126448396Y-77337403D01*
X126448397Y-77337409D01*
X126448694Y-77342562D01*
X126501131Y-77575245D01*
X126503075Y-77580032D01*
X126503076Y-77580036D01*
X126541960Y-77675795D01*
X126590867Y-77796239D01*
X126715493Y-77999609D01*
X126871660Y-78179894D01*
X127055176Y-78332252D01*
X127261112Y-78452591D01*
X127483937Y-78537680D01*
X127489005Y-78538711D01*
X127489008Y-78538712D01*
X127604267Y-78562162D01*
X127717666Y-78585233D01*
X127722839Y-78585423D01*
X127722842Y-78585423D01*
X127950861Y-78593784D01*
X127950865Y-78593784D01*
X127956025Y-78593973D01*
X127961146Y-78593317D01*
X128187489Y-78564321D01*
X128187490Y-78564321D01*
X128192609Y-78563665D01*
X128421068Y-78495125D01*
X128635264Y-78390191D01*
X128716492Y-78332252D01*
X128825242Y-78254681D01*
X128829445Y-78251683D01*
X128998397Y-78083320D01*
X129137582Y-77889623D01*
X129186106Y-77791444D01*
X129240969Y-77680437D01*
X129240970Y-77680435D01*
X129243263Y-77675795D01*
X129312600Y-77447577D01*
X129313275Y-77442451D01*
X129343296Y-77214421D01*
X129343297Y-77214414D01*
X129343733Y-77211099D01*
X129345471Y-77140000D01*
X129342548Y-77104440D01*
X131514963Y-77104440D01*
X131515260Y-77109592D01*
X131515260Y-77109596D01*
X131528396Y-77337403D01*
X131528397Y-77337409D01*
X131528694Y-77342562D01*
X131581131Y-77575245D01*
X131583075Y-77580032D01*
X131583076Y-77580036D01*
X131621960Y-77675795D01*
X131670867Y-77796239D01*
X131795493Y-77999609D01*
X131951660Y-78179894D01*
X132135176Y-78332252D01*
X132341112Y-78452591D01*
X132563937Y-78537680D01*
X132569005Y-78538711D01*
X132569008Y-78538712D01*
X132684267Y-78562162D01*
X132797666Y-78585233D01*
X132802839Y-78585423D01*
X132802842Y-78585423D01*
X133030861Y-78593784D01*
X133030865Y-78593784D01*
X133036025Y-78593973D01*
X133041146Y-78593317D01*
X133267489Y-78564321D01*
X133267490Y-78564321D01*
X133272609Y-78563665D01*
X133501068Y-78495125D01*
X133715264Y-78390191D01*
X133796492Y-78332252D01*
X133905242Y-78254681D01*
X133909445Y-78251683D01*
X134078397Y-78083320D01*
X134217582Y-77889623D01*
X134266106Y-77791444D01*
X134320969Y-77680437D01*
X134320970Y-77680435D01*
X134323263Y-77675795D01*
X134392600Y-77447577D01*
X134393275Y-77442451D01*
X134423296Y-77214421D01*
X134423297Y-77214414D01*
X134423733Y-77211099D01*
X134425471Y-77140000D01*
X134422548Y-77104440D01*
X135374963Y-77104440D01*
X135375260Y-77109592D01*
X135375260Y-77109596D01*
X135388396Y-77337403D01*
X135388397Y-77337409D01*
X135388694Y-77342562D01*
X135441131Y-77575245D01*
X135443075Y-77580032D01*
X135443076Y-77580036D01*
X135481960Y-77675795D01*
X135530867Y-77796239D01*
X135655493Y-77999609D01*
X135811660Y-78179894D01*
X135995176Y-78332252D01*
X136201112Y-78452591D01*
X136423937Y-78537680D01*
X136429005Y-78538711D01*
X136429008Y-78538712D01*
X136544267Y-78562162D01*
X136657666Y-78585233D01*
X136662839Y-78585423D01*
X136662842Y-78585423D01*
X136890861Y-78593784D01*
X136890865Y-78593784D01*
X136896025Y-78593973D01*
X136901146Y-78593317D01*
X137127489Y-78564321D01*
X137127490Y-78564321D01*
X137132609Y-78563665D01*
X137361068Y-78495125D01*
X137575264Y-78390191D01*
X137656492Y-78332252D01*
X137765242Y-78254681D01*
X137769445Y-78251683D01*
X137938397Y-78083320D01*
X138077582Y-77889623D01*
X138126106Y-77791444D01*
X138180969Y-77680437D01*
X138180970Y-77680435D01*
X138183263Y-77675795D01*
X138252600Y-77447577D01*
X138253275Y-77442451D01*
X138283296Y-77214421D01*
X138283297Y-77214414D01*
X138283733Y-77211099D01*
X138285471Y-77140000D01*
X138277755Y-77046143D01*
X138266351Y-76907435D01*
X138266350Y-76907429D01*
X138265927Y-76902284D01*
X138207821Y-76670952D01*
X138195415Y-76642420D01*
X138114772Y-76456953D01*
X138114770Y-76456950D01*
X138112712Y-76452216D01*
X137983155Y-76251951D01*
X137976705Y-76244862D01*
X137826107Y-76079358D01*
X137826105Y-76079357D01*
X137822629Y-76075536D01*
X137818578Y-76072337D01*
X137818574Y-76072333D01*
X137639500Y-75930909D01*
X137639496Y-75930907D01*
X137635445Y-75927707D01*
X137609735Y-75913514D01*
X137579682Y-75896924D01*
X137426631Y-75812436D01*
X137421762Y-75810712D01*
X137421758Y-75810710D01*
X137206663Y-75734541D01*
X137206661Y-75734540D01*
X137201794Y-75732817D01*
X137052589Y-75706239D01*
X136972060Y-75691894D01*
X136972056Y-75691894D01*
X136966972Y-75690988D01*
X136883140Y-75689964D01*
X136733640Y-75688137D01*
X136733638Y-75688137D01*
X136728471Y-75688074D01*
X136492698Y-75724153D01*
X136265982Y-75798255D01*
X136261394Y-75800643D01*
X136261390Y-75800645D01*
X136060540Y-75905201D01*
X136054414Y-75908390D01*
X136050281Y-75911493D01*
X136050278Y-75911495D01*
X135936440Y-75996968D01*
X135863675Y-76051602D01*
X135698887Y-76224042D01*
X135695973Y-76228314D01*
X135695972Y-76228315D01*
X135645390Y-76302465D01*
X135564475Y-76421082D01*
X135464051Y-76637428D01*
X135400309Y-76867272D01*
X135374963Y-77104440D01*
X134422548Y-77104440D01*
X134417755Y-77046143D01*
X134406351Y-76907435D01*
X134406350Y-76907429D01*
X134405927Y-76902284D01*
X134347821Y-76670952D01*
X134335415Y-76642420D01*
X134254772Y-76456953D01*
X134254770Y-76456950D01*
X134252712Y-76452216D01*
X134123155Y-76251951D01*
X134116705Y-76244862D01*
X133966107Y-76079358D01*
X133966105Y-76079357D01*
X133962629Y-76075536D01*
X133958578Y-76072337D01*
X133958574Y-76072333D01*
X133779500Y-75930909D01*
X133779496Y-75930907D01*
X133775445Y-75927707D01*
X133749735Y-75913514D01*
X133719682Y-75896924D01*
X133566631Y-75812436D01*
X133561762Y-75810712D01*
X133561758Y-75810710D01*
X133346663Y-75734541D01*
X133346661Y-75734540D01*
X133341794Y-75732817D01*
X133192589Y-75706239D01*
X133112060Y-75691894D01*
X133112056Y-75691894D01*
X133106972Y-75690988D01*
X133023140Y-75689964D01*
X132873640Y-75688137D01*
X132873638Y-75688137D01*
X132868471Y-75688074D01*
X132632698Y-75724153D01*
X132405982Y-75798255D01*
X132401394Y-75800643D01*
X132401390Y-75800645D01*
X132200540Y-75905201D01*
X132194414Y-75908390D01*
X132190281Y-75911493D01*
X132190278Y-75911495D01*
X132076440Y-75996968D01*
X132003675Y-76051602D01*
X131838887Y-76224042D01*
X131835973Y-76228314D01*
X131835972Y-76228315D01*
X131785390Y-76302465D01*
X131704475Y-76421082D01*
X131604051Y-76637428D01*
X131540309Y-76867272D01*
X131514963Y-77104440D01*
X129342548Y-77104440D01*
X129337755Y-77046143D01*
X129326351Y-76907435D01*
X129326350Y-76907429D01*
X129325927Y-76902284D01*
X129267821Y-76670952D01*
X129255415Y-76642420D01*
X129174772Y-76456953D01*
X129174770Y-76456950D01*
X129172712Y-76452216D01*
X129043155Y-76251951D01*
X129036705Y-76244862D01*
X128886107Y-76079358D01*
X128886105Y-76079357D01*
X128882629Y-76075536D01*
X128878578Y-76072337D01*
X128878574Y-76072333D01*
X128699500Y-75930909D01*
X128699496Y-75930907D01*
X128695445Y-75927707D01*
X128669735Y-75913514D01*
X128639682Y-75896924D01*
X128486631Y-75812436D01*
X128481762Y-75810712D01*
X128481758Y-75810710D01*
X128266663Y-75734541D01*
X128266661Y-75734540D01*
X128261794Y-75732817D01*
X128112589Y-75706239D01*
X128032060Y-75691894D01*
X128032056Y-75691894D01*
X128026972Y-75690988D01*
X127943140Y-75689964D01*
X127793640Y-75688137D01*
X127793638Y-75688137D01*
X127788471Y-75688074D01*
X127552698Y-75724153D01*
X127325982Y-75798255D01*
X127321394Y-75800643D01*
X127321390Y-75800645D01*
X127120540Y-75905201D01*
X127114414Y-75908390D01*
X127110281Y-75911493D01*
X127110278Y-75911495D01*
X126996440Y-75996968D01*
X126923675Y-76051602D01*
X126758887Y-76224042D01*
X126755973Y-76228314D01*
X126755972Y-76228315D01*
X126705390Y-76302465D01*
X126624475Y-76421082D01*
X126524051Y-76637428D01*
X126460309Y-76867272D01*
X126434963Y-77104440D01*
X100750500Y-77104440D01*
X100750500Y-75014440D01*
X138549963Y-75014440D01*
X138550260Y-75019592D01*
X138550260Y-75019596D01*
X138563396Y-75247403D01*
X138563397Y-75247409D01*
X138563694Y-75252562D01*
X138616131Y-75485245D01*
X138618075Y-75490032D01*
X138618076Y-75490036D01*
X138656960Y-75585795D01*
X138705867Y-75706239D01*
X138708572Y-75710654D01*
X138708573Y-75710655D01*
X138753064Y-75783257D01*
X138830493Y-75909609D01*
X138986660Y-76089894D01*
X139170176Y-76242252D01*
X139376112Y-76362591D01*
X139598937Y-76447680D01*
X139604005Y-76448711D01*
X139604008Y-76448712D01*
X139719267Y-76472162D01*
X139832666Y-76495233D01*
X139837839Y-76495423D01*
X139837842Y-76495423D01*
X140065861Y-76503784D01*
X140065865Y-76503784D01*
X140071025Y-76503973D01*
X140076146Y-76503317D01*
X140302489Y-76474321D01*
X140302490Y-76474321D01*
X140307609Y-76473665D01*
X140536068Y-76405125D01*
X140750264Y-76300191D01*
X140831492Y-76242252D01*
X140940242Y-76164681D01*
X140944445Y-76161683D01*
X141113397Y-75993320D01*
X141252582Y-75799623D01*
X141290269Y-75723371D01*
X141355969Y-75590437D01*
X141355970Y-75590435D01*
X141358263Y-75585795D01*
X141427600Y-75357577D01*
X141428275Y-75352451D01*
X141458296Y-75124421D01*
X141458297Y-75124414D01*
X141458733Y-75121099D01*
X141460471Y-75050000D01*
X141452755Y-74956143D01*
X141441351Y-74817435D01*
X141441350Y-74817429D01*
X141440927Y-74812284D01*
X141382821Y-74580952D01*
X141370415Y-74552420D01*
X141289772Y-74366953D01*
X141289770Y-74366950D01*
X141287712Y-74362216D01*
X141158155Y-74161951D01*
X141129360Y-74130305D01*
X141001107Y-73989358D01*
X141001105Y-73989357D01*
X140997629Y-73985536D01*
X140993578Y-73982337D01*
X140993574Y-73982333D01*
X140814500Y-73840909D01*
X140814496Y-73840907D01*
X140810445Y-73837707D01*
X140783831Y-73823015D01*
X140713430Y-73784152D01*
X140601631Y-73722436D01*
X140596762Y-73720712D01*
X140596758Y-73720710D01*
X140381663Y-73644541D01*
X140381661Y-73644540D01*
X140376794Y-73642817D01*
X140259383Y-73621902D01*
X140147060Y-73601894D01*
X140147056Y-73601894D01*
X140141972Y-73600988D01*
X140058140Y-73599964D01*
X139908640Y-73598137D01*
X139908638Y-73598137D01*
X139903471Y-73598074D01*
X139667698Y-73634153D01*
X139440982Y-73708255D01*
X139436394Y-73710643D01*
X139436390Y-73710645D01*
X139272386Y-73796020D01*
X139229414Y-73818390D01*
X139225281Y-73821493D01*
X139225278Y-73821495D01*
X139043985Y-73957615D01*
X139038675Y-73961602D01*
X139035103Y-73965340D01*
X138892440Y-74114628D01*
X138873887Y-74134042D01*
X138739475Y-74331082D01*
X138639051Y-74547428D01*
X138575309Y-74777272D01*
X138549963Y-75014440D01*
X100750500Y-75014440D01*
X100750500Y-71389440D01*
X126474963Y-71389440D01*
X126475260Y-71394592D01*
X126475260Y-71394596D01*
X126488396Y-71622403D01*
X126488397Y-71622409D01*
X126488694Y-71627562D01*
X126541131Y-71860245D01*
X126543075Y-71865032D01*
X126543076Y-71865036D01*
X126581960Y-71960795D01*
X126630867Y-72081239D01*
X126755493Y-72284609D01*
X126911660Y-72464894D01*
X127095176Y-72617252D01*
X127301112Y-72737591D01*
X127523937Y-72822680D01*
X127529005Y-72823711D01*
X127529008Y-72823712D01*
X127644267Y-72847162D01*
X127757666Y-72870233D01*
X127762839Y-72870423D01*
X127762842Y-72870423D01*
X127990861Y-72878784D01*
X127990865Y-72878784D01*
X127996025Y-72878973D01*
X128001146Y-72878317D01*
X128227489Y-72849321D01*
X128227490Y-72849321D01*
X128232609Y-72848665D01*
X128461068Y-72780125D01*
X128675264Y-72675191D01*
X128756492Y-72617252D01*
X128865242Y-72539681D01*
X128869445Y-72536683D01*
X129038397Y-72368320D01*
X129177582Y-72174623D01*
X129226106Y-72076444D01*
X129280969Y-71965437D01*
X129280970Y-71965435D01*
X129283263Y-71960795D01*
X129352600Y-71732577D01*
X129353275Y-71727451D01*
X129383296Y-71499421D01*
X129383297Y-71499414D01*
X129383733Y-71496099D01*
X129385471Y-71425000D01*
X129382548Y-71389440D01*
X131554963Y-71389440D01*
X131555260Y-71394592D01*
X131555260Y-71394596D01*
X131568396Y-71622403D01*
X131568397Y-71622409D01*
X131568694Y-71627562D01*
X131621131Y-71860245D01*
X131623075Y-71865032D01*
X131623076Y-71865036D01*
X131661960Y-71960795D01*
X131710867Y-72081239D01*
X131835493Y-72284609D01*
X131991660Y-72464894D01*
X132175176Y-72617252D01*
X132381112Y-72737591D01*
X132603937Y-72822680D01*
X132609005Y-72823711D01*
X132609008Y-72823712D01*
X132724267Y-72847162D01*
X132837666Y-72870233D01*
X132842841Y-72870423D01*
X132842843Y-72870423D01*
X133071956Y-72878824D01*
X133139298Y-72901308D01*
X133156434Y-72915644D01*
X134061979Y-73821189D01*
X134064431Y-73823710D01*
X134120721Y-73883235D01*
X134125950Y-73886896D01*
X134125953Y-73886899D01*
X134167478Y-73915975D01*
X134174842Y-73921544D01*
X134181531Y-73926999D01*
X134219070Y-73957615D01*
X134242947Y-73970098D01*
X134256829Y-73978538D01*
X134278898Y-73993991D01*
X134331277Y-74016658D01*
X134339606Y-74020631D01*
X134384542Y-74044123D01*
X134384545Y-74044124D01*
X134390195Y-74047078D01*
X134396316Y-74048833D01*
X134396323Y-74048836D01*
X134416098Y-74054506D01*
X134431407Y-74059988D01*
X134450254Y-74068144D01*
X134450256Y-74068145D01*
X134456115Y-74070680D01*
X134462365Y-74071986D01*
X134462366Y-74071986D01*
X134511974Y-74082350D01*
X134520936Y-74084568D01*
X134569677Y-74098544D01*
X134569681Y-74098545D01*
X134575813Y-74100303D01*
X134602682Y-74102371D01*
X134618772Y-74104661D01*
X134632892Y-74107611D01*
X134640388Y-74109177D01*
X134640391Y-74109177D01*
X134645133Y-74110168D01*
X134651468Y-74110500D01*
X134703494Y-74110500D01*
X134713160Y-74110871D01*
X134761983Y-74114628D01*
X134761987Y-74114628D01*
X134768343Y-74115117D01*
X134797037Y-74111492D01*
X134812815Y-74110500D01*
X137270203Y-74110500D01*
X137273721Y-74110549D01*
X137349224Y-74112658D01*
X137349227Y-74112658D01*
X137355607Y-74112836D01*
X137411826Y-74102923D01*
X137420957Y-74101657D01*
X137477745Y-74095888D01*
X137498780Y-74089296D01*
X137503446Y-74087834D01*
X137519242Y-74083984D01*
X137539482Y-74080415D01*
X137539491Y-74080413D01*
X137545772Y-74079305D01*
X137564258Y-74071986D01*
X137598841Y-74058294D01*
X137607544Y-74055212D01*
X137609797Y-74054506D01*
X137662008Y-74038144D01*
X137685574Y-74025081D01*
X137700264Y-74018138D01*
X137725310Y-74008221D01*
X137773066Y-73976970D01*
X137780971Y-73972202D01*
X137825307Y-73947626D01*
X137830896Y-73944528D01*
X137851347Y-73926999D01*
X137864353Y-73917234D01*
X137882833Y-73905141D01*
X137886889Y-73902487D01*
X137891603Y-73898242D01*
X137928388Y-73861457D01*
X137935485Y-73854884D01*
X137972667Y-73823015D01*
X137977510Y-73818864D01*
X137995235Y-73796014D01*
X138005693Y-73784152D01*
X140411678Y-71378167D01*
X140464567Y-71346576D01*
X140531114Y-71326612D01*
X140531122Y-71326609D01*
X140536068Y-71325125D01*
X140750264Y-71220191D01*
X140789177Y-71192435D01*
X140940242Y-71084681D01*
X140944445Y-71081683D01*
X141113397Y-70913320D01*
X141252582Y-70719623D01*
X141259275Y-70706082D01*
X141355969Y-70510437D01*
X141355970Y-70510435D01*
X141358263Y-70505795D01*
X141427600Y-70277577D01*
X141435719Y-70215909D01*
X141458296Y-70044421D01*
X141458297Y-70044414D01*
X141458733Y-70041099D01*
X141459533Y-70008371D01*
X141460389Y-69973364D01*
X141460389Y-69973360D01*
X141460471Y-69970000D01*
X141452755Y-69876143D01*
X141441351Y-69737435D01*
X141441350Y-69737429D01*
X141440927Y-69732284D01*
X141382821Y-69500952D01*
X141370415Y-69472420D01*
X141289772Y-69286953D01*
X141289770Y-69286950D01*
X141287712Y-69282216D01*
X141158155Y-69081951D01*
X141129360Y-69050305D01*
X141001107Y-68909358D01*
X141001105Y-68909357D01*
X140997629Y-68905536D01*
X140993578Y-68902337D01*
X140993574Y-68902333D01*
X140814500Y-68760909D01*
X140814496Y-68760907D01*
X140810445Y-68757707D01*
X140771125Y-68736001D01*
X140754682Y-68726924D01*
X140601631Y-68642436D01*
X140596762Y-68640712D01*
X140596758Y-68640710D01*
X140381663Y-68564541D01*
X140381661Y-68564540D01*
X140376794Y-68562817D01*
X140259383Y-68541902D01*
X140147060Y-68521894D01*
X140147056Y-68521894D01*
X140141972Y-68520988D01*
X140058140Y-68519964D01*
X139908640Y-68518137D01*
X139908638Y-68518137D01*
X139903471Y-68518074D01*
X139667698Y-68554153D01*
X139440982Y-68628255D01*
X139436394Y-68630643D01*
X139436390Y-68630645D01*
X139234003Y-68736001D01*
X139229414Y-68738390D01*
X139225281Y-68741493D01*
X139225278Y-68741495D01*
X139042810Y-68878497D01*
X139038675Y-68881602D01*
X138873887Y-69054042D01*
X138739475Y-69251082D01*
X138639051Y-69467428D01*
X138575309Y-69697272D01*
X138549963Y-69934440D01*
X138550260Y-69939592D01*
X138550260Y-69939596D01*
X138563396Y-70167403D01*
X138563397Y-70167409D01*
X138563694Y-70172562D01*
X138572178Y-70210210D01*
X138615593Y-70402859D01*
X138611057Y-70473710D01*
X138581771Y-70519654D01*
X138050976Y-71050449D01*
X137988664Y-71084475D01*
X137917849Y-71079410D01*
X137868688Y-71046154D01*
X137826107Y-70999358D01*
X137826105Y-70999357D01*
X137822629Y-70995536D01*
X137818578Y-70992337D01*
X137818574Y-70992333D01*
X137639500Y-70850909D01*
X137639496Y-70850907D01*
X137635445Y-70847707D01*
X137596125Y-70826001D01*
X137579682Y-70816924D01*
X137426631Y-70732436D01*
X137421762Y-70730712D01*
X137421758Y-70730710D01*
X137206663Y-70654541D01*
X137206661Y-70654540D01*
X137201794Y-70652817D01*
X137084383Y-70631902D01*
X136972060Y-70611894D01*
X136972056Y-70611894D01*
X136966972Y-70610988D01*
X136883140Y-70609964D01*
X136733640Y-70608137D01*
X136733638Y-70608137D01*
X136728471Y-70608074D01*
X136492698Y-70644153D01*
X136265982Y-70718255D01*
X136261394Y-70720643D01*
X136261390Y-70720645D01*
X136220458Y-70741953D01*
X136054414Y-70828390D01*
X136050281Y-70831493D01*
X136050278Y-70831495D01*
X135867810Y-70968497D01*
X135863675Y-70971602D01*
X135698887Y-71144042D01*
X135695973Y-71148314D01*
X135695972Y-71148315D01*
X135645390Y-71222465D01*
X135564475Y-71341082D01*
X135562296Y-71345777D01*
X135500169Y-71479619D01*
X135464051Y-71557428D01*
X135400309Y-71787272D01*
X135374963Y-72024440D01*
X135375260Y-72029592D01*
X135375260Y-72029596D01*
X135377950Y-72076247D01*
X135361902Y-72145406D01*
X135311012Y-72194911D01*
X135252159Y-72209500D01*
X135190900Y-72209500D01*
X135122779Y-72189498D01*
X135101805Y-72172595D01*
X134501003Y-71571793D01*
X134466977Y-71509481D01*
X134464136Y-71479619D01*
X134465389Y-71428364D01*
X134465389Y-71428360D01*
X134465471Y-71425000D01*
X134457073Y-71322850D01*
X134446351Y-71192435D01*
X134446350Y-71192429D01*
X134445927Y-71187284D01*
X134387821Y-70955952D01*
X134375415Y-70927420D01*
X134294772Y-70741953D01*
X134294770Y-70741950D01*
X134292712Y-70737216D01*
X134163155Y-70536951D01*
X134134360Y-70505305D01*
X134006107Y-70364358D01*
X134006105Y-70364357D01*
X134002629Y-70360536D01*
X133998578Y-70357337D01*
X133998574Y-70357333D01*
X133819500Y-70215909D01*
X133819496Y-70215907D01*
X133815445Y-70212707D01*
X133776125Y-70191001D01*
X133742722Y-70172562D01*
X133606631Y-70097436D01*
X133601762Y-70095712D01*
X133601758Y-70095710D01*
X133386663Y-70019541D01*
X133386661Y-70019540D01*
X133381794Y-70017817D01*
X133264383Y-69996902D01*
X133152060Y-69976894D01*
X133152056Y-69976894D01*
X133146972Y-69975988D01*
X133063140Y-69974964D01*
X132913640Y-69973137D01*
X132913638Y-69973137D01*
X132908471Y-69973074D01*
X132672698Y-70009153D01*
X132445982Y-70083255D01*
X132441394Y-70085643D01*
X132441390Y-70085645D01*
X132274424Y-70172562D01*
X132234414Y-70193390D01*
X132230281Y-70196493D01*
X132230278Y-70196495D01*
X132047810Y-70333497D01*
X132043675Y-70336602D01*
X131878887Y-70509042D01*
X131744475Y-70706082D01*
X131694263Y-70814255D01*
X131648279Y-70913320D01*
X131644051Y-70922428D01*
X131580309Y-71152272D01*
X131579760Y-71157409D01*
X131556168Y-71378167D01*
X131554963Y-71389440D01*
X129382548Y-71389440D01*
X129377073Y-71322850D01*
X129366351Y-71192435D01*
X129366350Y-71192429D01*
X129365927Y-71187284D01*
X129307821Y-70955952D01*
X129295415Y-70927420D01*
X129214772Y-70741953D01*
X129214770Y-70741950D01*
X129212712Y-70737216D01*
X129083155Y-70536951D01*
X129054360Y-70505305D01*
X128926107Y-70364358D01*
X128926105Y-70364357D01*
X128922629Y-70360536D01*
X128918578Y-70357337D01*
X128918574Y-70357333D01*
X128739500Y-70215909D01*
X128739496Y-70215907D01*
X128735445Y-70212707D01*
X128696125Y-70191001D01*
X128662722Y-70172562D01*
X128526631Y-70097436D01*
X128521762Y-70095712D01*
X128521758Y-70095710D01*
X128306663Y-70019541D01*
X128306661Y-70019540D01*
X128301794Y-70017817D01*
X128184383Y-69996902D01*
X128072060Y-69976894D01*
X128072056Y-69976894D01*
X128066972Y-69975988D01*
X127983140Y-69974964D01*
X127833640Y-69973137D01*
X127833638Y-69973137D01*
X127828471Y-69973074D01*
X127592698Y-70009153D01*
X127365982Y-70083255D01*
X127361394Y-70085643D01*
X127361390Y-70085645D01*
X127194424Y-70172562D01*
X127154414Y-70193390D01*
X127150281Y-70196493D01*
X127150278Y-70196495D01*
X126967810Y-70333497D01*
X126963675Y-70336602D01*
X126798887Y-70509042D01*
X126664475Y-70706082D01*
X126614263Y-70814255D01*
X126568279Y-70913320D01*
X126564051Y-70922428D01*
X126500309Y-71152272D01*
X126499760Y-71157409D01*
X126476168Y-71378167D01*
X126474963Y-71389440D01*
X100750500Y-71389440D01*
X100750500Y-66309440D01*
X130929963Y-66309440D01*
X130930260Y-66314592D01*
X130930260Y-66314596D01*
X130943396Y-66542403D01*
X130943397Y-66542409D01*
X130943694Y-66547562D01*
X130996131Y-66780245D01*
X130998075Y-66785032D01*
X130998076Y-66785036D01*
X131036960Y-66880795D01*
X131085867Y-67001239D01*
X131210493Y-67204609D01*
X131366660Y-67384894D01*
X131550176Y-67537252D01*
X131756112Y-67657591D01*
X131978937Y-67742680D01*
X131984005Y-67743711D01*
X131984008Y-67743712D01*
X132099267Y-67767162D01*
X132212666Y-67790233D01*
X132217839Y-67790423D01*
X132217842Y-67790423D01*
X132445861Y-67798784D01*
X132445865Y-67798784D01*
X132451025Y-67798973D01*
X132456146Y-67798317D01*
X132682489Y-67769321D01*
X132682490Y-67769321D01*
X132687609Y-67768665D01*
X132916068Y-67700125D01*
X133130264Y-67595191D01*
X133211492Y-67537252D01*
X133320242Y-67459681D01*
X133324445Y-67456683D01*
X133493397Y-67288320D01*
X133632582Y-67094623D01*
X133681106Y-66996444D01*
X133735969Y-66885437D01*
X133735970Y-66885435D01*
X133738263Y-66880795D01*
X133807600Y-66652577D01*
X133808275Y-66647451D01*
X133838296Y-66419421D01*
X133838297Y-66419414D01*
X133838733Y-66416099D01*
X133840471Y-66345000D01*
X133837548Y-66309440D01*
X136009963Y-66309440D01*
X136010260Y-66314592D01*
X136010260Y-66314596D01*
X136023396Y-66542403D01*
X136023397Y-66542409D01*
X136023694Y-66547562D01*
X136076131Y-66780245D01*
X136078075Y-66785032D01*
X136078076Y-66785036D01*
X136116960Y-66880795D01*
X136165867Y-67001239D01*
X136290493Y-67204609D01*
X136446660Y-67384894D01*
X136630176Y-67537252D01*
X136836112Y-67657591D01*
X137058937Y-67742680D01*
X137064005Y-67743711D01*
X137064008Y-67743712D01*
X137179267Y-67767162D01*
X137292666Y-67790233D01*
X137297839Y-67790423D01*
X137297842Y-67790423D01*
X137525861Y-67798784D01*
X137525865Y-67798784D01*
X137531025Y-67798973D01*
X137536146Y-67798317D01*
X137762489Y-67769321D01*
X137762490Y-67769321D01*
X137767609Y-67768665D01*
X137996068Y-67700125D01*
X138210264Y-67595191D01*
X138291492Y-67537252D01*
X138400242Y-67459681D01*
X138404445Y-67456683D01*
X138573397Y-67288320D01*
X138712582Y-67094623D01*
X138761106Y-66996444D01*
X138815969Y-66885437D01*
X138815970Y-66885435D01*
X138818263Y-66880795D01*
X138887600Y-66652577D01*
X138888275Y-66647451D01*
X138918296Y-66419421D01*
X138918297Y-66419414D01*
X138918733Y-66416099D01*
X138920471Y-66345000D01*
X138912755Y-66251143D01*
X138901351Y-66112435D01*
X138901350Y-66112429D01*
X138900927Y-66107284D01*
X138842821Y-65875952D01*
X138830415Y-65847420D01*
X138749772Y-65661953D01*
X138749770Y-65661950D01*
X138747712Y-65657216D01*
X138618155Y-65456951D01*
X138589360Y-65425305D01*
X138461107Y-65284358D01*
X138461105Y-65284357D01*
X138457629Y-65280536D01*
X138453578Y-65277337D01*
X138453574Y-65277333D01*
X138345740Y-65192171D01*
X138304677Y-65134254D01*
X138301445Y-65063331D01*
X138337071Y-65001919D01*
X138350663Y-64990710D01*
X138450242Y-64919681D01*
X138454445Y-64916683D01*
X138462576Y-64908581D01*
X138540091Y-64831335D01*
X138623397Y-64748320D01*
X138627464Y-64742661D01*
X138697736Y-64644866D01*
X142279500Y-64644866D01*
X142279837Y-64648112D01*
X142279837Y-64648116D01*
X142285736Y-64704962D01*
X142290359Y-64749519D01*
X142345744Y-64915529D01*
X142437834Y-65064345D01*
X142561689Y-65187984D01*
X142567919Y-65191824D01*
X142567920Y-65191825D01*
X142601658Y-65212621D01*
X142710666Y-65279814D01*
X142717614Y-65282119D01*
X142717615Y-65282119D01*
X142870241Y-65332744D01*
X142870243Y-65332745D01*
X142876772Y-65334910D01*
X142980134Y-65345500D01*
X144679866Y-65345500D01*
X144683112Y-65345163D01*
X144683116Y-65345163D01*
X144777661Y-65335353D01*
X144777665Y-65335352D01*
X144784519Y-65334641D01*
X144791055Y-65332460D01*
X144791057Y-65332460D01*
X144943581Y-65281574D01*
X144950529Y-65279256D01*
X145099345Y-65187166D01*
X145222984Y-65063311D01*
X145231163Y-65050043D01*
X145263703Y-64997252D01*
X145314814Y-64914334D01*
X145331993Y-64862542D01*
X145372424Y-64804182D01*
X145437988Y-64776945D01*
X145507869Y-64789478D01*
X145525746Y-64801207D01*
X145526022Y-64800813D01*
X145708993Y-64928931D01*
X145718489Y-64934414D01*
X145915947Y-65026490D01*
X145926239Y-65030236D01*
X146098503Y-65076394D01*
X146112599Y-65076058D01*
X146116000Y-65068116D01*
X146116000Y-65062967D01*
X146624000Y-65062967D01*
X146627973Y-65076498D01*
X146636522Y-65077727D01*
X146813761Y-65030236D01*
X146824053Y-65026490D01*
X147021511Y-64934414D01*
X147031007Y-64928931D01*
X147209467Y-64803972D01*
X147217875Y-64796916D01*
X147371916Y-64642875D01*
X147378970Y-64634469D01*
X147389790Y-64619017D01*
X147445248Y-64574690D01*
X147515868Y-64567382D01*
X147579228Y-64599414D01*
X147600434Y-64625454D01*
X147651741Y-64709179D01*
X147810241Y-64894759D01*
X147995821Y-65053259D01*
X148203911Y-65180777D01*
X148208481Y-65182670D01*
X148208485Y-65182672D01*
X148424819Y-65272280D01*
X148424825Y-65272282D01*
X148429388Y-65274172D01*
X148434188Y-65275324D01*
X148434193Y-65275326D01*
X148542702Y-65301377D01*
X148666698Y-65331146D01*
X148910000Y-65350294D01*
X149153302Y-65331146D01*
X149277298Y-65301377D01*
X149385807Y-65275326D01*
X149385812Y-65275324D01*
X149390612Y-65274172D01*
X149395175Y-65272282D01*
X149395181Y-65272280D01*
X149611515Y-65182672D01*
X149611519Y-65182670D01*
X149616089Y-65180777D01*
X149824179Y-65053259D01*
X150009759Y-64894759D01*
X150168259Y-64709179D01*
X150219566Y-64625454D01*
X150272213Y-64577824D01*
X150342254Y-64566217D01*
X150407452Y-64594320D01*
X150430210Y-64619017D01*
X150441030Y-64634469D01*
X150448084Y-64642875D01*
X150602125Y-64796916D01*
X150610533Y-64803972D01*
X150788993Y-64928931D01*
X150798489Y-64934414D01*
X150995947Y-65026490D01*
X151006239Y-65030236D01*
X151178503Y-65076394D01*
X151192599Y-65076058D01*
X151196000Y-65068116D01*
X151196000Y-65062967D01*
X151704000Y-65062967D01*
X151707973Y-65076498D01*
X151716522Y-65077727D01*
X151893761Y-65030236D01*
X151904053Y-65026490D01*
X152101511Y-64934414D01*
X152111007Y-64928931D01*
X152289467Y-64803972D01*
X152297875Y-64796916D01*
X152451916Y-64642875D01*
X152458970Y-64634469D01*
X152469790Y-64619017D01*
X152525248Y-64574690D01*
X152595868Y-64567382D01*
X152659228Y-64599414D01*
X152680434Y-64625454D01*
X152731741Y-64709179D01*
X152890241Y-64894759D01*
X153075821Y-65053259D01*
X153283911Y-65180777D01*
X153288481Y-65182670D01*
X153288485Y-65182672D01*
X153504819Y-65272280D01*
X153504825Y-65272282D01*
X153509388Y-65274172D01*
X153514188Y-65275324D01*
X153514193Y-65275326D01*
X153622702Y-65301377D01*
X153746698Y-65331146D01*
X153990000Y-65350294D01*
X154233302Y-65331146D01*
X154357298Y-65301377D01*
X154465807Y-65275326D01*
X154465812Y-65275324D01*
X154470612Y-65274172D01*
X154475175Y-65272282D01*
X154475181Y-65272280D01*
X154691515Y-65182672D01*
X154691519Y-65182670D01*
X154696089Y-65180777D01*
X154904179Y-65053259D01*
X155089759Y-64894759D01*
X155248259Y-64709179D01*
X155299566Y-64625454D01*
X155352213Y-64577824D01*
X155422254Y-64566217D01*
X155487452Y-64594320D01*
X155510210Y-64619017D01*
X155521030Y-64634469D01*
X155528084Y-64642875D01*
X155682125Y-64796916D01*
X155690533Y-64803972D01*
X155868993Y-64928931D01*
X155878489Y-64934414D01*
X156075947Y-65026490D01*
X156086239Y-65030236D01*
X156258503Y-65076394D01*
X156272599Y-65076058D01*
X156276000Y-65068116D01*
X156276000Y-65062967D01*
X156784000Y-65062967D01*
X156787973Y-65076498D01*
X156796522Y-65077727D01*
X156973761Y-65030236D01*
X156984053Y-65026490D01*
X157181511Y-64934414D01*
X157191007Y-64928931D01*
X157369467Y-64803972D01*
X157377875Y-64796916D01*
X157531916Y-64642875D01*
X157538970Y-64634469D01*
X157549790Y-64619017D01*
X157605248Y-64574690D01*
X157675868Y-64567382D01*
X157739228Y-64599414D01*
X157760434Y-64625454D01*
X157811741Y-64709179D01*
X157970241Y-64894759D01*
X158155821Y-65053259D01*
X158363911Y-65180777D01*
X158368481Y-65182670D01*
X158368485Y-65182672D01*
X158584819Y-65272280D01*
X158584825Y-65272282D01*
X158589388Y-65274172D01*
X158594188Y-65275324D01*
X158594193Y-65275326D01*
X158702702Y-65301377D01*
X158826698Y-65331146D01*
X159070000Y-65350294D01*
X159313302Y-65331146D01*
X159437298Y-65301377D01*
X159545807Y-65275326D01*
X159545812Y-65275324D01*
X159550612Y-65274172D01*
X159555175Y-65272282D01*
X159555181Y-65272280D01*
X159771515Y-65182672D01*
X159771519Y-65182670D01*
X159776089Y-65180777D01*
X159984179Y-65053259D01*
X160169759Y-64894759D01*
X160328259Y-64709179D01*
X160379566Y-64625454D01*
X160432213Y-64577824D01*
X160502254Y-64566217D01*
X160567452Y-64594320D01*
X160590210Y-64619017D01*
X160601030Y-64634469D01*
X160608084Y-64642875D01*
X160762125Y-64796916D01*
X160770533Y-64803972D01*
X160948993Y-64928931D01*
X160958489Y-64934414D01*
X161155947Y-65026490D01*
X161166239Y-65030236D01*
X161338503Y-65076394D01*
X161352599Y-65076058D01*
X161356000Y-65068116D01*
X161356000Y-65062967D01*
X161864000Y-65062967D01*
X161867973Y-65076498D01*
X161876522Y-65077727D01*
X162053761Y-65030236D01*
X162064053Y-65026490D01*
X162261511Y-64934414D01*
X162271007Y-64928931D01*
X162449467Y-64803972D01*
X162457875Y-64796916D01*
X162611916Y-64642875D01*
X162618972Y-64634467D01*
X162743931Y-64456007D01*
X162749414Y-64446511D01*
X162841490Y-64249053D01*
X162845236Y-64238761D01*
X162891394Y-64066497D01*
X162891058Y-64052401D01*
X162883116Y-64049000D01*
X161882115Y-64049000D01*
X161866876Y-64053475D01*
X161865671Y-64054865D01*
X161864000Y-64062548D01*
X161864000Y-65062967D01*
X161356000Y-65062967D01*
X161356000Y-63522885D01*
X161864000Y-63522885D01*
X161868475Y-63538124D01*
X161869865Y-63539329D01*
X161877548Y-63541000D01*
X162877967Y-63541000D01*
X162891498Y-63537027D01*
X162892727Y-63528478D01*
X162845236Y-63351239D01*
X162841490Y-63340947D01*
X162749414Y-63143489D01*
X162743931Y-63133993D01*
X162618972Y-62955533D01*
X162611916Y-62947125D01*
X162457875Y-62793084D01*
X162449467Y-62786028D01*
X162271007Y-62661069D01*
X162261511Y-62655586D01*
X162064053Y-62563510D01*
X162053761Y-62559764D01*
X161881497Y-62513606D01*
X161867401Y-62513942D01*
X161864000Y-62521884D01*
X161864000Y-63522885D01*
X161356000Y-63522885D01*
X161356000Y-62527033D01*
X161352027Y-62513502D01*
X161343478Y-62512273D01*
X161166239Y-62559764D01*
X161155947Y-62563510D01*
X160958489Y-62655586D01*
X160948993Y-62661069D01*
X160770533Y-62786028D01*
X160762125Y-62793084D01*
X160608084Y-62947125D01*
X160601030Y-62955531D01*
X160590210Y-62970983D01*
X160534752Y-63015310D01*
X160464132Y-63022618D01*
X160400772Y-62990586D01*
X160379565Y-62964545D01*
X160374043Y-62955533D01*
X160328259Y-62880821D01*
X160169759Y-62695241D01*
X159984179Y-62536741D01*
X159776089Y-62409223D01*
X159771519Y-62407330D01*
X159771515Y-62407328D01*
X159555181Y-62317720D01*
X159555175Y-62317718D01*
X159550612Y-62315828D01*
X159545812Y-62314676D01*
X159545807Y-62314674D01*
X159437298Y-62288623D01*
X159313302Y-62258854D01*
X159070000Y-62239706D01*
X158826698Y-62258854D01*
X158702702Y-62288623D01*
X158594193Y-62314674D01*
X158594188Y-62314676D01*
X158589388Y-62315828D01*
X158584825Y-62317718D01*
X158584819Y-62317720D01*
X158368485Y-62407328D01*
X158368481Y-62407330D01*
X158363911Y-62409223D01*
X158155821Y-62536741D01*
X157970241Y-62695241D01*
X157811741Y-62880821D01*
X157765958Y-62955533D01*
X157760435Y-62964545D01*
X157707787Y-63012176D01*
X157637746Y-63023783D01*
X157572548Y-62995680D01*
X157549790Y-62970983D01*
X157538970Y-62955531D01*
X157531916Y-62947125D01*
X157377875Y-62793084D01*
X157369467Y-62786028D01*
X157191007Y-62661069D01*
X157181511Y-62655586D01*
X156984053Y-62563510D01*
X156973761Y-62559764D01*
X156801497Y-62513606D01*
X156787401Y-62513942D01*
X156784000Y-62521884D01*
X156784000Y-65062967D01*
X156276000Y-65062967D01*
X156276000Y-62527033D01*
X156272027Y-62513502D01*
X156263478Y-62512273D01*
X156086239Y-62559764D01*
X156075947Y-62563510D01*
X155878489Y-62655586D01*
X155868993Y-62661069D01*
X155690533Y-62786028D01*
X155682125Y-62793084D01*
X155528084Y-62947125D01*
X155521030Y-62955531D01*
X155510210Y-62970983D01*
X155454752Y-63015310D01*
X155384132Y-63022618D01*
X155320772Y-62990586D01*
X155299565Y-62964545D01*
X155294043Y-62955533D01*
X155248259Y-62880821D01*
X155089759Y-62695241D01*
X154904179Y-62536741D01*
X154696089Y-62409223D01*
X154691519Y-62407330D01*
X154691515Y-62407328D01*
X154475181Y-62317720D01*
X154475175Y-62317718D01*
X154470612Y-62315828D01*
X154465812Y-62314676D01*
X154465807Y-62314674D01*
X154357298Y-62288623D01*
X154233302Y-62258854D01*
X153990000Y-62239706D01*
X153746698Y-62258854D01*
X153622702Y-62288623D01*
X153514193Y-62314674D01*
X153514188Y-62314676D01*
X153509388Y-62315828D01*
X153504825Y-62317718D01*
X153504819Y-62317720D01*
X153288485Y-62407328D01*
X153288481Y-62407330D01*
X153283911Y-62409223D01*
X153075821Y-62536741D01*
X152890241Y-62695241D01*
X152731741Y-62880821D01*
X152685958Y-62955533D01*
X152680435Y-62964545D01*
X152627787Y-63012176D01*
X152557746Y-63023783D01*
X152492548Y-62995680D01*
X152469790Y-62970983D01*
X152458970Y-62955531D01*
X152451916Y-62947125D01*
X152297875Y-62793084D01*
X152289467Y-62786028D01*
X152111007Y-62661069D01*
X152101511Y-62655586D01*
X151904053Y-62563510D01*
X151893761Y-62559764D01*
X151721497Y-62513606D01*
X151707401Y-62513942D01*
X151704000Y-62521884D01*
X151704000Y-65062967D01*
X151196000Y-65062967D01*
X151196000Y-62527033D01*
X151192027Y-62513502D01*
X151183478Y-62512273D01*
X151006239Y-62559764D01*
X150995947Y-62563510D01*
X150798489Y-62655586D01*
X150788993Y-62661069D01*
X150610533Y-62786028D01*
X150602125Y-62793084D01*
X150448084Y-62947125D01*
X150441030Y-62955531D01*
X150430210Y-62970983D01*
X150374752Y-63015310D01*
X150304132Y-63022618D01*
X150240772Y-62990586D01*
X150219565Y-62964545D01*
X150214043Y-62955533D01*
X150168259Y-62880821D01*
X150009759Y-62695241D01*
X149824179Y-62536741D01*
X149616089Y-62409223D01*
X149611519Y-62407330D01*
X149611515Y-62407328D01*
X149395181Y-62317720D01*
X149395175Y-62317718D01*
X149390612Y-62315828D01*
X149385812Y-62314676D01*
X149385807Y-62314674D01*
X149277298Y-62288623D01*
X149153302Y-62258854D01*
X148910000Y-62239706D01*
X148666698Y-62258854D01*
X148542702Y-62288623D01*
X148434193Y-62314674D01*
X148434188Y-62314676D01*
X148429388Y-62315828D01*
X148424825Y-62317718D01*
X148424819Y-62317720D01*
X148208485Y-62407328D01*
X148208481Y-62407330D01*
X148203911Y-62409223D01*
X147995821Y-62536741D01*
X147810241Y-62695241D01*
X147651741Y-62880821D01*
X147605958Y-62955533D01*
X147600435Y-62964545D01*
X147547787Y-63012176D01*
X147477746Y-63023783D01*
X147412548Y-62995680D01*
X147389790Y-62970983D01*
X147378970Y-62955531D01*
X147371916Y-62947125D01*
X147217875Y-62793084D01*
X147209467Y-62786028D01*
X147031007Y-62661069D01*
X147021511Y-62655586D01*
X146824053Y-62563510D01*
X146813761Y-62559764D01*
X146641497Y-62513606D01*
X146627401Y-62513942D01*
X146624000Y-62521884D01*
X146624000Y-65062967D01*
X146116000Y-65062967D01*
X146116000Y-62527033D01*
X146112027Y-62513502D01*
X146103478Y-62512273D01*
X145926239Y-62559764D01*
X145915947Y-62563510D01*
X145718489Y-62655586D01*
X145708993Y-62661069D01*
X145526022Y-62789187D01*
X145524958Y-62787667D01*
X145467482Y-62812816D01*
X145397378Y-62801594D01*
X145344470Y-62754252D01*
X145332016Y-62727705D01*
X145316574Y-62681419D01*
X145314256Y-62674471D01*
X145222166Y-62525655D01*
X145098311Y-62402016D01*
X144949334Y-62310186D01*
X144942385Y-62307881D01*
X144789759Y-62257256D01*
X144789757Y-62257255D01*
X144783228Y-62255090D01*
X144679866Y-62244500D01*
X142980134Y-62244500D01*
X142976888Y-62244837D01*
X142976884Y-62244837D01*
X142882339Y-62254647D01*
X142882335Y-62254648D01*
X142875481Y-62255359D01*
X142868945Y-62257540D01*
X142868943Y-62257540D01*
X142861543Y-62260009D01*
X142709471Y-62310744D01*
X142560655Y-62402834D01*
X142437016Y-62526689D01*
X142433176Y-62532919D01*
X142433175Y-62532920D01*
X142416628Y-62559764D01*
X142345186Y-62675666D01*
X142342881Y-62682614D01*
X142342881Y-62682615D01*
X142303417Y-62801594D01*
X142290090Y-62841772D01*
X142279500Y-62945134D01*
X142279500Y-64644866D01*
X138697736Y-64644866D01*
X138759564Y-64558823D01*
X138762582Y-64554623D01*
X138789041Y-64501089D01*
X138865969Y-64345437D01*
X138865970Y-64345435D01*
X138868263Y-64340795D01*
X138937600Y-64112577D01*
X138943667Y-64066497D01*
X138968296Y-63879421D01*
X138968297Y-63879414D01*
X138968733Y-63876099D01*
X138970471Y-63805000D01*
X138962755Y-63711143D01*
X138951351Y-63572435D01*
X138951350Y-63572429D01*
X138950927Y-63567284D01*
X138892821Y-63335952D01*
X138880415Y-63307420D01*
X138799772Y-63121953D01*
X138799770Y-63121950D01*
X138797712Y-63117216D01*
X138668155Y-62916951D01*
X138639360Y-62885305D01*
X138511107Y-62744358D01*
X138511105Y-62744357D01*
X138507629Y-62740536D01*
X138503578Y-62737337D01*
X138503574Y-62737333D01*
X138324500Y-62595909D01*
X138324496Y-62595907D01*
X138320445Y-62592707D01*
X138281125Y-62571001D01*
X138214381Y-62534157D01*
X138111631Y-62477436D01*
X138106762Y-62475712D01*
X138106758Y-62475710D01*
X137891663Y-62399541D01*
X137891661Y-62399540D01*
X137886794Y-62397817D01*
X137769383Y-62376902D01*
X137657060Y-62356894D01*
X137657056Y-62356894D01*
X137651972Y-62355988D01*
X137568140Y-62354964D01*
X137418640Y-62353137D01*
X137418638Y-62353137D01*
X137413471Y-62353074D01*
X137177698Y-62389153D01*
X136950982Y-62463255D01*
X136946394Y-62465643D01*
X136946390Y-62465645D01*
X136838356Y-62521884D01*
X136739414Y-62573390D01*
X136735281Y-62576493D01*
X136735278Y-62576495D01*
X136603196Y-62675666D01*
X136548675Y-62716602D01*
X136479311Y-62789187D01*
X136467455Y-62801594D01*
X136383887Y-62889042D01*
X136380973Y-62893314D01*
X136380972Y-62893315D01*
X136344265Y-62947125D01*
X136249475Y-63086082D01*
X136149051Y-63302428D01*
X136085309Y-63532272D01*
X136059963Y-63769440D01*
X136060260Y-63774592D01*
X136060260Y-63774596D01*
X136073396Y-64002403D01*
X136073397Y-64002409D01*
X136073694Y-64007562D01*
X136126131Y-64240245D01*
X136128075Y-64245032D01*
X136128076Y-64245036D01*
X136166960Y-64340795D01*
X136215867Y-64461239D01*
X136340493Y-64664609D01*
X136496660Y-64844894D01*
X136635271Y-64959971D01*
X136674903Y-65018870D01*
X136676401Y-65089851D01*
X136639287Y-65150374D01*
X136630436Y-65157672D01*
X136590065Y-65187984D01*
X136498675Y-65256602D01*
X136333887Y-65429042D01*
X136199475Y-65626082D01*
X136099051Y-65842428D01*
X136035309Y-66072272D01*
X136009963Y-66309440D01*
X133837548Y-66309440D01*
X133832755Y-66251143D01*
X133821351Y-66112435D01*
X133821350Y-66112429D01*
X133820927Y-66107284D01*
X133762821Y-65875952D01*
X133750415Y-65847420D01*
X133669772Y-65661953D01*
X133669770Y-65661950D01*
X133667712Y-65657216D01*
X133538155Y-65456951D01*
X133509360Y-65425305D01*
X133381107Y-65284358D01*
X133381105Y-65284357D01*
X133377629Y-65280536D01*
X133373578Y-65277337D01*
X133373574Y-65277333D01*
X133265740Y-65192171D01*
X133224677Y-65134254D01*
X133221445Y-65063331D01*
X133257071Y-65001919D01*
X133270663Y-64990710D01*
X133370242Y-64919681D01*
X133374445Y-64916683D01*
X133382576Y-64908581D01*
X133460091Y-64831335D01*
X133543397Y-64748320D01*
X133547464Y-64742661D01*
X133679564Y-64558823D01*
X133682582Y-64554623D01*
X133709041Y-64501089D01*
X133785969Y-64345437D01*
X133785970Y-64345435D01*
X133788263Y-64340795D01*
X133857600Y-64112577D01*
X133863667Y-64066497D01*
X133888296Y-63879421D01*
X133888297Y-63879414D01*
X133888733Y-63876099D01*
X133890471Y-63805000D01*
X133882755Y-63711143D01*
X133871351Y-63572435D01*
X133871350Y-63572429D01*
X133870927Y-63567284D01*
X133812821Y-63335952D01*
X133800415Y-63307420D01*
X133719772Y-63121953D01*
X133719770Y-63121950D01*
X133717712Y-63117216D01*
X133588155Y-62916951D01*
X133559360Y-62885305D01*
X133431107Y-62744358D01*
X133431105Y-62744357D01*
X133427629Y-62740536D01*
X133423578Y-62737337D01*
X133423574Y-62737333D01*
X133244500Y-62595909D01*
X133244496Y-62595907D01*
X133240445Y-62592707D01*
X133201125Y-62571001D01*
X133134381Y-62534157D01*
X133031631Y-62477436D01*
X133026762Y-62475712D01*
X133026758Y-62475710D01*
X132811663Y-62399541D01*
X132811661Y-62399540D01*
X132806794Y-62397817D01*
X132689383Y-62376902D01*
X132577060Y-62356894D01*
X132577056Y-62356894D01*
X132571972Y-62355988D01*
X132488140Y-62354964D01*
X132338640Y-62353137D01*
X132338638Y-62353137D01*
X132333471Y-62353074D01*
X132097698Y-62389153D01*
X131870982Y-62463255D01*
X131866394Y-62465643D01*
X131866390Y-62465645D01*
X131758356Y-62521884D01*
X131659414Y-62573390D01*
X131655281Y-62576493D01*
X131655278Y-62576495D01*
X131523196Y-62675666D01*
X131468675Y-62716602D01*
X131399311Y-62789187D01*
X131387455Y-62801594D01*
X131303887Y-62889042D01*
X131300973Y-62893314D01*
X131300972Y-62893315D01*
X131264265Y-62947125D01*
X131169475Y-63086082D01*
X131069051Y-63302428D01*
X131005309Y-63532272D01*
X130979963Y-63769440D01*
X130980260Y-63774592D01*
X130980260Y-63774596D01*
X130993396Y-64002403D01*
X130993397Y-64002409D01*
X130993694Y-64007562D01*
X131046131Y-64240245D01*
X131048075Y-64245032D01*
X131048076Y-64245036D01*
X131086960Y-64340795D01*
X131135867Y-64461239D01*
X131260493Y-64664609D01*
X131416660Y-64844894D01*
X131555271Y-64959971D01*
X131594903Y-65018870D01*
X131596401Y-65089851D01*
X131559287Y-65150374D01*
X131550436Y-65157672D01*
X131510065Y-65187984D01*
X131418675Y-65256602D01*
X131253887Y-65429042D01*
X131119475Y-65626082D01*
X131019051Y-65842428D01*
X130955309Y-66072272D01*
X130929963Y-66309440D01*
X100750500Y-66309440D01*
X100750500Y-60594440D01*
X130979963Y-60594440D01*
X130980260Y-60599592D01*
X130980260Y-60599596D01*
X130993396Y-60827403D01*
X130993397Y-60827409D01*
X130993694Y-60832562D01*
X131046131Y-61065245D01*
X131048075Y-61070032D01*
X131048076Y-61070036D01*
X131086960Y-61165795D01*
X131135867Y-61286239D01*
X131260493Y-61489609D01*
X131416660Y-61669894D01*
X131600176Y-61822252D01*
X131806112Y-61942591D01*
X132028937Y-62027680D01*
X132034005Y-62028711D01*
X132034008Y-62028712D01*
X132149267Y-62052162D01*
X132262666Y-62075233D01*
X132267839Y-62075423D01*
X132267842Y-62075423D01*
X132495861Y-62083784D01*
X132495865Y-62083784D01*
X132501025Y-62083973D01*
X132506146Y-62083317D01*
X132732489Y-62054321D01*
X132732490Y-62054321D01*
X132737609Y-62053665D01*
X132966068Y-61985125D01*
X133180264Y-61880191D01*
X133256124Y-61826081D01*
X133370242Y-61744681D01*
X133374445Y-61741683D01*
X133543397Y-61573320D01*
X133648145Y-61427548D01*
X133679564Y-61383823D01*
X133682582Y-61379623D01*
X133731106Y-61281444D01*
X133785969Y-61170437D01*
X133785970Y-61170435D01*
X133788263Y-61165795D01*
X133857600Y-60937577D01*
X133858275Y-60932451D01*
X133888296Y-60704421D01*
X133888297Y-60704414D01*
X133888733Y-60701099D01*
X133890471Y-60630000D01*
X133887548Y-60594440D01*
X136059963Y-60594440D01*
X136060260Y-60599592D01*
X136060260Y-60599596D01*
X136073396Y-60827403D01*
X136073397Y-60827409D01*
X136073694Y-60832562D01*
X136126131Y-61065245D01*
X136128075Y-61070032D01*
X136128076Y-61070036D01*
X136166960Y-61165795D01*
X136215867Y-61286239D01*
X136340493Y-61489609D01*
X136496660Y-61669894D01*
X136680176Y-61822252D01*
X136886112Y-61942591D01*
X137108937Y-62027680D01*
X137114005Y-62028711D01*
X137114008Y-62028712D01*
X137229267Y-62052162D01*
X137342666Y-62075233D01*
X137347839Y-62075423D01*
X137347842Y-62075423D01*
X137575861Y-62083784D01*
X137575865Y-62083784D01*
X137581025Y-62083973D01*
X137586146Y-62083317D01*
X137812489Y-62054321D01*
X137812490Y-62054321D01*
X137817609Y-62053665D01*
X138046068Y-61985125D01*
X138260264Y-61880191D01*
X138336124Y-61826081D01*
X138450242Y-61744681D01*
X138454445Y-61741683D01*
X138623397Y-61573320D01*
X138728145Y-61427548D01*
X138759564Y-61383823D01*
X138762582Y-61379623D01*
X138811106Y-61281444D01*
X138865969Y-61170437D01*
X138865970Y-61170435D01*
X138868263Y-61165795D01*
X138937600Y-60937577D01*
X138938275Y-60932451D01*
X138968296Y-60704421D01*
X138968297Y-60704414D01*
X138968733Y-60701099D01*
X138970471Y-60630000D01*
X138960577Y-60509653D01*
X138951351Y-60397435D01*
X138951350Y-60397429D01*
X138950927Y-60392284D01*
X138917227Y-60258117D01*
X138894080Y-60165963D01*
X138894079Y-60165959D01*
X138892821Y-60160952D01*
X138887502Y-60148719D01*
X138799772Y-59946953D01*
X138799770Y-59946950D01*
X138797712Y-59942216D01*
X138668155Y-59741951D01*
X138639360Y-59710305D01*
X138511107Y-59569358D01*
X138511105Y-59569357D01*
X138507629Y-59565536D01*
X138503578Y-59562337D01*
X138503574Y-59562333D01*
X138324500Y-59420909D01*
X138324496Y-59420907D01*
X138320445Y-59417707D01*
X138301894Y-59407466D01*
X138262419Y-59385675D01*
X138111631Y-59302436D01*
X138106762Y-59300712D01*
X138106758Y-59300710D01*
X137891663Y-59224541D01*
X137891661Y-59224540D01*
X137886794Y-59222817D01*
X137728944Y-59194699D01*
X137657060Y-59181894D01*
X137657056Y-59181894D01*
X137651972Y-59180988D01*
X137568140Y-59179964D01*
X137418640Y-59178137D01*
X137418638Y-59178137D01*
X137413471Y-59178074D01*
X137177698Y-59214153D01*
X136950982Y-59288255D01*
X136946394Y-59290643D01*
X136946390Y-59290645D01*
X136763839Y-59385675D01*
X136739414Y-59398390D01*
X136735281Y-59401493D01*
X136735278Y-59401495D01*
X136552810Y-59538497D01*
X136548675Y-59541602D01*
X136545103Y-59545340D01*
X136410514Y-59686179D01*
X136383887Y-59714042D01*
X136249475Y-59911082D01*
X136227085Y-59959317D01*
X136155271Y-60114029D01*
X136149051Y-60127428D01*
X136085309Y-60357272D01*
X136084760Y-60362409D01*
X136065036Y-60546975D01*
X136059963Y-60594440D01*
X133887548Y-60594440D01*
X133880577Y-60509653D01*
X133871351Y-60397435D01*
X133871350Y-60397429D01*
X133870927Y-60392284D01*
X133837227Y-60258117D01*
X133814080Y-60165963D01*
X133814079Y-60165959D01*
X133812821Y-60160952D01*
X133807502Y-60148719D01*
X133719772Y-59946953D01*
X133719770Y-59946950D01*
X133717712Y-59942216D01*
X133588155Y-59741951D01*
X133559360Y-59710305D01*
X133431107Y-59569358D01*
X133431105Y-59569357D01*
X133427629Y-59565536D01*
X133423578Y-59562337D01*
X133423574Y-59562333D01*
X133244500Y-59420909D01*
X133244496Y-59420907D01*
X133240445Y-59417707D01*
X133221894Y-59407466D01*
X133182419Y-59385675D01*
X133031631Y-59302436D01*
X133026762Y-59300712D01*
X133026758Y-59300710D01*
X132811663Y-59224541D01*
X132811661Y-59224540D01*
X132806794Y-59222817D01*
X132648944Y-59194699D01*
X132577060Y-59181894D01*
X132577056Y-59181894D01*
X132571972Y-59180988D01*
X132488140Y-59179964D01*
X132338640Y-59178137D01*
X132338638Y-59178137D01*
X132333471Y-59178074D01*
X132097698Y-59214153D01*
X131870982Y-59288255D01*
X131866394Y-59290643D01*
X131866390Y-59290645D01*
X131683839Y-59385675D01*
X131659414Y-59398390D01*
X131655281Y-59401493D01*
X131655278Y-59401495D01*
X131472810Y-59538497D01*
X131468675Y-59541602D01*
X131465103Y-59545340D01*
X131330514Y-59686179D01*
X131303887Y-59714042D01*
X131169475Y-59911082D01*
X131147085Y-59959317D01*
X131075271Y-60114029D01*
X131069051Y-60127428D01*
X131005309Y-60357272D01*
X131004760Y-60362409D01*
X130985036Y-60546975D01*
X130979963Y-60594440D01*
X100750500Y-60594440D01*
X100750500Y-59844866D01*
X103589500Y-59844866D01*
X103589837Y-59848112D01*
X103589837Y-59848116D01*
X103599515Y-59941383D01*
X103600359Y-59949519D01*
X103602540Y-59956055D01*
X103602540Y-59956057D01*
X103614709Y-59992532D01*
X103655744Y-60115529D01*
X103747834Y-60264345D01*
X103871689Y-60387984D01*
X104020666Y-60479814D01*
X104027614Y-60482119D01*
X104027615Y-60482119D01*
X104180241Y-60532744D01*
X104180243Y-60532745D01*
X104186772Y-60534910D01*
X104290134Y-60545500D01*
X105889866Y-60545500D01*
X105893112Y-60545163D01*
X105893116Y-60545163D01*
X105987661Y-60535353D01*
X105987665Y-60535352D01*
X105994519Y-60534641D01*
X106001055Y-60532460D01*
X106001057Y-60532460D01*
X106153581Y-60481574D01*
X106160529Y-60479256D01*
X106309345Y-60387166D01*
X106432984Y-60263311D01*
X106524814Y-60114334D01*
X106579910Y-59948228D01*
X106590500Y-59844866D01*
X106590500Y-59107554D01*
X108589500Y-59107554D01*
X108589712Y-59110127D01*
X108589712Y-59110138D01*
X108604151Y-59285760D01*
X108604152Y-59285766D01*
X108604575Y-59290911D01*
X108664684Y-59530217D01*
X108763072Y-59756493D01*
X108897095Y-59963661D01*
X108900575Y-59967486D01*
X108900577Y-59967488D01*
X108926766Y-59996269D01*
X109063154Y-60146158D01*
X109067205Y-60149357D01*
X109067209Y-60149361D01*
X109252736Y-60295881D01*
X109252741Y-60295884D01*
X109256790Y-60299082D01*
X109261306Y-60301575D01*
X109261309Y-60301577D01*
X109468278Y-60415830D01*
X109468282Y-60415832D01*
X109472802Y-60418327D01*
X109477671Y-60420051D01*
X109477675Y-60420053D01*
X109700515Y-60498965D01*
X109700519Y-60498966D01*
X109705390Y-60500691D01*
X109710483Y-60501598D01*
X109710486Y-60501599D01*
X109943217Y-60543055D01*
X109943223Y-60543056D01*
X109948306Y-60543961D01*
X110027676Y-60544931D01*
X110189858Y-60546912D01*
X110189860Y-60546912D01*
X110195028Y-60546975D01*
X110438930Y-60509653D01*
X110673460Y-60432997D01*
X110818926Y-60357272D01*
X110887732Y-60321454D01*
X110887733Y-60321453D01*
X110892321Y-60319065D01*
X110896454Y-60315962D01*
X110896457Y-60315960D01*
X111085501Y-60174022D01*
X111085504Y-60174020D01*
X111089636Y-60170917D01*
X111260104Y-59992532D01*
X111269903Y-59978168D01*
X111396230Y-59792979D01*
X111399149Y-59788700D01*
X111480604Y-59613219D01*
X111500856Y-59569591D01*
X111500857Y-59569587D01*
X111503035Y-59564896D01*
X111568974Y-59327129D01*
X111572873Y-59290645D01*
X111590144Y-59129043D01*
X111590144Y-59129035D01*
X111590500Y-59125708D01*
X111590500Y-59107554D01*
X113589500Y-59107554D01*
X113589712Y-59110127D01*
X113589712Y-59110138D01*
X113604151Y-59285760D01*
X113604152Y-59285766D01*
X113604575Y-59290911D01*
X113664684Y-59530217D01*
X113763072Y-59756493D01*
X113897095Y-59963661D01*
X113900575Y-59967486D01*
X113900577Y-59967488D01*
X113926766Y-59996269D01*
X114063154Y-60146158D01*
X114067205Y-60149357D01*
X114067209Y-60149361D01*
X114252736Y-60295881D01*
X114252741Y-60295884D01*
X114256790Y-60299082D01*
X114261306Y-60301575D01*
X114261309Y-60301577D01*
X114468278Y-60415830D01*
X114468282Y-60415832D01*
X114472802Y-60418327D01*
X114477671Y-60420051D01*
X114477675Y-60420053D01*
X114700515Y-60498965D01*
X114700519Y-60498966D01*
X114705390Y-60500691D01*
X114710483Y-60501598D01*
X114710486Y-60501599D01*
X114943217Y-60543055D01*
X114943223Y-60543056D01*
X114948306Y-60543961D01*
X115027676Y-60544931D01*
X115189858Y-60546912D01*
X115189860Y-60546912D01*
X115195028Y-60546975D01*
X115438930Y-60509653D01*
X115673460Y-60432997D01*
X115818926Y-60357272D01*
X115887732Y-60321454D01*
X115887733Y-60321453D01*
X115892321Y-60319065D01*
X115896454Y-60315962D01*
X115896457Y-60315960D01*
X116085501Y-60174022D01*
X116085504Y-60174020D01*
X116089636Y-60170917D01*
X116260104Y-59992532D01*
X116269903Y-59978168D01*
X116396230Y-59792979D01*
X116399149Y-59788700D01*
X116480604Y-59613219D01*
X116500856Y-59569591D01*
X116500857Y-59569587D01*
X116503035Y-59564896D01*
X116568974Y-59327129D01*
X116572873Y-59290645D01*
X116590144Y-59129043D01*
X116590144Y-59129035D01*
X116590500Y-59125708D01*
X116590500Y-59107554D01*
X118589500Y-59107554D01*
X118589712Y-59110127D01*
X118589712Y-59110138D01*
X118604151Y-59285760D01*
X118604152Y-59285766D01*
X118604575Y-59290911D01*
X118664684Y-59530217D01*
X118763072Y-59756493D01*
X118897095Y-59963661D01*
X118900575Y-59967486D01*
X118900577Y-59967488D01*
X118926766Y-59996269D01*
X119063154Y-60146158D01*
X119067205Y-60149357D01*
X119067209Y-60149361D01*
X119252736Y-60295881D01*
X119252741Y-60295884D01*
X119256790Y-60299082D01*
X119261306Y-60301575D01*
X119261309Y-60301577D01*
X119468278Y-60415830D01*
X119468282Y-60415832D01*
X119472802Y-60418327D01*
X119477671Y-60420051D01*
X119477675Y-60420053D01*
X119700515Y-60498965D01*
X119700519Y-60498966D01*
X119705390Y-60500691D01*
X119710483Y-60501598D01*
X119710486Y-60501599D01*
X119943217Y-60543055D01*
X119943223Y-60543056D01*
X119948306Y-60543961D01*
X120027676Y-60544931D01*
X120189858Y-60546912D01*
X120189860Y-60546912D01*
X120195028Y-60546975D01*
X120438930Y-60509653D01*
X120673460Y-60432997D01*
X120818926Y-60357272D01*
X120887732Y-60321454D01*
X120887733Y-60321453D01*
X120892321Y-60319065D01*
X120896454Y-60315962D01*
X120896457Y-60315960D01*
X121085501Y-60174022D01*
X121085504Y-60174020D01*
X121089636Y-60170917D01*
X121260104Y-59992532D01*
X121269903Y-59978168D01*
X121396230Y-59792979D01*
X121399149Y-59788700D01*
X121480604Y-59613219D01*
X121500856Y-59569591D01*
X121500857Y-59569587D01*
X121503035Y-59564896D01*
X121568974Y-59327129D01*
X121572873Y-59290645D01*
X121590144Y-59129043D01*
X121590144Y-59129035D01*
X121590500Y-59125708D01*
X121590500Y-59099175D01*
X123832000Y-59099175D01*
X123832249Y-59104770D01*
X123846378Y-59263078D01*
X123848360Y-59274092D01*
X123904651Y-59479860D01*
X123908549Y-59490341D01*
X124000397Y-59682903D01*
X124006082Y-59692516D01*
X124130575Y-59865767D01*
X124137883Y-59874233D01*
X124291082Y-60022692D01*
X124299779Y-60029735D01*
X124476844Y-60148719D01*
X124486642Y-60154105D01*
X124681990Y-60239857D01*
X124692582Y-60243422D01*
X124818384Y-60273624D01*
X124832470Y-60272919D01*
X124836000Y-60264040D01*
X124836000Y-60263411D01*
X125344000Y-60263411D01*
X125348105Y-60277393D01*
X125357728Y-60278886D01*
X125357973Y-60278834D01*
X125561883Y-60216102D01*
X125572229Y-60211881D01*
X125761814Y-60114029D01*
X125771245Y-60108043D01*
X125940501Y-59978168D01*
X125948724Y-59970607D01*
X126092312Y-59812806D01*
X126099067Y-59803906D01*
X126212434Y-59623185D01*
X126217511Y-59613219D01*
X126297080Y-59415286D01*
X126300315Y-59404571D01*
X126343777Y-59194699D01*
X126344980Y-59185562D01*
X126347895Y-59135010D01*
X126348000Y-59131363D01*
X126348000Y-58567115D01*
X126343525Y-58551876D01*
X126342135Y-58550671D01*
X126334452Y-58549000D01*
X125362115Y-58549000D01*
X125346876Y-58553475D01*
X125345671Y-58554865D01*
X125344000Y-58562548D01*
X125344000Y-60263411D01*
X124836000Y-60263411D01*
X124836000Y-58567115D01*
X124831525Y-58551876D01*
X124830135Y-58550671D01*
X124822452Y-58549000D01*
X123850115Y-58549000D01*
X123834876Y-58553475D01*
X123833671Y-58554865D01*
X123832000Y-58562548D01*
X123832000Y-59099175D01*
X121590500Y-59099175D01*
X121590500Y-58022885D01*
X123832000Y-58022885D01*
X123836475Y-58038124D01*
X123837865Y-58039329D01*
X123845548Y-58041000D01*
X124817885Y-58041000D01*
X124833124Y-58036525D01*
X124834329Y-58035135D01*
X124836000Y-58027452D01*
X124836000Y-58022885D01*
X125344000Y-58022885D01*
X125348475Y-58038124D01*
X125349865Y-58039329D01*
X125357548Y-58041000D01*
X126329885Y-58041000D01*
X126345124Y-58036525D01*
X126346329Y-58035135D01*
X126348000Y-58027452D01*
X126348000Y-57490825D01*
X126347751Y-57485230D01*
X126341879Y-57419440D01*
X130979963Y-57419440D01*
X130980260Y-57424592D01*
X130980260Y-57424596D01*
X130993396Y-57652403D01*
X130993397Y-57652409D01*
X130993694Y-57657562D01*
X131046131Y-57890245D01*
X131048075Y-57895032D01*
X131048076Y-57895036D01*
X131086960Y-57990795D01*
X131135867Y-58111239D01*
X131260493Y-58314609D01*
X131416660Y-58494894D01*
X131600176Y-58647252D01*
X131806112Y-58767591D01*
X132028937Y-58852680D01*
X132034005Y-58853711D01*
X132034008Y-58853712D01*
X132149267Y-58877162D01*
X132262666Y-58900233D01*
X132267839Y-58900423D01*
X132267842Y-58900423D01*
X132495861Y-58908784D01*
X132495865Y-58908784D01*
X132501025Y-58908973D01*
X132506146Y-58908317D01*
X132732489Y-58879321D01*
X132732490Y-58879321D01*
X132737609Y-58878665D01*
X132966068Y-58810125D01*
X133180264Y-58705191D01*
X133261492Y-58647252D01*
X133370242Y-58569681D01*
X133374445Y-58566683D01*
X133378595Y-58562548D01*
X133539736Y-58401968D01*
X133543397Y-58398320D01*
X133682582Y-58204623D01*
X133731106Y-58106444D01*
X133785969Y-57995437D01*
X133785970Y-57995435D01*
X133788263Y-57990795D01*
X133857600Y-57762577D01*
X133864523Y-57709991D01*
X133888296Y-57529421D01*
X133888297Y-57529414D01*
X133888733Y-57526099D01*
X133890244Y-57464292D01*
X133890389Y-57458364D01*
X133890389Y-57458360D01*
X133890471Y-57455000D01*
X133887547Y-57419440D01*
X136059963Y-57419440D01*
X136060260Y-57424592D01*
X136060260Y-57424596D01*
X136073396Y-57652403D01*
X136073397Y-57652409D01*
X136073694Y-57657562D01*
X136126131Y-57890245D01*
X136128075Y-57895032D01*
X136128076Y-57895036D01*
X136166960Y-57990795D01*
X136215867Y-58111239D01*
X136340493Y-58314609D01*
X136496660Y-58494894D01*
X136680176Y-58647252D01*
X136886112Y-58767591D01*
X137108937Y-58852680D01*
X137114005Y-58853711D01*
X137114008Y-58853712D01*
X137229267Y-58877162D01*
X137342666Y-58900233D01*
X137347839Y-58900423D01*
X137347842Y-58900423D01*
X137575861Y-58908784D01*
X137575865Y-58908784D01*
X137581025Y-58908973D01*
X137586146Y-58908317D01*
X137812489Y-58879321D01*
X137812490Y-58879321D01*
X137817609Y-58878665D01*
X138046068Y-58810125D01*
X138260264Y-58705191D01*
X138341492Y-58647252D01*
X138450242Y-58569681D01*
X138454445Y-58566683D01*
X138458595Y-58562548D01*
X138619736Y-58401968D01*
X138623397Y-58398320D01*
X138762582Y-58204623D01*
X138811106Y-58106444D01*
X138865969Y-57995437D01*
X138865970Y-57995435D01*
X138868263Y-57990795D01*
X138937600Y-57762577D01*
X138944523Y-57709991D01*
X138968296Y-57529421D01*
X138968297Y-57529414D01*
X138968733Y-57526099D01*
X138970244Y-57464292D01*
X138970389Y-57458364D01*
X138970389Y-57458360D01*
X138970471Y-57455000D01*
X138959941Y-57326922D01*
X138951351Y-57222435D01*
X138951350Y-57222429D01*
X138950927Y-57217284D01*
X138892821Y-56985952D01*
X138890762Y-56981216D01*
X138799772Y-56771953D01*
X138799770Y-56771950D01*
X138797712Y-56767216D01*
X138668155Y-56566951D01*
X138662072Y-56560265D01*
X138511107Y-56394358D01*
X138511105Y-56394357D01*
X138507629Y-56390536D01*
X138503578Y-56387337D01*
X138503574Y-56387333D01*
X138324500Y-56245909D01*
X138324496Y-56245907D01*
X138320445Y-56242707D01*
X138281125Y-56221001D01*
X138197793Y-56175000D01*
X142274706Y-56175000D01*
X142293854Y-56418302D01*
X142321944Y-56535305D01*
X142349149Y-56648617D01*
X142350828Y-56655612D01*
X142352718Y-56660175D01*
X142352720Y-56660181D01*
X142413118Y-56805995D01*
X142444223Y-56881089D01*
X142571741Y-57089179D01*
X142730241Y-57274759D01*
X142915821Y-57433259D01*
X143123911Y-57560777D01*
X143128481Y-57562670D01*
X143128485Y-57562672D01*
X143344819Y-57652280D01*
X143344825Y-57652282D01*
X143349388Y-57654172D01*
X143354188Y-57655324D01*
X143354193Y-57655326D01*
X143462702Y-57681377D01*
X143586698Y-57711146D01*
X143830000Y-57730294D01*
X144073302Y-57711146D01*
X144197298Y-57681377D01*
X144305807Y-57655326D01*
X144305812Y-57655324D01*
X144310612Y-57654172D01*
X144315175Y-57652282D01*
X144315181Y-57652280D01*
X144531515Y-57562672D01*
X144531519Y-57562670D01*
X144536089Y-57560777D01*
X144744179Y-57433259D01*
X144929759Y-57274759D01*
X145004190Y-57187611D01*
X145063640Y-57148803D01*
X145134634Y-57148297D01*
X145195810Y-57187611D01*
X145270241Y-57274759D01*
X145455821Y-57433259D01*
X145663911Y-57560777D01*
X145668481Y-57562670D01*
X145668485Y-57562672D01*
X145884819Y-57652280D01*
X145884825Y-57652282D01*
X145889388Y-57654172D01*
X145894188Y-57655324D01*
X145894193Y-57655326D01*
X146002702Y-57681377D01*
X146126698Y-57711146D01*
X146370000Y-57730294D01*
X146613302Y-57711146D01*
X146737298Y-57681377D01*
X146845807Y-57655326D01*
X146845812Y-57655324D01*
X146850612Y-57654172D01*
X146855175Y-57652282D01*
X146855181Y-57652280D01*
X147071515Y-57562672D01*
X147071519Y-57562670D01*
X147076089Y-57560777D01*
X147284179Y-57433259D01*
X147469759Y-57274759D01*
X147544190Y-57187611D01*
X147603640Y-57148803D01*
X147674634Y-57148297D01*
X147735810Y-57187611D01*
X147810241Y-57274759D01*
X147995821Y-57433259D01*
X148203911Y-57560777D01*
X148208481Y-57562670D01*
X148208485Y-57562672D01*
X148424819Y-57652280D01*
X148424825Y-57652282D01*
X148429388Y-57654172D01*
X148434188Y-57655324D01*
X148434193Y-57655326D01*
X148542702Y-57681377D01*
X148666698Y-57711146D01*
X148910000Y-57730294D01*
X149153302Y-57711146D01*
X149277298Y-57681377D01*
X149385807Y-57655326D01*
X149385812Y-57655324D01*
X149390612Y-57654172D01*
X149395175Y-57652282D01*
X149395181Y-57652280D01*
X149611515Y-57562672D01*
X149611519Y-57562670D01*
X149616089Y-57560777D01*
X149824179Y-57433259D01*
X150009759Y-57274759D01*
X150084190Y-57187611D01*
X150143640Y-57148803D01*
X150214634Y-57148297D01*
X150275810Y-57187611D01*
X150350241Y-57274759D01*
X150535821Y-57433259D01*
X150743911Y-57560777D01*
X150748481Y-57562670D01*
X150748485Y-57562672D01*
X150964819Y-57652280D01*
X150964825Y-57652282D01*
X150969388Y-57654172D01*
X150974188Y-57655324D01*
X150974193Y-57655326D01*
X151082702Y-57681377D01*
X151206698Y-57711146D01*
X151450000Y-57730294D01*
X151693302Y-57711146D01*
X151817298Y-57681377D01*
X151925807Y-57655326D01*
X151925812Y-57655324D01*
X151930612Y-57654172D01*
X151935175Y-57652282D01*
X151935181Y-57652280D01*
X152151515Y-57562672D01*
X152151519Y-57562670D01*
X152156089Y-57560777D01*
X152364179Y-57433259D01*
X152549759Y-57274759D01*
X152624190Y-57187611D01*
X152683640Y-57148803D01*
X152754634Y-57148297D01*
X152815810Y-57187611D01*
X152890241Y-57274759D01*
X153075821Y-57433259D01*
X153283911Y-57560777D01*
X153288481Y-57562670D01*
X153288485Y-57562672D01*
X153504819Y-57652280D01*
X153504825Y-57652282D01*
X153509388Y-57654172D01*
X153514188Y-57655324D01*
X153514193Y-57655326D01*
X153622702Y-57681377D01*
X153746698Y-57711146D01*
X153990000Y-57730294D01*
X154233302Y-57711146D01*
X154357298Y-57681377D01*
X154465807Y-57655326D01*
X154465812Y-57655324D01*
X154470612Y-57654172D01*
X154475175Y-57652282D01*
X154475181Y-57652280D01*
X154691515Y-57562672D01*
X154691519Y-57562670D01*
X154696089Y-57560777D01*
X154904179Y-57433259D01*
X155089759Y-57274759D01*
X155164190Y-57187611D01*
X155223640Y-57148803D01*
X155294634Y-57148297D01*
X155355810Y-57187611D01*
X155430241Y-57274759D01*
X155615821Y-57433259D01*
X155823911Y-57560777D01*
X155828481Y-57562670D01*
X155828485Y-57562672D01*
X156044819Y-57652280D01*
X156044825Y-57652282D01*
X156049388Y-57654172D01*
X156054188Y-57655324D01*
X156054193Y-57655326D01*
X156162702Y-57681377D01*
X156286698Y-57711146D01*
X156530000Y-57730294D01*
X156773302Y-57711146D01*
X156897298Y-57681377D01*
X157005807Y-57655326D01*
X157005812Y-57655324D01*
X157010612Y-57654172D01*
X157015175Y-57652282D01*
X157015181Y-57652280D01*
X157231515Y-57562672D01*
X157231519Y-57562670D01*
X157236089Y-57560777D01*
X157444179Y-57433259D01*
X157629759Y-57274759D01*
X157704190Y-57187611D01*
X157763640Y-57148803D01*
X157834634Y-57148297D01*
X157895810Y-57187611D01*
X157970241Y-57274759D01*
X158155821Y-57433259D01*
X158363911Y-57560777D01*
X158368481Y-57562670D01*
X158368485Y-57562672D01*
X158584819Y-57652280D01*
X158584825Y-57652282D01*
X158589388Y-57654172D01*
X158594188Y-57655324D01*
X158594193Y-57655326D01*
X158702702Y-57681377D01*
X158826698Y-57711146D01*
X159070000Y-57730294D01*
X159313302Y-57711146D01*
X159437298Y-57681377D01*
X159545807Y-57655326D01*
X159545812Y-57655324D01*
X159550612Y-57654172D01*
X159555175Y-57652282D01*
X159555181Y-57652280D01*
X159771515Y-57562672D01*
X159771519Y-57562670D01*
X159776089Y-57560777D01*
X159984179Y-57433259D01*
X160169759Y-57274759D01*
X160244190Y-57187611D01*
X160303640Y-57148803D01*
X160374634Y-57148297D01*
X160435810Y-57187611D01*
X160510241Y-57274759D01*
X160695821Y-57433259D01*
X160903911Y-57560777D01*
X160908481Y-57562670D01*
X160908485Y-57562672D01*
X161124819Y-57652280D01*
X161124825Y-57652282D01*
X161129388Y-57654172D01*
X161134188Y-57655324D01*
X161134193Y-57655326D01*
X161242702Y-57681377D01*
X161366698Y-57711146D01*
X161610000Y-57730294D01*
X161853302Y-57711146D01*
X161977298Y-57681377D01*
X162085807Y-57655326D01*
X162085812Y-57655324D01*
X162090612Y-57654172D01*
X162095175Y-57652282D01*
X162095181Y-57652280D01*
X162311515Y-57562672D01*
X162311519Y-57562670D01*
X162316089Y-57560777D01*
X162524179Y-57433259D01*
X162709759Y-57274759D01*
X162868259Y-57089179D01*
X162995777Y-56881089D01*
X163026882Y-56805995D01*
X163087280Y-56660181D01*
X163087282Y-56660175D01*
X163089172Y-56655612D01*
X163090852Y-56648617D01*
X163118056Y-56535305D01*
X163146146Y-56418302D01*
X163165294Y-56175000D01*
X163146146Y-55931698D01*
X163089172Y-55694388D01*
X163087282Y-55689825D01*
X163087280Y-55689819D01*
X162997672Y-55473485D01*
X162997670Y-55473481D01*
X162995777Y-55468911D01*
X162868259Y-55260821D01*
X162709759Y-55075241D01*
X162524179Y-54916741D01*
X162316089Y-54789223D01*
X162311519Y-54787330D01*
X162311515Y-54787328D01*
X162095181Y-54697720D01*
X162095175Y-54697718D01*
X162090612Y-54695828D01*
X162085812Y-54694676D01*
X162085807Y-54694674D01*
X161977298Y-54668623D01*
X161853302Y-54638854D01*
X161610000Y-54619706D01*
X161366698Y-54638854D01*
X161242702Y-54668623D01*
X161134193Y-54694674D01*
X161134188Y-54694676D01*
X161129388Y-54695828D01*
X161124825Y-54697718D01*
X161124819Y-54697720D01*
X160908485Y-54787328D01*
X160908481Y-54787330D01*
X160903911Y-54789223D01*
X160695821Y-54916741D01*
X160510241Y-55075241D01*
X160435811Y-55162388D01*
X160376360Y-55201197D01*
X160305366Y-55201703D01*
X160244189Y-55162388D01*
X160169759Y-55075241D01*
X159984179Y-54916741D01*
X159776089Y-54789223D01*
X159771519Y-54787330D01*
X159771515Y-54787328D01*
X159555181Y-54697720D01*
X159555175Y-54697718D01*
X159550612Y-54695828D01*
X159545812Y-54694676D01*
X159545807Y-54694674D01*
X159437298Y-54668623D01*
X159313302Y-54638854D01*
X159070000Y-54619706D01*
X158826698Y-54638854D01*
X158702702Y-54668623D01*
X158594193Y-54694674D01*
X158594188Y-54694676D01*
X158589388Y-54695828D01*
X158584825Y-54697718D01*
X158584819Y-54697720D01*
X158368485Y-54787328D01*
X158368481Y-54787330D01*
X158363911Y-54789223D01*
X158155821Y-54916741D01*
X157970241Y-55075241D01*
X157895811Y-55162388D01*
X157836360Y-55201197D01*
X157765366Y-55201703D01*
X157704189Y-55162388D01*
X157629759Y-55075241D01*
X157444179Y-54916741D01*
X157236089Y-54789223D01*
X157231519Y-54787330D01*
X157231515Y-54787328D01*
X157015181Y-54697720D01*
X157015175Y-54697718D01*
X157010612Y-54695828D01*
X157005812Y-54694676D01*
X157005807Y-54694674D01*
X156897298Y-54668623D01*
X156773302Y-54638854D01*
X156530000Y-54619706D01*
X156286698Y-54638854D01*
X156162702Y-54668623D01*
X156054193Y-54694674D01*
X156054188Y-54694676D01*
X156049388Y-54695828D01*
X156044825Y-54697718D01*
X156044819Y-54697720D01*
X155828485Y-54787328D01*
X155828481Y-54787330D01*
X155823911Y-54789223D01*
X155615821Y-54916741D01*
X155430241Y-55075241D01*
X155355811Y-55162388D01*
X155296360Y-55201197D01*
X155225366Y-55201703D01*
X155164189Y-55162388D01*
X155089759Y-55075241D01*
X154904179Y-54916741D01*
X154696089Y-54789223D01*
X154691519Y-54787330D01*
X154691515Y-54787328D01*
X154475181Y-54697720D01*
X154475175Y-54697718D01*
X154470612Y-54695828D01*
X154465812Y-54694676D01*
X154465807Y-54694674D01*
X154357298Y-54668623D01*
X154233302Y-54638854D01*
X153990000Y-54619706D01*
X153746698Y-54638854D01*
X153622702Y-54668623D01*
X153514193Y-54694674D01*
X153514188Y-54694676D01*
X153509388Y-54695828D01*
X153504825Y-54697718D01*
X153504819Y-54697720D01*
X153288485Y-54787328D01*
X153288481Y-54787330D01*
X153283911Y-54789223D01*
X153075821Y-54916741D01*
X152890241Y-55075241D01*
X152815811Y-55162388D01*
X152756360Y-55201197D01*
X152685366Y-55201703D01*
X152624189Y-55162388D01*
X152549759Y-55075241D01*
X152364179Y-54916741D01*
X152156089Y-54789223D01*
X152151519Y-54787330D01*
X152151515Y-54787328D01*
X151935181Y-54697720D01*
X151935175Y-54697718D01*
X151930612Y-54695828D01*
X151925812Y-54694676D01*
X151925807Y-54694674D01*
X151817298Y-54668623D01*
X151693302Y-54638854D01*
X151450000Y-54619706D01*
X151206698Y-54638854D01*
X151082702Y-54668623D01*
X150974193Y-54694674D01*
X150974188Y-54694676D01*
X150969388Y-54695828D01*
X150964825Y-54697718D01*
X150964819Y-54697720D01*
X150748485Y-54787328D01*
X150748481Y-54787330D01*
X150743911Y-54789223D01*
X150535821Y-54916741D01*
X150350241Y-55075241D01*
X150275811Y-55162388D01*
X150216360Y-55201197D01*
X150145366Y-55201703D01*
X150084189Y-55162388D01*
X150009759Y-55075241D01*
X149824179Y-54916741D01*
X149616089Y-54789223D01*
X149611519Y-54787330D01*
X149611515Y-54787328D01*
X149395181Y-54697720D01*
X149395175Y-54697718D01*
X149390612Y-54695828D01*
X149385812Y-54694676D01*
X149385807Y-54694674D01*
X149277298Y-54668623D01*
X149153302Y-54638854D01*
X148910000Y-54619706D01*
X148666698Y-54638854D01*
X148542702Y-54668623D01*
X148434193Y-54694674D01*
X148434188Y-54694676D01*
X148429388Y-54695828D01*
X148424825Y-54697718D01*
X148424819Y-54697720D01*
X148208485Y-54787328D01*
X148208481Y-54787330D01*
X148203911Y-54789223D01*
X147995821Y-54916741D01*
X147810241Y-55075241D01*
X147735811Y-55162388D01*
X147676360Y-55201197D01*
X147605366Y-55201703D01*
X147544189Y-55162388D01*
X147469759Y-55075241D01*
X147284179Y-54916741D01*
X147076089Y-54789223D01*
X147071519Y-54787330D01*
X147071515Y-54787328D01*
X146855181Y-54697720D01*
X146855175Y-54697718D01*
X146850612Y-54695828D01*
X146845812Y-54694676D01*
X146845807Y-54694674D01*
X146737298Y-54668623D01*
X146613302Y-54638854D01*
X146370000Y-54619706D01*
X146126698Y-54638854D01*
X146002702Y-54668623D01*
X145894193Y-54694674D01*
X145894188Y-54694676D01*
X145889388Y-54695828D01*
X145884825Y-54697718D01*
X145884819Y-54697720D01*
X145668485Y-54787328D01*
X145668481Y-54787330D01*
X145663911Y-54789223D01*
X145455821Y-54916741D01*
X145270241Y-55075241D01*
X145195811Y-55162388D01*
X145136360Y-55201197D01*
X145065366Y-55201703D01*
X145004189Y-55162388D01*
X144929759Y-55075241D01*
X144744179Y-54916741D01*
X144536089Y-54789223D01*
X144531519Y-54787330D01*
X144531515Y-54787328D01*
X144315181Y-54697720D01*
X144315175Y-54697718D01*
X144310612Y-54695828D01*
X144305812Y-54694676D01*
X144305807Y-54694674D01*
X144197298Y-54668623D01*
X144073302Y-54638854D01*
X143830000Y-54619706D01*
X143586698Y-54638854D01*
X143462702Y-54668623D01*
X143354193Y-54694674D01*
X143354188Y-54694676D01*
X143349388Y-54695828D01*
X143344825Y-54697718D01*
X143344819Y-54697720D01*
X143128485Y-54787328D01*
X143128481Y-54787330D01*
X143123911Y-54789223D01*
X142915821Y-54916741D01*
X142730241Y-55075241D01*
X142571741Y-55260821D01*
X142444223Y-55468911D01*
X142442330Y-55473481D01*
X142442328Y-55473485D01*
X142352720Y-55689819D01*
X142352718Y-55689825D01*
X142350828Y-55694388D01*
X142293854Y-55931698D01*
X142274706Y-56175000D01*
X138197793Y-56175000D01*
X138111631Y-56127436D01*
X138106762Y-56125712D01*
X138106758Y-56125710D01*
X137891663Y-56049541D01*
X137891661Y-56049540D01*
X137886794Y-56047817D01*
X137769383Y-56026903D01*
X137657060Y-56006894D01*
X137657056Y-56006894D01*
X137651972Y-56005988D01*
X137568140Y-56004964D01*
X137418640Y-56003137D01*
X137418638Y-56003137D01*
X137413471Y-56003074D01*
X137177698Y-56039153D01*
X136950982Y-56113255D01*
X136946394Y-56115643D01*
X136946390Y-56115645D01*
X136768947Y-56208016D01*
X136739414Y-56223390D01*
X136735281Y-56226493D01*
X136735278Y-56226495D01*
X136575344Y-56346578D01*
X136548675Y-56366602D01*
X136383887Y-56539042D01*
X136380973Y-56543314D01*
X136380972Y-56543315D01*
X136319150Y-56633943D01*
X136249475Y-56736082D01*
X136149051Y-56952428D01*
X136085309Y-57182272D01*
X136084760Y-57187409D01*
X136062543Y-57395301D01*
X136059963Y-57419440D01*
X133887547Y-57419440D01*
X133879941Y-57326922D01*
X133871351Y-57222435D01*
X133871350Y-57222429D01*
X133870927Y-57217284D01*
X133812821Y-56985952D01*
X133810762Y-56981216D01*
X133719772Y-56771953D01*
X133719770Y-56771950D01*
X133717712Y-56767216D01*
X133588155Y-56566951D01*
X133582072Y-56560265D01*
X133431107Y-56394358D01*
X133431105Y-56394357D01*
X133427629Y-56390536D01*
X133423578Y-56387337D01*
X133423574Y-56387333D01*
X133244500Y-56245909D01*
X133244496Y-56245907D01*
X133240445Y-56242707D01*
X133201125Y-56221001D01*
X133117793Y-56175000D01*
X133031631Y-56127436D01*
X133026762Y-56125712D01*
X133026758Y-56125710D01*
X132811663Y-56049541D01*
X132811661Y-56049540D01*
X132806794Y-56047817D01*
X132689383Y-56026903D01*
X132577060Y-56006894D01*
X132577056Y-56006894D01*
X132571972Y-56005988D01*
X132488140Y-56004964D01*
X132338640Y-56003137D01*
X132338638Y-56003137D01*
X132333471Y-56003074D01*
X132097698Y-56039153D01*
X131870982Y-56113255D01*
X131866394Y-56115643D01*
X131866390Y-56115645D01*
X131688947Y-56208016D01*
X131659414Y-56223390D01*
X131655281Y-56226493D01*
X131655278Y-56226495D01*
X131495344Y-56346578D01*
X131468675Y-56366602D01*
X131303887Y-56539042D01*
X131300973Y-56543314D01*
X131300972Y-56543315D01*
X131239150Y-56633943D01*
X131169475Y-56736082D01*
X131069051Y-56952428D01*
X131005309Y-57182272D01*
X131004760Y-57187409D01*
X130982543Y-57395301D01*
X130979963Y-57419440D01*
X126341879Y-57419440D01*
X126333622Y-57326922D01*
X126331640Y-57315908D01*
X126275349Y-57110140D01*
X126271451Y-57099659D01*
X126179603Y-56907097D01*
X126173918Y-56897484D01*
X126049425Y-56724233D01*
X126042117Y-56715767D01*
X125888918Y-56567308D01*
X125880221Y-56560265D01*
X125703156Y-56441281D01*
X125693358Y-56435895D01*
X125498010Y-56350143D01*
X125487418Y-56346578D01*
X125361616Y-56316376D01*
X125347530Y-56317081D01*
X125344000Y-56325960D01*
X125344000Y-58022885D01*
X124836000Y-58022885D01*
X124836000Y-56326589D01*
X124831895Y-56312607D01*
X124822272Y-56311114D01*
X124822027Y-56311166D01*
X124618117Y-56373898D01*
X124607771Y-56378119D01*
X124418186Y-56475971D01*
X124408755Y-56481957D01*
X124239499Y-56611832D01*
X124231276Y-56619393D01*
X124087688Y-56777194D01*
X124080933Y-56786094D01*
X123967566Y-56966815D01*
X123962489Y-56976781D01*
X123882920Y-57174714D01*
X123879685Y-57185429D01*
X123836223Y-57395301D01*
X123835020Y-57404438D01*
X123832105Y-57454990D01*
X123832000Y-57458637D01*
X123832000Y-58022885D01*
X121590500Y-58022885D01*
X121590500Y-57482446D01*
X121590288Y-57479862D01*
X121575849Y-57304240D01*
X121575848Y-57304234D01*
X121575425Y-57299089D01*
X121515316Y-57059783D01*
X121437617Y-56881089D01*
X121418993Y-56838256D01*
X121418993Y-56838255D01*
X121416928Y-56833507D01*
X121282905Y-56626339D01*
X121256635Y-56597468D01*
X121200071Y-56535305D01*
X121116846Y-56443842D01*
X121112795Y-56440643D01*
X121112791Y-56440639D01*
X120927264Y-56294119D01*
X120927259Y-56294116D01*
X120923210Y-56290918D01*
X120918694Y-56288425D01*
X120918691Y-56288423D01*
X120711722Y-56174170D01*
X120711718Y-56174168D01*
X120707198Y-56171673D01*
X120702329Y-56169949D01*
X120702325Y-56169947D01*
X120479485Y-56091035D01*
X120479481Y-56091034D01*
X120474610Y-56089309D01*
X120469517Y-56088402D01*
X120469514Y-56088401D01*
X120236783Y-56046945D01*
X120236777Y-56046944D01*
X120231694Y-56046039D01*
X120152324Y-56045069D01*
X119990142Y-56043088D01*
X119990140Y-56043088D01*
X119984972Y-56043025D01*
X119741070Y-56080347D01*
X119506540Y-56157003D01*
X119287679Y-56270935D01*
X119283546Y-56274038D01*
X119283543Y-56274040D01*
X119094499Y-56415978D01*
X119090364Y-56419083D01*
X118919896Y-56597468D01*
X118916982Y-56601740D01*
X118916981Y-56601741D01*
X118880233Y-56655612D01*
X118780851Y-56801300D01*
X118736204Y-56897484D01*
X118692813Y-56990963D01*
X118676965Y-57025104D01*
X118611026Y-57262871D01*
X118610477Y-57268008D01*
X118590134Y-57458364D01*
X118589500Y-57464292D01*
X118589500Y-59107554D01*
X116590500Y-59107554D01*
X116590500Y-57482446D01*
X116590288Y-57479862D01*
X116575849Y-57304240D01*
X116575848Y-57304234D01*
X116575425Y-57299089D01*
X116515316Y-57059783D01*
X116437617Y-56881089D01*
X116418993Y-56838256D01*
X116418993Y-56838255D01*
X116416928Y-56833507D01*
X116282905Y-56626339D01*
X116256635Y-56597468D01*
X116200071Y-56535305D01*
X116116846Y-56443842D01*
X116112795Y-56440643D01*
X116112791Y-56440639D01*
X115927264Y-56294119D01*
X115927259Y-56294116D01*
X115923210Y-56290918D01*
X115918694Y-56288425D01*
X115918691Y-56288423D01*
X115711722Y-56174170D01*
X115711718Y-56174168D01*
X115707198Y-56171673D01*
X115702329Y-56169949D01*
X115702325Y-56169947D01*
X115479485Y-56091035D01*
X115479481Y-56091034D01*
X115474610Y-56089309D01*
X115469517Y-56088402D01*
X115469514Y-56088401D01*
X115236783Y-56046945D01*
X115236777Y-56046944D01*
X115231694Y-56046039D01*
X115152324Y-56045069D01*
X114990142Y-56043088D01*
X114990140Y-56043088D01*
X114984972Y-56043025D01*
X114741070Y-56080347D01*
X114506540Y-56157003D01*
X114287679Y-56270935D01*
X114283546Y-56274038D01*
X114283543Y-56274040D01*
X114094499Y-56415978D01*
X114090364Y-56419083D01*
X113919896Y-56597468D01*
X113916982Y-56601740D01*
X113916981Y-56601741D01*
X113880233Y-56655612D01*
X113780851Y-56801300D01*
X113736204Y-56897484D01*
X113692813Y-56990963D01*
X113676965Y-57025104D01*
X113611026Y-57262871D01*
X113610477Y-57268008D01*
X113590134Y-57458364D01*
X113589500Y-57464292D01*
X113589500Y-59107554D01*
X111590500Y-59107554D01*
X111590500Y-57482446D01*
X111590288Y-57479862D01*
X111575849Y-57304240D01*
X111575848Y-57304234D01*
X111575425Y-57299089D01*
X111515316Y-57059783D01*
X111437617Y-56881089D01*
X111418993Y-56838256D01*
X111418993Y-56838255D01*
X111416928Y-56833507D01*
X111282905Y-56626339D01*
X111256635Y-56597468D01*
X111200071Y-56535305D01*
X111116846Y-56443842D01*
X111112795Y-56440643D01*
X111112791Y-56440639D01*
X110927264Y-56294119D01*
X110927259Y-56294116D01*
X110923210Y-56290918D01*
X110918694Y-56288425D01*
X110918691Y-56288423D01*
X110711722Y-56174170D01*
X110711718Y-56174168D01*
X110707198Y-56171673D01*
X110702329Y-56169949D01*
X110702325Y-56169947D01*
X110479485Y-56091035D01*
X110479481Y-56091034D01*
X110474610Y-56089309D01*
X110469517Y-56088402D01*
X110469514Y-56088401D01*
X110236783Y-56046945D01*
X110236777Y-56046944D01*
X110231694Y-56046039D01*
X110152324Y-56045069D01*
X109990142Y-56043088D01*
X109990140Y-56043088D01*
X109984972Y-56043025D01*
X109741070Y-56080347D01*
X109506540Y-56157003D01*
X109287679Y-56270935D01*
X109283546Y-56274038D01*
X109283543Y-56274040D01*
X109094499Y-56415978D01*
X109090364Y-56419083D01*
X108919896Y-56597468D01*
X108916982Y-56601740D01*
X108916981Y-56601741D01*
X108880233Y-56655612D01*
X108780851Y-56801300D01*
X108736204Y-56897484D01*
X108692813Y-56990963D01*
X108676965Y-57025104D01*
X108611026Y-57262871D01*
X108610477Y-57268008D01*
X108590134Y-57458364D01*
X108589500Y-57464292D01*
X108589500Y-59107554D01*
X106590500Y-59107554D01*
X106590500Y-56745134D01*
X106589117Y-56731803D01*
X106580353Y-56647339D01*
X106580352Y-56647335D01*
X106579641Y-56640481D01*
X106566717Y-56601741D01*
X106526973Y-56482615D01*
X106524256Y-56474471D01*
X106432166Y-56325655D01*
X106308311Y-56202016D01*
X106159334Y-56110186D01*
X106074219Y-56081954D01*
X105999759Y-56057256D01*
X105999757Y-56057255D01*
X105993228Y-56055090D01*
X105889866Y-56044500D01*
X104290134Y-56044500D01*
X104286888Y-56044837D01*
X104286884Y-56044837D01*
X104192339Y-56054647D01*
X104192335Y-56054648D01*
X104185481Y-56055359D01*
X104178945Y-56057540D01*
X104178943Y-56057540D01*
X104083720Y-56089309D01*
X104019471Y-56110744D01*
X103870655Y-56202834D01*
X103747016Y-56326689D01*
X103655186Y-56475666D01*
X103652881Y-56482614D01*
X103652881Y-56482615D01*
X103624908Y-56566951D01*
X103600090Y-56641772D01*
X103589500Y-56745134D01*
X103589500Y-59844866D01*
X100750500Y-59844866D01*
X100750500Y-53609440D01*
X129014963Y-53609440D01*
X129015260Y-53614592D01*
X129015260Y-53614596D01*
X129028396Y-53842403D01*
X129028397Y-53842409D01*
X129028694Y-53847562D01*
X129081131Y-54080245D01*
X129083075Y-54085032D01*
X129083076Y-54085036D01*
X129121960Y-54180795D01*
X129170867Y-54301239D01*
X129295493Y-54504609D01*
X129451660Y-54684894D01*
X129635176Y-54837252D01*
X129841112Y-54957591D01*
X130063937Y-55042680D01*
X130069005Y-55043711D01*
X130069008Y-55043712D01*
X130184267Y-55067162D01*
X130297666Y-55090233D01*
X130302839Y-55090423D01*
X130302842Y-55090423D01*
X130530861Y-55098784D01*
X130530865Y-55098784D01*
X130536025Y-55098973D01*
X130541146Y-55098317D01*
X130767489Y-55069321D01*
X130767490Y-55069321D01*
X130772609Y-55068665D01*
X131001068Y-55000125D01*
X131215264Y-54895191D01*
X131296492Y-54837252D01*
X131405242Y-54759681D01*
X131409445Y-54756683D01*
X131578397Y-54588320D01*
X131717582Y-54394623D01*
X131766106Y-54296444D01*
X131820969Y-54185437D01*
X131820970Y-54185435D01*
X131823263Y-54180795D01*
X131892600Y-53952577D01*
X131893275Y-53947451D01*
X131923296Y-53719421D01*
X131923297Y-53719414D01*
X131923733Y-53716099D01*
X131925471Y-53645000D01*
X131922548Y-53609440D01*
X134094963Y-53609440D01*
X134095260Y-53614592D01*
X134095260Y-53614596D01*
X134108396Y-53842403D01*
X134108397Y-53842409D01*
X134108694Y-53847562D01*
X134161131Y-54080245D01*
X134163075Y-54085032D01*
X134163076Y-54085036D01*
X134201960Y-54180795D01*
X134250867Y-54301239D01*
X134375493Y-54504609D01*
X134531660Y-54684894D01*
X134715176Y-54837252D01*
X134921112Y-54957591D01*
X135143937Y-55042680D01*
X135149005Y-55043711D01*
X135149008Y-55043712D01*
X135264267Y-55067162D01*
X135377666Y-55090233D01*
X135382839Y-55090423D01*
X135382842Y-55090423D01*
X135610861Y-55098784D01*
X135610865Y-55098784D01*
X135616025Y-55098973D01*
X135621146Y-55098317D01*
X135847489Y-55069321D01*
X135847490Y-55069321D01*
X135852609Y-55068665D01*
X136081068Y-55000125D01*
X136295264Y-54895191D01*
X136376492Y-54837252D01*
X136485242Y-54759681D01*
X136489445Y-54756683D01*
X136658397Y-54588320D01*
X136797582Y-54394623D01*
X136846106Y-54296444D01*
X136900969Y-54185437D01*
X136900970Y-54185435D01*
X136903263Y-54180795D01*
X136972600Y-53952577D01*
X136973275Y-53947451D01*
X137003296Y-53719421D01*
X137003297Y-53719414D01*
X137003733Y-53716099D01*
X137005471Y-53645000D01*
X136997755Y-53551143D01*
X136986351Y-53412435D01*
X136986350Y-53412429D01*
X136985927Y-53407284D01*
X136927821Y-53175952D01*
X136915415Y-53147420D01*
X136834772Y-52961953D01*
X136834770Y-52961950D01*
X136832712Y-52957216D01*
X136703155Y-52756951D01*
X136674360Y-52725305D01*
X136546107Y-52584358D01*
X136546105Y-52584357D01*
X136542629Y-52580536D01*
X136538578Y-52577337D01*
X136538574Y-52577333D01*
X136359500Y-52435909D01*
X136359496Y-52435907D01*
X136355445Y-52432707D01*
X136316125Y-52411001D01*
X136299682Y-52401924D01*
X136146631Y-52317436D01*
X136141762Y-52315712D01*
X136141758Y-52315710D01*
X135926663Y-52239541D01*
X135926661Y-52239540D01*
X135921794Y-52237817D01*
X135804383Y-52216902D01*
X135692060Y-52196894D01*
X135692056Y-52196894D01*
X135686972Y-52195988D01*
X135603140Y-52194964D01*
X135453640Y-52193137D01*
X135453638Y-52193137D01*
X135448471Y-52193074D01*
X135212698Y-52229153D01*
X134985982Y-52303255D01*
X134981394Y-52305643D01*
X134981390Y-52305645D01*
X134851455Y-52373285D01*
X134774414Y-52413390D01*
X134770281Y-52416493D01*
X134770278Y-52416495D01*
X134587810Y-52553497D01*
X134583675Y-52556602D01*
X134418887Y-52729042D01*
X134284475Y-52926082D01*
X134184051Y-53142428D01*
X134120309Y-53372272D01*
X134094963Y-53609440D01*
X131922548Y-53609440D01*
X131917755Y-53551143D01*
X131906351Y-53412435D01*
X131906350Y-53412429D01*
X131905927Y-53407284D01*
X131847821Y-53175952D01*
X131835415Y-53147420D01*
X131754772Y-52961953D01*
X131754770Y-52961950D01*
X131752712Y-52957216D01*
X131623155Y-52756951D01*
X131594360Y-52725305D01*
X131466107Y-52584358D01*
X131466105Y-52584357D01*
X131462629Y-52580536D01*
X131458578Y-52577337D01*
X131458574Y-52577333D01*
X131279500Y-52435909D01*
X131279496Y-52435907D01*
X131275445Y-52432707D01*
X131236125Y-52411001D01*
X131219682Y-52401924D01*
X131066631Y-52317436D01*
X131061762Y-52315712D01*
X131061758Y-52315710D01*
X130846663Y-52239541D01*
X130846661Y-52239540D01*
X130841794Y-52237817D01*
X130724383Y-52216902D01*
X130612060Y-52196894D01*
X130612056Y-52196894D01*
X130606972Y-52195988D01*
X130523140Y-52194964D01*
X130373640Y-52193137D01*
X130373638Y-52193137D01*
X130368471Y-52193074D01*
X130132698Y-52229153D01*
X129905982Y-52303255D01*
X129901394Y-52305643D01*
X129901390Y-52305645D01*
X129771455Y-52373285D01*
X129694414Y-52413390D01*
X129690281Y-52416493D01*
X129690278Y-52416495D01*
X129507810Y-52553497D01*
X129503675Y-52556602D01*
X129338887Y-52729042D01*
X129204475Y-52926082D01*
X129104051Y-53142428D01*
X129040309Y-53372272D01*
X129014963Y-53609440D01*
X100750500Y-53609440D01*
X100750500Y-52049669D01*
X102402001Y-52049669D01*
X102402371Y-52056490D01*
X102407895Y-52107352D01*
X102411521Y-52122604D01*
X102456676Y-52243054D01*
X102465214Y-52258649D01*
X102541715Y-52360724D01*
X102554276Y-52373285D01*
X102656351Y-52449786D01*
X102671946Y-52458324D01*
X102792394Y-52503478D01*
X102807649Y-52507105D01*
X102858514Y-52512631D01*
X102865328Y-52513000D01*
X103537885Y-52513000D01*
X103553124Y-52508525D01*
X103554329Y-52507135D01*
X103556000Y-52499452D01*
X103556000Y-52494884D01*
X104064000Y-52494884D01*
X104068475Y-52510123D01*
X104069865Y-52511328D01*
X104077548Y-52512999D01*
X104754669Y-52512999D01*
X104761490Y-52512629D01*
X104812352Y-52507105D01*
X104827604Y-52503479D01*
X104948054Y-52458324D01*
X104963649Y-52449786D01*
X105065724Y-52373285D01*
X105078285Y-52360724D01*
X105154786Y-52258649D01*
X105163324Y-52243054D01*
X105208478Y-52122606D01*
X105212105Y-52107351D01*
X105217631Y-52056486D01*
X105218000Y-52049672D01*
X105218000Y-51377115D01*
X105213525Y-51361876D01*
X105212135Y-51360671D01*
X105204452Y-51359000D01*
X104082115Y-51359000D01*
X104066876Y-51363475D01*
X104065671Y-51364865D01*
X104064000Y-51372548D01*
X104064000Y-52494884D01*
X103556000Y-52494884D01*
X103556000Y-51377115D01*
X103551525Y-51361876D01*
X103550135Y-51360671D01*
X103542452Y-51359000D01*
X102420116Y-51359000D01*
X102404877Y-51363475D01*
X102403672Y-51364865D01*
X102402001Y-51372548D01*
X102402001Y-52049669D01*
X100750500Y-52049669D01*
X100750500Y-47536500D01*
X100770502Y-47468379D01*
X100824158Y-47421886D01*
X100876500Y-47410500D01*
X102356736Y-47410500D01*
X102424857Y-47430502D01*
G37*
%TD.AperFunction*%
%TD*%
M02*
